<?xml version="1.0" encoding="UTF-8" standalone="no"?>
<!-- This is a Stata 16.1 generated SVG file (http://www.stata.com) -->

<svg version="1.1" width="5.50in" height="4.00in" viewBox="0 0 3960 2880" xmlns="http://www.w3.org/2000/svg" xmlns:xlink="http://www.w3.org/1999/xlink">
	<desc>Stata Graph - Graph</desc>
	<rect x="0" y="0" width="3960" height="2880" style="fill:#EAF2F3;stroke:none"/>
	<rect x="0.00" y="0.00" width="3959.88" height="2880.00" style="fill:#EAF2F3"/>
	<rect x="2.88" y="2.88" width="3954.12" height="2874.24" style="fill:none;stroke:#EAF2F3;stroke-width:5.76"/>
	<rect x="390.80" y="100.86" width="3468.22" height="2388.33" style="fill:#FFFFFF"/>
	<rect x="393.68" y="103.74" width="3462.46" height="2382.57" style="fill:none;stroke:#FFFFFF;stroke-width:5.76"/>
	<line x1="390.80" y1="2425.82" x2="3859.02" y2="2425.82" style="stroke:#EAF2F3;stroke-width:8.64"/>
	<line x1="390.80" y1="1975.36" x2="3859.02" y2="1975.36" style="stroke:#EAF2F3;stroke-width:8.64"/>
	<line x1="390.80" y1="1524.77" x2="3859.02" y2="1524.77" style="stroke:#EAF2F3;stroke-width:8.64"/>
	<line x1="390.80" y1="1074.18" x2="3859.02" y2="1074.18" style="stroke:#EAF2F3;stroke-width:8.64"/>
	<line x1="390.80" y1="623.72" x2="3859.02" y2="623.72" style="stroke:#EAF2F3;stroke-width:8.64"/>
	<line x1="390.80" y1="173.13" x2="3859.02" y2="173.13" style="stroke:#EAF2F3;stroke-width:8.64"/>
	<path d=" M495.87 2425.95 L537.57 2425.95 L579.40 2425.95 L621.10 2425.95 L662.93 2425.95 L704.76 2425.95 L746.46 2425.95 L788.29 2425.95 L829.99 2425.95 L871.82 2425.95 L913.52 2425.95 L955.35 2425.95 L997.05 2425.95 L1038.88 2425.95 L1080.59 2425.95 L1122.41 2425.95 L1164.12 2425.95 L1205.94 2425.95 L1247.65 2425.95 L1289.47 2425.95 L1331.30 2425.95 L1373.01 2425.95 L1414.83 2425.95 L1456.54 2425.95 L1498.37 2425.95 L1540.07 2425.95 L1581.90 2425.95 L1623.60 2425.95 L1665.43 2425.95 L1665.43 2423.60 L1707.13 2423.60 L1707.13 2421.37 L1748.96 2421.37 L1748.96 2419.14 L1790.66 2419.14 L1832.49 2419.14 L1874.19 2419.14 L1916.02 2419.14 L1916.02 2416.91 L1916.02 2414.69 L1957.85 2414.69 L1957.85 2412.33 L1957.85 2410.11 L1957.85 2407.88 L1999.55 2407.88 L2041.38 2407.88 L2041.38 2405.65 L2041.38 2403.42 L2041.38 2401.07 L2041.38 2398.84 L2083.08 2398.84 L2083.08 2396.62 L2083.08 2394.39 L2124.91 2394.39 L2124.91 2392.16 L2124.91 2389.81 L2124.91 2387.58 L2166.61 2387.58 L2166.61 2385.36 L2166.61 2383.13 L2166.61 2380.90 L2166.61 2378.55 L2166.61 2376.32 L2208.44 2376.32 L2208.44 2374.09 L2208.44 2371.87 L2208.44 2369.64 L2208.44 2367.29 L2250.15 2367.29 L2250.15 2365.06 L2250.15 2362.83 L2250.15 2360.61 L2250.15 2358.38 L2291.97 2358.38 L2291.97 2356.03 L2291.97 2353.80 L2291.97 2351.57 L2291.97 2349.34 L2291.97 2347.12 L2291.97 2344.76 L2291.97 2342.54 L2291.97 2340.31 L2291.97 2338.08 L2291.97 2335.85 L2291.97 2333.50 L2291.97 2331.28 L2333.68 2331.28 L2333.68 2329.05 L2333.68 2326.82 L2333.68 2324.59 L2333.68 2322.24 L2333.68 2320.01 L2333.68 2317.79 L2333.68 2315.56 L2333.68 2313.33 L2333.68 2310.98 L2375.51 2310.98 L2375.51 2308.75 L2375.51 2306.52 L2375.51 2304.30 L2375.51 2302.07 L2375.51 2299.72 L2375.51 2297.49 L2375.51 2295.26 L2375.51 2293.04 L2375.51 2290.81 L2417.21 2290.81 L2417.21 2288.46 L2417.21 2286.23 L2417.21 2284.00 L2417.21 2281.77 L2417.21 2279.55 L2417.21 2277.19 L2417.21 2274.97 L2417.21 2272.74 L2417.21 2270.51 L2417.21 2268.16 L2417.21 2265.93 L2417.21 2263.71 L2417.21 2261.48 L2417.21 2259.25 L2417.21 2256.90 L2417.21 2254.67 L2417.21 2252.44 L2417.21 2250.22 L2459.04 2250.22 L2459.04 2247.99 L2459.04 2245.64 L2459.04 2243.41 L2459.04 2241.18 L2459.04 2238.95 L2459.04 2236.73 L2459.04 2234.38 L2459.04 2232.15 L2459.04 2229.92 L2459.04 2227.69 L2459.04 2225.47 L2459.04 2223.11 L2459.04 2220.89 L2459.04 2218.66 L2459.04 2216.43 L2459.04 2214.20 L2459.04 2211.85 L2459.04 2209.63 L2459.04 2207.40 L2459.04 2205.17 L2459.04 2202.94 L2459.04 2200.59 L2500.74 2200.59 L2500.74 2198.36 L2500.74 2196.14 L2500.74 2193.91 L2500.74 2191.68 L2500.74 2189.33 L2500.74 2187.10 L2500.74 2184.87 L2500.74 2182.65 L2500.74 2180.42 L2500.74 2178.07 L2500.74 2175.84 L2500.74 2173.61 L2500.74 2171.39 L2500.74 2169.16 L2500.74 2166.81 L2500.74 2164.58 L2500.74 2162.35 L2542.57 2160.12 L2542.57 2157.90 L2542.57 2155.54 L2542.57 2153.32 L2542.57 2151.09 L2542.57 2148.86 L2542.57 2146.63 L2542.57 2144.28 L2542.57 2142.06 L2542.57 2139.83 L2542.57 2137.60 L2542.57 2135.37 L2542.57 2133.02 L2542.57 2130.79 L2542.57 2128.57 L2542.57 2126.34 L2542.57 2124.11 L2542.57 2121.76 L2542.57 2119.53 L2542.57 2117.30 L2542.57 2115.08 L2542.57 2112.73 L2542.57 2110.50 L2542.57 2108.27 L2542.57 2106.04 L2542.57 2103.82 L2542.57 2101.46 L2584.39 2101.46 L2584.39 2099.24 L2584.39 2097.01 L2584.39 2094.78 L2584.39 2092.55 L2584.39 2090.20 L2584.39 2087.98 L2584.39 2085.75 L2584.39 2083.52 L2584.39 2081.29 L2584.39 2078.94 L2584.39 2076.71 L2584.39 2074.49 L2584.39 2072.26 L2584.39 2070.03 L2584.39 2067.68 L2584.39 2065.45 L2584.39 2063.22 L2584.39 2061.00 L2584.39 2058.77 L2584.39 2056.42 L2584.39 2054.19 L2584.39 2051.96 L2584.39 2049.74 L2584.39 2047.51 L2584.39 2045.16 L2584.39 2042.93 L2584.39 2040.70 L2584.39 2038.47 L2626.10 2038.47 L2626.10 2036.25 L2626.10 2033.89 L2626.10 2031.67 L2626.10 2029.44 L2626.10 2027.21 L2626.10 2024.98 L2626.10 2022.63 L2626.10 2020.41 L2626.10 2018.18 L2626.10 2015.95 L2626.10 2013.72 L2626.10 2011.37 L2626.10 2009.14 L2626.10 2006.92 L2626.10 2004.69 L2626.10 2002.46 L2626.10 2000.11 L2626.10 1997.88 L2626.10 1995.65 L2626.10 1993.43 L2626.10 1991.20 L2626.10 1988.85 L2626.10 1986.62 L2626.10 1984.39 L2626.10 1982.17 L2626.10 1979.94 L2626.10 1977.59 L2626.10 1975.36 L2626.10 1973.13 L2626.10 1970.90 L2626.10 1968.68 L2626.10 1966.33 L2626.10 1964.10 L2626.10 1961.87 L2626.10 1959.64 L2626.10 1957.29 L2667.93 1957.29 L2667.93 1955.06 L2667.93 1952.84 L2667.93 1950.61 L2667.93 1948.38 L2667.93 1946.03 L2667.93 1943.80 L2667.93 1941.57 L2667.93 1939.35 L2667.93 1937.12 L2667.93 1934.77 L2667.93 1932.54 L2667.93 1930.31 L2667.93 1928.09 L2667.93 1925.86 L2667.93 1923.51 L2667.93 1921.28 L2667.93 1919.05 L2667.93 1916.82 L2667.93 1914.60 L2667.93 1912.24 L2667.93 1910.02 L2667.93 1907.79 L2667.93 1905.56 L2667.93 1903.33 L2667.93 1900.98 L2667.93 1898.76 L2667.93 1896.53 L2667.93 1894.30 L2667.93 1892.07 L2667.93 1889.72 L2667.93 1887.49 L2667.93 1885.27 L2667.93 1883.04 L2667.93 1880.81 L2667.93 1878.46 L2667.93 1876.23 L2667.93 1874.00 L2667.93 1871.78 L2667.93 1869.55 L2667.93 1867.20 L2667.93 1864.97 L2667.93 1862.74 L2667.93 1860.52 L2709.63 1860.52 L2709.63 1858.29 L2709.63 1855.94 L2709.63 1853.71 L2709.63 1851.48 L2709.63 1849.25 L2709.63 1847.03 L2709.63 1844.68 L2709.63 1842.45 L2709.63 1840.22 L2709.63 1837.99 L2709.63 1835.76 L2709.63 1833.41 L2709.63 1831.19 L2709.63 1828.96 L2709.63 1826.73 L2709.63 1824.50 L2709.63 1822.15 L2709.63 1819.92 L2709.63 1817.70 L2709.63 1815.47 L2709.63 1813.24 L2709.63 1810.89 L2709.63 1808.66 L2709.63 1806.44 L2709.63 1804.21 L2709.63 1801.86 L2709.63 1799.63 L2709.63 1797.40 L2709.63 1795.17 L2709.63 1792.95 L2709.63 1790.59 L2709.63 1788.37 L2709.63 1786.14 L2709.63 1783.91 L2709.63 1781.68 L2709.63 1779.33 L2709.63 1777.11 L2709.63 1774.88 L2709.63 1772.65 L2709.63 1770.42 L2709.63 1768.07 L2709.63 1765.84 L2709.63 1763.62 L2709.63 1761.39 L2709.63 1759.16 L2709.63 1756.81 L2709.63 1754.58 L2709.63 1752.35 L2709.63 1750.13 L2709.63 1747.90 L2709.63 1745.55 L2751.46 1745.55 L2751.46 1743.32 L2751.46 1741.09 L2751.46 1738.87 L2751.46 1736.64 L2751.46 1734.29 L2751.46 1732.06 L2751.46 1729.83 L2751.46 1727.60 L2751.46 1725.38 L2751.46 1723.03 L2751.46 1720.80 L2751.46 1718.57 L2751.46 1716.34 L2751.46 1714.11 L2751.46 1711.76 L2751.46 1709.54 L2751.46 1707.31 L2751.46 1705.08 L2751.46 1702.85 L2751.46 1700.50 L2751.46 1698.27 L2751.46 1696.05 L2751.46 1693.82 L2751.46 1691.59 L2751.46 1689.24 L2751.46 1687.01 L2751.46 1684.79 L2751.46 1682.56 L2751.46 1680.33 L2751.46 1677.98 L2751.46 1675.75 L2751.46 1673.52 L2751.46 1671.30 L2751.46 1669.07 L2751.46 1666.72 L2751.46 1664.49 L2751.46 1662.26 L2751.46 1660.03 L2751.46 1657.81 L2751.46 1655.46 L2751.46 1653.23 L2793.16 1653.23 L2793.16 1651.00 L2793.16 1648.77 L2793.16 1646.42 L2793.16 1644.19 L2793.16 1641.97 L2793.16 1639.74 L2793.16 1637.51 L2793.16 1635.16 L2793.16 1632.93 L2793.16 1630.70 L2793.16 1628.48 L2793.16 1626.25 L2793.16 1623.90 L2793.16 1621.67 L2793.16 1619.44 L2793.16 1617.22 L2793.16 1614.99 L2793.16 1612.64 L2793.16 1610.41 L2793.16 1608.18 L2793.16 1605.95 L2793.16 1603.73 L2793.16 1601.38 L2793.16 1599.15 L2793.16 1596.92 L2793.16 1594.69 L2793.16 1592.46 L2793.16 1590.11 L2793.16 1587.89 L2793.16 1585.66 L2793.16 1583.43 L2793.16 1581.20 L2793.16 1578.85 L2793.16 1576.62 L2793.16 1574.40 L2793.16 1572.17 L2793.16 1569.94 L2793.16 1567.59 L2793.16 1565.36 L2793.16 1563.14 L2793.16 1560.91 L2793.16 1558.68 L2793.16 1556.33 L2793.16 1554.10 L2793.16 1551.87 L2793.16 1549.65 L2793.16 1547.42 L2793.16 1545.07 L2793.16 1542.84 L2834.99 1542.84 L2834.99 1540.61 L2834.99 1538.38 L2834.99 1536.16 L2834.99 1533.81 L2834.99 1531.58 L2834.99 1529.35 L2834.99 1527.12 L2834.99 1524.90 L2834.99 1522.54 L2834.99 1520.32 L2834.99 1518.09 L2834.99 1515.86 L2834.99 1513.63 L2834.99 1511.28 L2834.99 1509.05 L2834.99 1506.83 L2834.99 1504.60 L2834.99 1502.37 L2834.99 1500.02 L2834.99 1497.79 L2834.99 1495.57 L2834.99 1493.34 L2834.99 1490.99 L2834.99 1488.76 L2834.99 1486.53 L2834.99 1484.30 L2834.99 1482.08 L2834.99 1479.72 L2834.99 1477.50 L2834.99 1475.27 L2834.99 1473.04 L2834.99 1470.81 L2834.99 1468.46 L2834.99 1466.24 L2834.99 1464.01 L2834.99 1461.78 L2834.99 1459.55 L2834.99 1457.20 L2834.99 1454.97 L2834.99 1452.75 L2834.99 1450.52 L2834.99 1448.29 L2834.99 1445.94 L2834.99 1443.71 L2834.99 1441.49 L2834.99 1439.26 L2834.99 1437.03 L2834.99 1434.68 L2834.99 1432.45 L2834.99 1430.22 L2876.69 1430.22 L2876.69 1428.00 L2876.69 1425.77 L2876.69 1423.42 L2876.69 1421.19 L2876.69 1418.96 L2876.69 1416.73 L2876.69 1414.51 L2876.69 1412.16 L2876.69 1409.93 L2876.69 1407.70 L2876.69 1405.47 L2876.69 1403.25 L2876.69 1400.89 L2876.69 1398.67 L2876.69 1396.44 L2876.69 1394.21 L2876.69 1391.98 L2876.69 1389.63 L2876.69 1387.40 L2876.69 1385.18 L2876.69 1382.95 L2876.69 1380.72 L2876.69 1378.37 L2876.69 1376.14 L2876.69 1373.92 L2876.69 1371.69 L2876.69 1369.46 L2876.69 1367.11 L2876.69 1364.88 L2876.69 1362.65 L2876.69 1360.43 L2876.69 1358.20 L2876.69 1355.85 L2876.69 1353.62 L2876.69 1351.39 L2876.69 1349.16 L2876.69 1346.94 L2876.69 1344.59 L2876.69 1342.36 L2876.69 1340.13 L2876.69 1337.90 L2876.69 1335.55 L2876.69 1333.32 L2876.69 1331.10 L2876.69 1328.87 L2876.69 1326.64 L2876.69 1324.29 L2876.69 1322.06 L2876.69 1319.83 L2876.69 1317.61 L2876.69 1315.38 L2918.52 1315.38 L2918.52 1313.03 L2918.52 1310.80 L2918.52 1308.57 L2918.52 1306.35 L2918.52 1304.12 L2918.52 1301.77 L2918.52 1299.54 L2918.52 1297.31 L2918.52 1295.08 L2918.52 1292.86 L2918.52 1290.51 L2918.52 1288.28 L2918.52 1286.05 L2918.52 1283.82 L2918.52 1281.60 L2918.52 1279.24 L2918.52 1277.02 L2918.52 1274.79 L2918.52 1272.56 L2918.52 1270.33 L2918.52 1267.98 L2918.52 1265.75 L2918.52 1263.53 L2918.52 1261.30 L2918.52 1259.07 L2918.52 1256.72 L2918.52 1254.49 L2918.52 1252.27 L2918.52 1250.04 L2918.52 1247.81 L2918.52 1245.46 L2918.52 1243.23 L2918.52 1241.00 L2918.52 1238.78 L2918.52 1236.55 L2918.52 1234.20 L2918.52 1231.97 L2918.52 1229.74 L2918.52 1227.51 L2918.52 1225.29 L2918.52 1222.94 L2918.52 1220.71 L2918.52 1218.48 L2918.52 1216.25 L2918.52 1214.03 L2918.52 1211.67 L2918.52 1209.45 L2918.52 1207.22 L2918.52 1204.99 L2918.52 1202.76 L2918.52 1200.41 L2918.52 1198.18 L2918.52 1195.96 L2918.52 1193.73 L2960.22 1193.73 L2960.22 1191.50 L2960.22 1189.15 L2960.22 1186.92 L2960.22 1184.70 L2960.22 1182.47 L2960.22 1180.24 L2960.22 1177.89 L2960.22 1175.66 L2960.22 1173.43 L2960.22 1171.21 L2960.22 1168.86 L2960.22 1166.63 L2960.22 1164.40 L2960.22 1162.17 L2960.22 1159.94 L2960.22 1157.59 L2960.22 1155.37 L2960.22 1153.14 L2960.22 1150.91 L2960.22 1148.68 L2960.22 1146.33 L2960.22 1144.10 L2960.22 1141.88 L2960.22 1139.65 L2960.22 1137.42 L2960.22 1135.07 L2960.22 1132.84 L2960.22 1130.62 L2960.22 1128.39 L2960.22 1126.16 L2960.22 1123.81 L2960.22 1121.58 L2960.22 1119.35 L2960.22 1117.13 L2960.22 1114.90 L2960.22 1112.55 L2960.22 1110.32 L2960.22 1108.09 L2960.22 1105.86 L2960.22 1103.64 L2960.22 1101.29 L2960.22 1099.06 L2960.22 1096.83 L2960.22 1094.60 L2960.22 1092.38 L2960.22 1090.02 L2960.22 1087.80 L2960.22 1085.57 L2960.22 1083.34 L2960.22 1081.11 L2960.22 1078.76 L2960.22 1076.53 L2960.22 1074.31 L2960.22 1072.08 L2960.22 1069.85 L2960.22 1067.50 L2960.22 1065.27 L2960.22 1063.05 L2960.22 1060.82 L2960.22 1058.59 L2960.22 1056.24 L2960.22 1054.01 L2960.22 1051.78 L3002.05 1051.78 L3002.05 1049.56 L3002.05 1047.33 L3002.05 1044.98 L3002.05 1042.75 L3002.05 1040.52 L3002.05 1038.29 L3002.05 1036.07 L3002.05 1033.72 L3002.05 1031.49 L3002.05 1029.26 L3002.05 1027.03 L3002.05 1024.81 L3002.05 1022.45 L3002.05 1020.23 L3002.05 1018.00 L3002.05 1015.77 L3002.05 1013.42 L3002.05 1011.19 L3002.05 1008.97 L3002.05 1006.74 L3002.05 1004.51 L3002.05 1002.16 L3002.05 999.93 L3002.05 997.70 L3002.05 995.48 L3002.05 993.25 L3002.05 990.90 L3002.05 988.67 L3002.05 986.44 L3002.05 984.21 L3002.05 981.99 L3002.05 979.64 L3002.05 977.41 L3002.05 975.18 L3002.05 972.95 L3002.05 970.73 L3002.05 968.37 L3002.05 966.15 L3002.05 963.92 L3002.05 961.69 L3002.05 959.46 L3002.05 957.11 L3002.05 954.88 L3002.05 952.66 L3002.05 950.43 L3002.05 948.20 L3002.05 945.85 L3002.05 943.62 L3043.76 943.62 L3043.76 941.40 L3043.76 939.17 L3043.76 936.94 L3043.76 934.59 L3043.76 932.36 L3043.76 930.13 L3043.76 927.91 L3043.76 925.68 L3043.76 923.33 L3043.76 921.10 L3043.76 918.87 L3043.76 916.64 L3043.76 914.42 L3043.76 912.07 L3043.76 909.84 L3043.76 907.61 L3043.76 905.38 L3043.76 903.16 L3043.76 900.80 L3043.76 898.58 L3043.76 896.35 L3043.76 894.12 L3043.76 891.89 L3043.76 889.54 L3043.76 887.32 L3043.76 885.09 L3043.76 882.86 L3043.76 880.63 L3043.76 878.28 L3043.76 876.05 L3043.76 873.83 L3043.76 871.60 L3043.76 869.37 L3043.76 867.02 L3043.76 864.79 L3043.76 862.56 L3043.76 860.34 L3043.76 857.99 L3043.76 855.76 L3043.76 853.53 L3043.76 851.30 L3043.76 849.08 L3043.76 846.72 L3043.76 844.50 L3043.76 842.27 L3043.76 840.04 L3043.76 837.81 L3043.76 835.46 L3085.58 835.46 L3085.58 833.23 L3085.58 831.01 L3085.58 828.78 L3085.58 826.55 L3085.58 824.20 L3085.58 821.97 L3085.58 819.75 L3085.58 817.52 L3085.58 815.29 L3085.58 812.94 L3085.58 810.71 L3085.58 808.48 L3085.58 806.26 L3085.58 804.03 L3085.58 801.68 L3085.58 799.45 L3085.58 797.22 L3085.58 794.99 L3085.58 792.77 L3085.58 790.42 L3085.58 788.19 L3085.58 785.96 L3085.58 783.73 L3085.58 781.51 L3085.58 779.15 L3085.58 776.93 L3085.58 774.70 L3085.58 772.47 L3085.58 770.24 L3085.58 767.89 L3085.58 765.67 L3085.58 763.44 L3085.58 761.21 L3085.58 758.98 L3085.58 756.63 L3085.58 754.40 L3085.58 752.18 L3085.58 749.95 L3085.58 747.72 L3085.58 745.37 L3127.29 745.37 L3127.29 743.14 L3127.29 740.91 L3127.29 738.69 L3127.29 736.46 L3127.29 734.11 L3127.29 731.88 L3127.29 729.65 L3127.29 727.43 L3127.29 725.20 L3127.29 722.85 L3127.29 720.62 L3127.29 718.39 L3127.29 716.16 L3127.29 713.94 L3127.29 711.58 L3127.29 709.36 L3127.29 707.13 L3127.29 704.90 L3127.29 702.55 L3127.29 700.32 L3127.29 698.10 L3127.29 695.87 L3127.29 693.64 L3127.29 691.29 L3127.29 689.06 L3127.29 686.83 L3127.29 684.61 L3127.29 682.38 L3127.29 680.03 L3127.29 677.80 L3127.29 675.57 L3127.29 673.34 L3127.29 671.12 L3127.29 668.77 L3127.29 666.54 L3127.29 664.31 L3127.29 662.08 L3127.29 659.86 L3127.29 657.50 L3127.29 655.28 L3127.29 653.05 L3127.29 650.82 L3127.29 648.59 L3127.29 646.24 L3127.29 644.02 L3127.29 641.79 L3127.29 639.56 L3169.11 639.56 L3169.11 637.33 L3169.11 634.98 L3169.11 632.75 L3169.11 630.53 L3169.11 628.30 L3169.11 626.07 L3169.11 623.72 L3169.11 621.49 L3169.11 619.26 L3169.11 617.04 L3169.11 614.81 L3169.11 612.46 L3169.11 610.23 L3169.11 608.00 L3169.11 605.78 L3169.11 603.55 L3169.11 601.20 L3169.11 598.97 L3169.11 596.74 L3169.11 594.51 L3169.11 592.29 L3169.11 589.93 L3169.11 587.71 L3169.11 585.48 L3169.11 583.25 L3169.11 581.02 L3169.11 578.67 L3169.11 576.45 L3169.11 574.22 L3169.11 571.99 L3169.11 569.76 L3210.94 567.41 L3210.94 565.18 L3210.94 562.96 L3210.94 560.73 L3210.94 558.50 L3210.94 556.15 L3210.94 553.92 L3210.94 551.69 L3210.94 549.47 L3210.94 547.12 L3210.94 544.89 L3210.94 542.66 L3210.94 540.43 L3210.94 538.21 L3210.94 535.85 L3210.94 533.63 L3210.94 531.40 L3210.94 529.17 L3210.94 526.94 L3210.94 524.59 L3210.94 522.37 L3210.94 520.14 L3210.94 517.91 L3210.94 515.68 L3210.94 513.33 L3210.94 511.10 L3210.94 508.88 L3210.94 506.65 L3210.94 504.42 L3210.94 502.07 L3210.94 499.84 L3210.94 497.61 L3210.94 495.39 L3252.64 493.16 L3252.64 490.81 L3252.64 488.58 L3252.64 486.35 L3252.64 484.13 L3252.64 481.90 L3252.64 479.55 L3252.64 477.32 L3252.64 475.09 L3252.64 472.86 L3252.64 470.64 L3252.64 468.28 L3252.64 466.06 L3252.64 463.83 L3252.64 461.60 L3252.64 459.37 L3252.64 457.02 L3252.64 454.80 L3252.64 452.57 L3252.64 450.34 L3252.64 448.11 L3252.64 445.76 L3252.64 443.53 L3252.64 441.31 L3252.64 439.08 L3252.64 436.85 L3252.64 434.50 L3252.64 432.27 L3252.64 430.04 L3294.47 427.82 L3294.47 425.59 L3294.47 423.24 L3294.47 421.01 L3294.47 418.78 L3294.47 416.56 L3294.47 414.33 L3294.47 411.98 L3294.47 409.75 L3294.47 407.52 L3294.47 405.29 L3294.47 403.07 L3294.47 400.72 L3294.47 398.49 L3294.47 396.26 L3294.47 394.03 L3294.47 391.68 L3294.47 389.45 L3294.47 387.23 L3294.47 385.00 L3336.18 382.77 L3336.18 380.42 L3336.18 378.19 L3336.18 375.96 L3336.18 373.74 L3336.18 371.51 L3336.18 369.16 L3336.18 366.93 L3336.18 364.70 L3336.18 362.48 L3336.18 360.25 L3336.18 357.90 L3336.18 355.67 L3336.18 353.44 L3336.18 351.21 L3336.18 348.99 L3336.18 346.63 L3336.18 344.41 L3336.18 342.18 L3336.18 339.95 L3336.18 337.72 L3336.18 335.37 L3336.18 333.15 L3336.18 330.92 L3336.18 328.69 L3336.18 326.46 L3336.18 324.11 L3378.00 321.88 L3378.00 319.66 L3378.00 317.43 L3378.00 315.20 L3378.00 312.85 L3378.00 310.62 L3378.00 308.39 L3378.00 306.17 L3378.00 303.94 L3378.00 301.59 L3378.00 299.36 L3378.00 297.13 L3378.00 294.91 L3419.71 292.68 L3419.71 290.33 L3419.71 288.10 L3419.71 285.87 L3419.71 283.64 L3419.71 281.42 L3419.71 279.06 L3419.71 276.84 L3419.71 274.61 L3419.71 272.38 L3419.71 270.15 L3419.71 267.80 L3419.71 265.58 L3419.71 263.35 L3461.53 261.12 L3461.53 258.89 L3461.53 256.54 L3461.53 254.31 L3461.53 252.09 L3461.53 249.86 L3461.53 247.63 L3461.53 245.28 L3461.53 243.05 L3461.53 240.83 L3461.53 238.60 L3461.53 236.25 L3461.53 234.02 L3461.53 231.79 L3461.53 229.56 L3503.24 227.34 L3503.24 224.98 L3503.24 222.76 L3503.24 220.53 L3503.24 218.30 L3503.24 216.07 L3503.24 213.72 L3503.24 211.50 L3503.24 209.27 L3545.07 207.04 L3545.07 204.81 L3545.07 202.46 L3545.07 200.23 L3545.07 198.01 L3545.07 195.78 L3545.07 193.55 L3545.07 191.20 L3545.07 188.97 L3545.07 186.74 L3545.07 184.52 L3586.77 182.29 L3586.77 179.94 L3586.77 177.71 L3586.77 175.48 L3628.60 173.26 L3628.60 171.03 L3628.60 168.68 L3670.30 166.45 L3670.30 164.22 L3753.83 164.22" stroke-linejoin="round" style="fill:none;stroke:#1A476F;stroke-width:8.64"/>
	<line x1="390.80" y1="2489.19" x2="390.80" y2="100.86" style="stroke:#000000;stroke-width:5.76"/>
	<line x1="390.80" y1="2425.82" x2="350.83" y2="2425.82" style="stroke:#000000;stroke-width:5.76"/>
	<text x="300.72" y="2425.82" style="font-family:'Helvetica';font-size:99.99px;fill:#000000" transform="rotate(-90 300.72,2425.82)" text-anchor="middle">0</text>
	<line x1="390.80" y1="1975.36" x2="350.83" y2="1975.36" style="stroke:#000000;stroke-width:5.76"/>
	<text x="300.72" y="1975.36" style="font-family:'Helvetica';font-size:99.99px;fill:#000000" transform="rotate(-90 300.72,1975.36)" text-anchor="middle">200</text>
	<line x1="390.80" y1="1524.77" x2="350.83" y2="1524.77" style="stroke:#000000;stroke-width:5.76"/>
	<text x="300.72" y="1524.77" style="font-family:'Helvetica';font-size:99.99px;fill:#000000" transform="rotate(-90 300.72,1524.77)" text-anchor="middle">400</text>
	<line x1="390.80" y1="1074.18" x2="350.83" y2="1074.18" style="stroke:#000000;stroke-width:5.76"/>
	<text x="300.72" y="1074.18" style="font-family:'Helvetica';font-size:99.99px;fill:#000000" transform="rotate(-90 300.72,1074.18)" text-anchor="middle">600</text>
	<line x1="390.80" y1="623.72" x2="350.83" y2="623.72" style="stroke:#000000;stroke-width:5.76"/>
	<text x="300.72" y="623.72" style="font-family:'Helvetica';font-size:99.99px;fill:#000000" transform="rotate(-90 300.72,623.72)" text-anchor="middle">800</text>
	<line x1="390.80" y1="173.13" x2="350.83" y2="173.13" style="stroke:#000000;stroke-width:5.76"/>
	<text x="300.72" y="173.13" style="font-family:'Helvetica';font-size:99.99px;fill:#000000" transform="rotate(-90 300.72,173.13)" text-anchor="middle">1000</text>
	<text x="190.71" y="1294.96" style="font-family:'Helvetica';font-size:99.99px;fill:#000000" transform="rotate(-90 190.71,1294.96)" text-anchor="middle">cum_ituadmission</text>
	<line x1="390.80" y1="2489.19" x2="3859.02" y2="2489.19" style="stroke:#000000;stroke-width:5.76"/>
	<line x1="454.16" y1="2489.19" x2="454.16" y2="2529.16" style="stroke:#000000;stroke-width:5.76"/>
	<text x="454.16" y="2619.14" style="font-family:'Helvetica';font-size:99.99px;fill:#000000" text-anchor="middle">0</text>
	<line x1="1289.47" y1="2489.19" x2="1289.47" y2="2529.16" style="stroke:#000000;stroke-width:5.76"/>
	<text x="1289.47" y="2619.14" style="font-family:'Helvetica';font-size:99.99px;fill:#000000" text-anchor="middle">20</text>
	<line x1="2124.91" y1="2489.19" x2="2124.91" y2="2529.16" style="stroke:#000000;stroke-width:5.76"/>
	<text x="2124.91" y="2619.14" style="font-family:'Helvetica';font-size:99.99px;fill:#000000" text-anchor="middle">40</text>
	<line x1="2960.35" y1="2489.19" x2="2960.35" y2="2529.16" style="stroke:#000000;stroke-width:5.76"/>
	<text x="2960.35" y="2619.14" style="font-family:'Helvetica';font-size:99.99px;fill:#000000" text-anchor="middle">60</text>
	<line x1="3795.66" y1="2489.19" x2="3795.66" y2="2529.16" style="stroke:#000000;stroke-width:5.76"/>
	<text x="3795.66" y="2619.14" style="font-family:'Helvetica';font-size:99.99px;fill:#000000" text-anchor="middle">80</text>
	<text x="2124.91" y="2729.16" style="font-family:'Helvetica';font-size:99.99px;fill:#000000" text-anchor="middle">Analysis time when record ends</text>
</svg>
