<?xml version="1.0" encoding="UTF-8" standalone="no"?>
<!-- This is a Stata 16.1 generated SVG file (http://www.stata.com) -->

<svg version="1.1" width="5.50in" height="4.00in" viewBox="0 0 3960 2880" xmlns="http://www.w3.org/2000/svg" xmlns:xlink="http://www.w3.org/1999/xlink">
	<desc>Stata Graph - Graph</desc>
	<rect x="0" y="0" width="3960" height="2880" style="fill:#EAF2F3;stroke:none"/>
	<rect x="0.00" y="0.00" width="3959.88" height="2880.00" style="fill:#EAF2F3"/>
	<rect x="2.88" y="2.88" width="3954.12" height="2874.24" style="fill:none;stroke:#EAF2F3;stroke-width:5.76"/>
	<rect x="390.80" y="100.86" width="3468.22" height="2388.33" style="fill:#FFFFFF"/>
	<rect x="393.68" y="103.74" width="3462.46" height="2382.57" style="fill:none;stroke:#FFFFFF;stroke-width:5.76"/>
	<line x1="390.80" y1="2425.82" x2="3859.02" y2="2425.82" style="stroke:#EAF2F3;stroke-width:8.64"/>
	<line x1="390.80" y1="1860.39" x2="3859.02" y2="1860.39" style="stroke:#EAF2F3;stroke-width:8.64"/>
	<line x1="390.80" y1="1294.96" x2="3859.02" y2="1294.96" style="stroke:#EAF2F3;stroke-width:8.64"/>
	<line x1="390.80" y1="729.53" x2="3859.02" y2="729.53" style="stroke:#EAF2F3;stroke-width:8.64"/>
	<line x1="390.80" y1="164.22" x2="3859.02" y2="164.22" style="stroke:#EAF2F3;stroke-width:8.64"/>
	<path d=" M495.87 2425.95 L537.57 2425.95 L579.40 2425.95 L621.10 2425.95 L662.93 2425.95 L704.76 2425.95 L746.46 2425.95 L788.29 2425.95 L829.99 2425.95 L871.82 2425.95 L913.52 2425.95 L955.35 2425.95 L997.05 2425.95 L1038.88 2425.95 L1080.59 2425.95 L1122.41 2425.95 L1164.12 2425.95 L1205.94 2425.95 L1247.65 2425.95 L1289.47 2425.95 L1331.30 2425.95 L1373.01 2425.95 L1414.83 2425.95 L1456.54 2425.95 L1498.37 2425.95 L1540.07 2425.95 L1581.90 2425.95 L1581.90 2425.33 L1623.60 2425.33 L1665.43 2425.33 L1665.43 2424.83 L1707.13 2424.83 L1707.13 2424.21 L1748.96 2424.21 L1748.96 2423.60 L1748.96 2423.10 L1790.66 2423.10 L1790.66 2422.48 L1832.49 2422.48 L1832.49 2421.99 L1874.19 2421.99 L1916.02 2421.99 L1957.85 2421.99 L1999.55 2421.99 L2041.38 2421.99 L2083.08 2421.99 L2083.08 2421.37 L2124.91 2421.37 L2166.61 2421.37 L2166.61 2420.87 L2166.61 2420.25 L2208.44 2420.25 L2208.44 2419.64 L2208.44 2419.14 L2208.44 2418.52 L2208.44 2418.03 L2250.15 2418.03 L2250.15 2417.41 L2250.15 2416.91 L2250.15 2416.29 L2291.97 2416.29 L2291.97 2415.68 L2291.97 2415.18 L2291.97 2414.56 L2291.97 2414.07 L2291.97 2413.45 L2291.97 2412.95 L2291.97 2412.33 L2291.97 2411.72 L2333.68 2411.72 L2333.68 2411.22 L2333.68 2410.60 L2333.68 2410.11 L2333.68 2409.49 L2333.68 2408.99 L2333.68 2408.37 L2333.68 2407.76 L2333.68 2407.26 L2375.51 2407.26 L2375.51 2406.64 L2375.51 2406.15 L2375.51 2405.53 L2375.51 2405.03 L2375.51 2404.41 L2375.51 2403.92 L2375.51 2403.30 L2375.51 2402.68 L2375.51 2402.19 L2375.51 2401.57 L2375.51 2401.07 L2375.51 2400.45 L2375.51 2399.96 L2375.51 2399.34 L2417.21 2399.34 L2417.21 2398.72 L2417.21 2398.23 L2417.21 2397.61 L2417.21 2397.11 L2417.21 2396.49 L2417.21 2396.00 L2417.21 2395.38 L2417.21 2394.76 L2417.21 2394.27 L2417.21 2393.65 L2417.21 2393.15 L2459.04 2392.53 L2459.04 2392.04 L2459.04 2391.42 L2459.04 2390.80 L2459.04 2390.31 L2459.04 2389.69 L2459.04 2389.19 L2459.04 2388.57 L2459.04 2388.08 L2459.04 2387.46 L2459.04 2386.84 L2459.04 2386.35 L2459.04 2385.73 L2459.04 2385.23 L2459.04 2384.61 L2459.04 2384.12 L2459.04 2383.50 L2500.74 2383.50 L2500.74 2382.88 L2500.74 2382.39 L2500.74 2381.77 L2500.74 2381.27 L2500.74 2380.65 L2500.74 2380.16 L2500.74 2379.54 L2500.74 2378.92 L2500.74 2378.43 L2500.74 2377.81 L2500.74 2377.31 L2500.74 2376.69 L2500.74 2376.20 L2500.74 2375.58 L2500.74 2374.96 L2500.74 2374.47 L2500.74 2373.85 L2500.74 2373.35 L2500.74 2372.73 L2500.74 2372.24 L2500.74 2371.62 L2542.57 2371.62 L2542.57 2371.12 L2542.57 2370.51 L2542.57 2369.89 L2542.57 2369.39 L2542.57 2368.77 L2542.57 2368.28 L2542.57 2367.66 L2542.57 2367.16 L2542.57 2366.55 L2542.57 2365.93 L2542.57 2365.43 L2542.57 2364.81 L2542.57 2364.32 L2542.57 2363.70 L2542.57 2363.20 L2542.57 2362.59 L2542.57 2361.97 L2542.57 2361.47 L2542.57 2360.85 L2542.57 2360.36 L2542.57 2359.74 L2542.57 2359.24 L2542.57 2358.62 L2542.57 2358.01 L2542.57 2357.51 L2542.57 2356.89 L2542.57 2356.40 L2542.57 2355.78 L2542.57 2355.28 L2542.57 2354.66 L2542.57 2354.05 L2542.57 2353.55 L2542.57 2352.93 L2542.57 2352.44 L2584.39 2352.44 L2584.39 2351.82 L2584.39 2351.32 L2584.39 2350.70 L2584.39 2350.09 L2584.39 2349.59 L2584.39 2348.97 L2584.39 2348.48 L2584.39 2347.86 L2584.39 2347.36 L2584.39 2346.74 L2584.39 2346.13 L2584.39 2345.63 L2584.39 2345.01 L2584.39 2344.52 L2584.39 2343.90 L2584.39 2343.40 L2584.39 2342.78 L2584.39 2342.17 L2584.39 2341.67 L2584.39 2341.05 L2584.39 2340.56 L2584.39 2339.94 L2584.39 2339.44 L2584.39 2338.82 L2584.39 2338.33 L2584.39 2337.71 L2584.39 2337.09 L2584.39 2336.60 L2584.39 2335.98 L2584.39 2335.48 L2584.39 2334.86 L2584.39 2334.37 L2584.39 2333.75 L2584.39 2333.13 L2584.39 2332.64 L2584.39 2332.02 L2584.39 2331.52 L2584.39 2330.90 L2584.39 2330.41 L2584.39 2329.79 L2626.10 2329.79 L2626.10 2329.17 L2626.10 2328.68 L2626.10 2328.06 L2626.10 2327.56 L2626.10 2326.94 L2626.10 2326.45 L2626.10 2325.83 L2626.10 2325.21 L2626.10 2324.72 L2626.10 2324.10 L2626.10 2323.60 L2626.10 2322.98 L2626.10 2322.49 L2626.10 2321.87 L2626.10 2321.25 L2626.10 2320.76 L2626.10 2320.14 L2626.10 2319.64 L2626.10 2319.02 L2626.10 2318.53 L2626.10 2317.91 L2626.10 2317.29 L2626.10 2316.80 L2626.10 2316.18 L2626.10 2315.68 L2626.10 2315.06 L2626.10 2314.57 L2626.10 2313.95 L2626.10 2313.33 L2626.10 2312.84 L2626.10 2312.22 L2626.10 2311.72 L2626.10 2311.10 L2626.10 2310.61 L2626.10 2309.99 L2626.10 2309.37 L2626.10 2308.88 L2626.10 2308.26 L2626.10 2307.76 L2626.10 2307.14 L2626.10 2306.65 L2626.10 2306.03 L2626.10 2305.53 L2626.10 2304.92 L2626.10 2304.30 L2626.10 2303.80 L2626.10 2303.18 L2626.10 2302.69 L2667.93 2302.69 L2667.93 2302.07 L2667.93 2301.57 L2667.93 2300.96 L2667.93 2300.34 L2667.93 2299.84 L2667.93 2299.22 L2667.93 2298.73 L2667.93 2298.11 L2667.93 2297.61 L2667.93 2297.00 L2667.93 2296.38 L2667.93 2295.88 L2667.93 2295.26 L2667.93 2294.77 L2667.93 2294.15 L2667.93 2293.65 L2667.93 2293.04 L2667.93 2292.42 L2667.93 2291.92 L2667.93 2291.30 L2667.93 2290.81 L2667.93 2290.19 L2667.93 2289.69 L2667.93 2289.08 L2667.93 2288.46 L2667.93 2287.96 L2667.93 2287.34 L2667.93 2286.85 L2667.93 2286.23 L2667.93 2285.73 L2667.93 2285.12 L2667.93 2284.50 L2667.93 2284.00 L2667.93 2283.38 L2667.93 2282.89 L2667.93 2282.27 L2667.93 2281.77 L2667.93 2281.16 L2667.93 2280.54 L2667.93 2280.04 L2667.93 2279.42 L2667.93 2278.93 L2667.93 2278.31 L2667.93 2277.81 L2667.93 2277.19 L2667.93 2276.58 L2667.93 2276.08 L2667.93 2275.46 L2667.93 2274.97 L2709.63 2274.97 L2709.63 2274.35 L2709.63 2273.85 L2709.63 2273.23 L2709.63 2272.74 L2709.63 2272.12 L2709.63 2271.50 L2709.63 2271.01 L2709.63 2270.39 L2709.63 2269.89 L2709.63 2269.27 L2709.63 2268.78 L2709.63 2268.16 L2709.63 2267.54 L2709.63 2267.05 L2709.63 2266.43 L2709.63 2265.93 L2709.63 2265.31 L2709.63 2264.82 L2709.63 2264.20 L2709.63 2263.58 L2709.63 2263.09 L2709.63 2262.47 L2709.63 2261.97 L2709.63 2261.35 L2709.63 2260.86 L2709.63 2260.24 L2709.63 2259.62 L2709.63 2259.13 L2709.63 2258.51 L2709.63 2258.01 L2709.63 2257.39 L2709.63 2256.90 L2709.63 2256.28 L2709.63 2255.66 L2709.63 2255.17 L2709.63 2254.55 L2709.63 2254.05 L2709.63 2253.43 L2709.63 2252.94 L2709.63 2252.32 L2709.63 2251.70 L2709.63 2251.21 L2709.63 2250.59 L2709.63 2250.09 L2709.63 2249.47 L2709.63 2248.98 L2709.63 2248.36 L2709.63 2247.74 L2709.63 2247.25 L2709.63 2246.63 L2709.63 2246.13 L2709.63 2245.51 L2709.63 2245.02 L2709.63 2244.40 L2709.63 2243.78 L2709.63 2243.29 L2709.63 2242.67 L2709.63 2242.17 L2709.63 2241.55 L2709.63 2241.06 L2709.63 2240.44 L2709.63 2239.94 L2709.63 2239.33 L2709.63 2238.71 L2709.63 2238.21 L2709.63 2237.59 L2709.63 2237.10 L2709.63 2236.48 L2709.63 2235.98 L2709.63 2235.37 L2709.63 2234.75 L2709.63 2234.25 L2709.63 2233.63 L2709.63 2233.14 L2709.63 2232.52 L2709.63 2232.02 L2709.63 2231.41 L2709.63 2230.79 L2709.63 2230.29 L2751.46 2230.29 L2751.46 2229.67 L2751.46 2229.18 L2751.46 2228.56 L2751.46 2228.06 L2751.46 2227.45 L2751.46 2226.83 L2751.46 2226.33 L2751.46 2225.71 L2751.46 2225.22 L2751.46 2224.60 L2751.46 2224.10 L2751.46 2223.49 L2751.46 2222.87 L2751.46 2222.37 L2751.46 2221.75 L2751.46 2221.26 L2751.46 2220.64 L2751.46 2220.14 L2751.46 2219.53 L2751.46 2218.91 L2751.46 2218.41 L2751.46 2217.79 L2751.46 2217.30 L2751.46 2216.68 L2751.46 2216.18 L2751.46 2215.57 L2751.46 2214.95 L2751.46 2214.45 L2751.46 2213.83 L2751.46 2213.34 L2751.46 2212.72 L2751.46 2212.22 L2751.46 2211.61 L2751.46 2211.11 L2751.46 2210.49 L2751.46 2209.87 L2751.46 2209.38 L2751.46 2208.76 L2751.46 2208.26 L2751.46 2207.65 L2751.46 2207.15 L2751.46 2206.53 L2751.46 2205.91 L2751.46 2205.42 L2751.46 2204.80 L2751.46 2204.30 L2751.46 2203.69 L2751.46 2203.19 L2751.46 2202.57 L2751.46 2201.95 L2751.46 2201.46 L2751.46 2200.84 L2751.46 2200.34 L2751.46 2199.72 L2751.46 2199.23 L2751.46 2198.61 L2751.46 2197.99 L2751.46 2197.50 L2751.46 2196.88 L2751.46 2196.38 L2751.46 2195.76 L2751.46 2195.27 L2751.46 2194.65 L2751.46 2194.03 L2751.46 2193.54 L2751.46 2192.92 L2751.46 2192.42 L2751.46 2191.80 L2751.46 2191.31 L2751.46 2190.69 L2751.46 2190.07 L2751.46 2189.58 L2751.46 2188.96 L2751.46 2188.46 L2751.46 2187.84 L2751.46 2187.35 L2751.46 2186.73 L2751.46 2186.11 L2751.46 2185.62 L2751.46 2185.00 L2751.46 2184.50 L2751.46 2183.88 L2751.46 2183.39 L2751.46 2182.77 L2751.46 2182.15 L2751.46 2181.66 L2751.46 2181.04 L2751.46 2180.54 L2751.46 2179.92 L2751.46 2179.43 L2751.46 2178.81 L2751.46 2178.32 L2751.46 2177.70 L2751.46 2177.08 L2751.46 2176.58 L2751.46 2175.96 L2793.16 2175.96 L2793.16 2175.47 L2793.16 2174.85 L2793.16 2174.36 L2793.16 2173.74 L2793.16 2173.12 L2793.16 2172.62 L2793.16 2172.00 L2793.16 2171.51 L2793.16 2170.89 L2793.16 2170.40 L2793.16 2169.78 L2793.16 2169.16 L2793.16 2168.66 L2793.16 2168.04 L2793.16 2167.55 L2793.16 2166.93 L2793.16 2166.44 L2793.16 2165.82 L2793.16 2165.20 L2793.16 2164.70 L2793.16 2164.08 L2793.16 2163.59 L2793.16 2162.97 L2793.16 2162.48 L2793.16 2161.86 L2793.16 2161.24 L2793.16 2160.74 L2793.16 2160.12 L2793.16 2159.63 L2793.16 2159.01 L2793.16 2158.51 L2793.16 2157.90 L2793.16 2157.28 L2793.16 2156.78 L2793.16 2156.16 L2793.16 2155.67 L2793.16 2155.05 L2793.16 2154.55 L2793.16 2153.94 L2793.16 2153.32 L2793.16 2152.82 L2793.16 2152.20 L2793.16 2151.71 L2793.16 2151.09 L2793.16 2150.59 L2793.16 2149.98 L2793.16 2149.36 L2793.16 2148.86 L2793.16 2148.24 L2793.16 2147.75 L2793.16 2147.13 L2793.16 2146.63 L2793.16 2146.02 L2793.16 2145.52 L2793.16 2144.90 L2793.16 2144.28 L2793.16 2143.79 L2793.16 2143.17 L2793.16 2142.67 L2793.16 2142.06 L2793.16 2141.56 L2793.16 2140.94 L2793.16 2140.32 L2793.16 2139.83 L2793.16 2139.21 L2793.16 2138.71 L2793.16 2138.10 L2793.16 2137.60 L2793.16 2136.98 L2793.16 2136.36 L2793.16 2135.87 L2793.16 2135.25 L2793.16 2134.75 L2793.16 2134.14 L2793.16 2133.64 L2793.16 2133.02 L2793.16 2132.40 L2793.16 2131.91 L2793.16 2131.29 L2793.16 2130.79 L2793.16 2130.18 L2793.16 2129.68 L2793.16 2129.06 L2793.16 2128.44 L2793.16 2127.95 L2793.16 2127.33 L2793.16 2126.83 L2793.16 2126.22 L2793.16 2125.72 L2793.16 2125.10 L2793.16 2124.48 L2793.16 2123.99 L2793.16 2123.37 L2793.16 2122.87 L2793.16 2122.26 L2793.16 2121.76 L2793.16 2121.14 L2793.16 2120.52 L2793.16 2120.03 L2793.16 2119.41 L2834.99 2119.41 L2834.99 2118.91 L2834.99 2118.29 L2834.99 2117.80 L2834.99 2117.18 L2834.99 2116.56 L2834.99 2116.07 L2834.99 2115.45 L2834.99 2114.95 L2834.99 2114.33 L2834.99 2113.84 L2834.99 2113.22 L2834.99 2112.73 L2834.99 2112.11 L2834.99 2111.49 L2834.99 2110.99 L2834.99 2110.37 L2834.99 2109.88 L2834.99 2109.26 L2834.99 2108.77 L2834.99 2108.15 L2834.99 2107.53 L2834.99 2107.03 L2834.99 2106.41 L2834.99 2105.92 L2834.99 2105.30 L2834.99 2104.81 L2834.99 2104.19 L2834.99 2103.57 L2834.99 2103.07 L2834.99 2102.45 L2834.99 2101.96 L2834.99 2101.34 L2834.99 2100.85 L2834.99 2100.23 L2834.99 2099.61 L2834.99 2099.11 L2834.99 2098.49 L2834.99 2098.00 L2834.99 2097.38 L2834.99 2096.89 L2834.99 2096.27 L2834.99 2095.65 L2834.99 2095.15 L2834.99 2094.53 L2834.99 2094.04 L2834.99 2093.42 L2834.99 2092.93 L2834.99 2092.31 L2834.99 2091.69 L2834.99 2091.19 L2834.99 2090.57 L2834.99 2090.08 L2834.99 2089.46 L2834.99 2088.97 L2834.99 2088.35 L2834.99 2087.73 L2834.99 2087.23 L2834.99 2086.61 L2834.99 2086.12 L2834.99 2085.50 L2834.99 2085.01 L2834.99 2084.39 L2834.99 2083.77 L2834.99 2083.27 L2834.99 2082.65 L2834.99 2082.16 L2834.99 2081.54 L2834.99 2081.05 L2834.99 2080.43 L2834.99 2079.93 L2834.99 2079.31 L2834.99 2078.69 L2834.99 2078.20 L2834.99 2077.58 L2834.99 2077.08 L2834.99 2076.47 L2834.99 2075.97 L2834.99 2075.35 L2834.99 2074.73 L2834.99 2074.24 L2834.99 2073.62 L2834.99 2073.12 L2834.99 2072.51 L2834.99 2072.01 L2834.99 2071.39 L2834.99 2070.77 L2834.99 2070.28 L2834.99 2069.66 L2834.99 2069.16 L2834.99 2068.55 L2834.99 2068.05 L2834.99 2067.43 L2834.99 2066.81 L2834.99 2066.32 L2834.99 2065.70 L2834.99 2065.20 L2834.99 2064.59 L2834.99 2064.09 L2834.99 2063.47 L2834.99 2062.85 L2834.99 2062.36 L2834.99 2061.74 L2834.99 2061.24 L2834.99 2060.63 L2834.99 2060.13 L2834.99 2059.51 L2834.99 2058.89 L2834.99 2058.40 L2834.99 2057.78 L2834.99 2057.28 L2834.99 2056.67 L2834.99 2056.17 L2834.99 2055.55 L2834.99 2054.93 L2834.99 2054.44 L2834.99 2053.82 L2834.99 2053.32 L2834.99 2052.71 L2834.99 2052.21 L2834.99 2051.59 L2834.99 2050.97 L2834.99 2050.48 L2834.99 2049.86 L2834.99 2049.36 L2834.99 2048.75 L2834.99 2048.25 L2834.99 2047.63 L2834.99 2047.14 L2834.99 2046.52 L2834.99 2045.90 L2834.99 2045.40 L2834.99 2044.79 L2834.99 2044.29 L2834.99 2043.67 L2834.99 2043.18 L2834.99 2042.56 L2834.99 2041.94 L2834.99 2041.44 L2834.99 2040.83 L2834.99 2040.33 L2834.99 2039.71 L2834.99 2039.22 L2834.99 2038.60 L2834.99 2037.98 L2834.99 2037.48 L2834.99 2036.86 L2834.99 2036.37 L2834.99 2035.75 L2834.99 2035.26 L2834.99 2034.64 L2834.99 2034.02 L2834.99 2033.52 L2834.99 2032.90 L2834.99 2032.41 L2834.99 2031.79 L2834.99 2031.30 L2834.99 2030.68 L2834.99 2030.06 L2834.99 2029.56 L2834.99 2028.94 L2834.99 2028.45 L2834.99 2027.83 L2834.99 2027.34 L2834.99 2026.72 L2834.99 2026.10 L2834.99 2025.60 L2834.99 2024.98 L2834.99 2024.49 L2834.99 2023.87 L2834.99 2023.38 L2876.69 2023.38 L2876.69 2022.76 L2876.69 2022.14 L2876.69 2021.64 L2876.69 2021.02 L2876.69 2020.53 L2876.69 2019.91 L2876.69 2019.42 L2876.69 2018.80 L2876.69 2018.18 L2876.69 2017.68 L2876.69 2017.06 L2876.69 2016.57 L2876.69 2015.95 L2876.69 2015.46 L2876.69 2014.84 L2876.69 2014.34 L2876.69 2013.72 L2876.69 2013.10 L2876.69 2012.61 L2876.69 2011.99 L2876.69 2011.50 L2876.69 2010.88 L2876.69 2010.38 L2876.69 2009.76 L2876.69 2009.14 L2876.69 2008.65 L2876.69 2008.03 L2876.69 2007.54 L2876.69 2006.92 L2876.69 2006.42 L2876.69 2005.80 L2876.69 2005.18 L2876.69 2004.69 L2876.69 2004.07 L2876.69 2003.58 L2876.69 2002.96 L2876.69 2002.46 L2876.69 2001.84 L2876.69 2001.22 L2876.69 2000.73 L2876.69 2000.11 L2876.69 1999.61 L2876.69 1999.00 L2876.69 1998.50 L2876.69 1997.88 L2876.69 1997.26 L2876.69 1996.77 L2876.69 1996.15 L2876.69 1995.65 L2876.69 1995.04 L2876.69 1994.54 L2876.69 1993.92 L2876.69 1993.30 L2876.69 1992.81 L2876.69 1992.19 L2876.69 1991.69 L2876.69 1991.08 L2876.69 1990.58 L2876.69 1989.96 L2876.69 1989.34 L2876.69 1988.85 L2876.69 1988.23 L2876.69 1987.73 L2876.69 1987.12 L2876.69 1986.62 L2876.69 1986.00 L2876.69 1985.51 L2876.69 1984.89 L2876.69 1984.27 L2876.69 1983.77 L2876.69 1983.16 L2876.69 1982.66 L2876.69 1982.04 L2876.69 1981.55 L2876.69 1980.93 L2876.69 1980.31 L2876.69 1979.81 L2876.69 1979.20 L2876.69 1978.70 L2876.69 1978.08 L2876.69 1977.59 L2876.69 1976.97 L2876.69 1976.35 L2876.69 1975.85 L2876.69 1975.24 L2876.69 1974.74 L2876.69 1974.12 L2876.69 1973.63 L2876.69 1973.01 L2876.69 1972.39 L2876.69 1971.89 L2876.69 1971.28 L2876.69 1970.78 L2876.69 1970.16 L2876.69 1969.67 L2876.69 1969.05 L2876.69 1968.43 L2876.69 1967.93 L2876.69 1967.32 L2876.69 1966.82 L2876.69 1966.20 L2876.69 1965.71 L2876.69 1965.09 L2876.69 1964.47 L2876.69 1963.97 L2876.69 1963.36 L2876.69 1962.86 L2876.69 1962.24 L2876.69 1961.75 L2876.69 1961.13 L2876.69 1960.51 L2876.69 1960.01 L2876.69 1959.39 L2876.69 1958.90 L2876.69 1958.28 L2876.69 1957.79 L2876.69 1957.17 L2876.69 1956.55 L2876.69 1956.05 L2876.69 1955.43 L2876.69 1954.94 L2876.69 1954.32 L2876.69 1953.83 L2876.69 1953.21 L2876.69 1952.71 L2876.69 1952.09 L2876.69 1951.47 L2876.69 1950.98 L2876.69 1950.36 L2876.69 1949.87 L2876.69 1949.25 L2876.69 1948.75 L2876.69 1948.13 L2876.69 1947.51 L2876.69 1947.02 L2876.69 1946.40 L2876.69 1945.91 L2876.69 1945.29 L2876.69 1944.79 L2876.69 1944.17 L2876.69 1943.55 L2876.69 1943.06 L2876.69 1942.44 L2876.69 1941.95 L2876.69 1941.33 L2876.69 1940.83 L2876.69 1940.21 L2876.69 1939.59 L2876.69 1939.10 L2876.69 1938.48 L2876.69 1937.99 L2876.69 1937.37 L2876.69 1936.87 L2876.69 1936.25 L2876.69 1935.63 L2876.69 1935.14 L2876.69 1934.52 L2876.69 1934.03 L2876.69 1933.41 L2876.69 1932.91 L2876.69 1932.29 L2876.69 1931.67 L2876.69 1931.18 L2876.69 1930.56 L2876.69 1930.07 L2876.69 1929.45 L2876.69 1928.95 L2876.69 1928.33 L2876.69 1927.71 L2876.69 1927.22 L2876.69 1926.60 L2876.69 1926.11 L2876.69 1925.49 L2918.52 1924.99 L2918.52 1924.37 L2918.52 1923.75 L2918.52 1923.26 L2918.52 1922.64 L2918.52 1922.15 L2918.52 1921.53 L2918.52 1921.03 L2918.52 1920.41 L2918.52 1919.92 L2918.52 1919.30 L2918.52 1918.68 L2918.52 1918.18 L2918.52 1917.57 L2918.52 1917.07 L2918.52 1916.45 L2918.52 1915.96 L2918.52 1915.34 L2918.52 1914.72 L2918.52 1914.22 L2918.52 1913.61 L2918.52 1913.11 L2918.52 1912.49 L2918.52 1912.00 L2918.52 1911.38 L2918.52 1910.76 L2918.52 1910.26 L2918.52 1909.65 L2918.52 1909.15 L2918.52 1908.53 L2918.52 1908.04 L2918.52 1907.42 L2918.52 1906.80 L2918.52 1906.30 L2918.52 1905.69 L2918.52 1905.19 L2918.52 1904.57 L2918.52 1904.08 L2918.52 1903.46 L2918.52 1902.84 L2918.52 1902.34 L2918.52 1901.73 L2918.52 1901.23 L2918.52 1900.61 L2918.52 1900.12 L2918.52 1899.50 L2918.52 1898.88 L2918.52 1898.38 L2918.52 1897.77 L2918.52 1897.27 L2918.52 1896.65 L2918.52 1896.16 L2918.52 1895.54 L2918.52 1894.92 L2918.52 1894.42 L2918.52 1893.81 L2918.52 1893.31 L2918.52 1892.69 L2918.52 1892.20 L2918.52 1891.58 L2918.52 1890.96 L2918.52 1890.46 L2918.52 1889.85 L2918.52 1889.35 L2918.52 1888.73 L2918.52 1888.24 L2918.52 1887.62 L2918.52 1887.12 L2918.52 1886.50 L2918.52 1885.89 L2918.52 1885.39 L2918.52 1884.77 L2918.52 1884.28 L2918.52 1883.66 L2918.52 1883.16 L2918.52 1882.54 L2918.52 1881.93 L2918.52 1881.43 L2918.52 1880.81 L2918.52 1880.32 L2918.52 1879.70 L2918.52 1879.20 L2918.52 1878.58 L2918.52 1877.96 L2918.52 1877.47 L2918.52 1876.85 L2918.52 1876.36 L2960.22 1876.36 L2960.22 1875.74 L2960.22 1875.24 L2960.22 1874.62 L2960.22 1874.00 L2960.22 1873.51 L2960.22 1872.89 L2960.22 1872.40 L2960.22 1871.78 L2960.22 1871.28 L2960.22 1870.66 L2960.22 1870.04 L2960.22 1869.55 L2960.22 1868.93 L2960.22 1868.44 L2960.22 1867.82 L2960.22 1867.32 L2960.22 1866.70 L2960.22 1866.08 L2960.22 1865.59 L2960.22 1864.97 L2960.22 1864.48 L2960.22 1863.86 L2960.22 1863.36 L2960.22 1862.74 L2960.22 1862.12 L2960.22 1861.63 L2960.22 1861.01 L2960.22 1860.52 L2960.22 1859.90 L2960.22 1859.40 L2960.22 1858.78 L2960.22 1858.16 L2960.22 1857.67 L2960.22 1857.05 L2960.22 1856.56 L2960.22 1855.94 L2960.22 1855.44 L2960.22 1854.82 L2960.22 1854.33 L2960.22 1853.71 L2960.22 1853.09 L2960.22 1852.60 L2960.22 1851.98 L2960.22 1851.48 L2960.22 1850.86 L2960.22 1850.37 L2960.22 1849.75 L2960.22 1849.13 L2960.22 1848.64 L2960.22 1848.02 L2960.22 1847.52 L2960.22 1846.90 L2960.22 1846.41 L2960.22 1845.79 L2960.22 1845.17 L2960.22 1844.68 L2960.22 1844.06 L2960.22 1843.56 L2960.22 1842.94 L2960.22 1842.45 L2960.22 1841.83 L2960.22 1841.21 L2960.22 1840.72 L2960.22 1840.10 L2960.22 1839.60 L2960.22 1838.98 L2960.22 1838.49 L2960.22 1837.87 L2960.22 1837.25 L2960.22 1836.75 L2960.22 1836.14 L2960.22 1835.64 L2960.22 1835.02 L2960.22 1834.53 L2960.22 1833.91 L2960.22 1833.29 L2960.22 1832.79 L2960.22 1832.18 L2960.22 1831.68 L2960.22 1831.06 L2960.22 1830.57 L2960.22 1829.95 L2960.22 1829.33 L2960.22 1828.83 L2960.22 1828.22 L2960.22 1827.72 L2960.22 1827.10 L2960.22 1826.61 L2960.22 1825.99 L2960.22 1825.37 L2960.22 1824.87 L2960.22 1824.26 L2960.22 1823.76 L2960.22 1823.14 L2960.22 1822.65 L2960.22 1822.03 L2960.22 1821.53 L2960.22 1820.91 L2960.22 1820.30 L2960.22 1819.80 L2960.22 1819.18 L2960.22 1818.69 L2960.22 1818.07 L2960.22 1817.57 L2960.22 1816.95 L2960.22 1816.34 L2960.22 1815.84 L2960.22 1815.22 L2960.22 1814.73 L2960.22 1814.11 L2960.22 1813.61 L2960.22 1812.99 L2960.22 1812.38 L2960.22 1811.88 L2960.22 1811.26 L2960.22 1810.77 L2960.22 1810.15 L2960.22 1809.65 L2960.22 1809.03 L2960.22 1808.42 L2960.22 1807.92 L2960.22 1807.30 L2960.22 1806.81 L2960.22 1806.19 L2960.22 1805.69 L2960.22 1805.07 L2960.22 1804.46 L2960.22 1803.96 L2960.22 1803.34 L2960.22 1802.85 L2960.22 1802.23 L2960.22 1801.73 L2960.22 1801.11 L2960.22 1800.50 L2960.22 1800.00 L2960.22 1799.38 L2960.22 1798.89 L2960.22 1798.27 L2960.22 1797.77 L2960.22 1797.15 L2960.22 1796.53 L2960.22 1796.04 L2960.22 1795.42 L2960.22 1794.93 L2960.22 1794.31 L2960.22 1793.81 L2960.22 1793.19 L2960.22 1792.57 L2960.22 1792.08 L2960.22 1791.46 L2960.22 1790.97 L2960.22 1790.35 L2960.22 1789.85 L2960.22 1789.23 L2960.22 1788.74 L2960.22 1788.12 L2960.22 1787.50 L2960.22 1787.01 L3002.05 1787.01 L3002.05 1786.39 L3002.05 1785.89 L3002.05 1785.27 L3002.05 1784.78 L3002.05 1784.16 L3002.05 1783.54 L3002.05 1783.05 L3002.05 1782.43 L3002.05 1781.93 L3002.05 1781.31 L3002.05 1780.82 L3002.05 1780.20 L3002.05 1779.58 L3002.05 1779.09 L3002.05 1778.47 L3002.05 1777.97 L3002.05 1777.35 L3002.05 1776.86 L3002.05 1776.24 L3002.05 1775.62 L3002.05 1775.13 L3002.05 1774.51 L3002.05 1774.01 L3002.05 1773.39 L3002.05 1772.90 L3002.05 1772.28 L3002.05 1771.66 L3002.05 1771.17 L3002.05 1770.55 L3002.05 1770.05 L3002.05 1769.43 L3002.05 1768.94 L3002.05 1768.32 L3002.05 1767.70 L3002.05 1767.21 L3002.05 1766.59 L3002.05 1766.09 L3002.05 1765.47 L3002.05 1764.98 L3002.05 1764.36 L3002.05 1763.74 L3002.05 1763.25 L3002.05 1762.63 L3002.05 1762.13 L3002.05 1761.51 L3002.05 1761.02 L3002.05 1760.40 L3002.05 1759.90 L3002.05 1759.28 L3002.05 1758.67 L3002.05 1758.17 L3002.05 1757.55 L3002.05 1757.06 L3002.05 1756.44 L3002.05 1755.94 L3002.05 1755.32 L3002.05 1754.71 L3002.05 1754.21 L3002.05 1753.59 L3002.05 1753.10 L3002.05 1752.48 L3002.05 1751.98 L3002.05 1751.36 L3002.05 1750.75 L3002.05 1750.25 L3002.05 1749.63 L3002.05 1749.14 L3002.05 1748.52 L3002.05 1748.02 L3002.05 1747.40 L3002.05 1746.79 L3002.05 1746.29 L3002.05 1745.67 L3002.05 1745.18 L3002.05 1744.56 L3002.05 1744.06 L3002.05 1743.44 L3002.05 1742.83 L3002.05 1742.33 L3002.05 1741.71 L3002.05 1741.22 L3002.05 1740.60 L3002.05 1740.10 L3002.05 1739.48 L3002.05 1738.87 L3002.05 1738.37 L3002.05 1737.75 L3002.05 1737.26 L3002.05 1736.64 L3002.05 1736.14 L3002.05 1735.52 L3002.05 1734.91 L3002.05 1734.41 L3002.05 1733.79 L3002.05 1733.30 L3002.05 1732.68 L3002.05 1732.18 L3002.05 1731.56 L3002.05 1730.95 L3002.05 1730.45 L3002.05 1729.83 L3002.05 1729.34 L3002.05 1728.72 L3002.05 1728.22 L3002.05 1727.60 L3002.05 1727.11 L3002.05 1726.49 L3002.05 1725.87 L3002.05 1725.38 L3002.05 1724.76 L3002.05 1724.26 L3002.05 1723.64 L3002.05 1723.15 L3002.05 1722.53 L3002.05 1721.91 L3002.05 1721.42 L3002.05 1720.80 L3002.05 1720.30 L3002.05 1719.68 L3002.05 1719.19 L3002.05 1718.57 L3002.05 1717.95 L3002.05 1717.46 L3002.05 1716.84 L3002.05 1716.34 L3002.05 1715.72 L3002.05 1715.23 L3002.05 1714.61 L3002.05 1713.99 L3002.05 1713.50 L3002.05 1712.88 L3002.05 1712.38 L3002.05 1711.76 L3002.05 1711.27 L3002.05 1710.65 L3002.05 1710.03 L3002.05 1709.54 L3002.05 1708.92 L3002.05 1708.42 L3002.05 1707.80 L3002.05 1707.31 L3002.05 1706.69 L3002.05 1706.07 L3002.05 1705.58 L3002.05 1704.96 L3002.05 1704.46 L3002.05 1703.84 L3002.05 1703.35 L3002.05 1702.73 L3002.05 1702.11 L3002.05 1701.62 L3002.05 1701.00 L3002.05 1700.50 L3002.05 1699.88 L3002.05 1699.39 L3002.05 1698.77 L3002.05 1698.15 L3002.05 1697.66 L3043.76 1697.66 L3043.76 1697.04 L3043.76 1696.54 L3043.76 1695.92 L3043.76 1695.43 L3043.76 1694.81 L3043.76 1694.31 L3043.76 1693.70 L3043.76 1693.08 L3043.76 1692.58 L3043.76 1691.96 L3043.76 1691.47 L3043.76 1690.85 L3043.76 1690.35 L3043.76 1689.74 L3043.76 1689.12 L3043.76 1688.62 L3043.76 1688.00 L3043.76 1687.51 L3043.76 1686.89 L3043.76 1686.39 L3043.76 1685.78 L3043.76 1685.16 L3043.76 1684.66 L3043.76 1684.04 L3043.76 1683.55 L3043.76 1682.93 L3043.76 1682.43 L3043.76 1681.82 L3043.76 1681.20 L3043.76 1680.70 L3043.76 1680.08 L3043.76 1679.59 L3043.76 1678.97 L3043.76 1678.47 L3043.76 1677.85 L3043.76 1677.24 L3043.76 1676.74 L3043.76 1676.12 L3043.76 1675.63 L3043.76 1675.01 L3043.76 1674.51 L3043.76 1673.89 L3043.76 1673.28 L3043.76 1672.78 L3043.76 1672.16 L3043.76 1671.67 L3043.76 1671.05 L3043.76 1670.55 L3043.76 1669.93 L3043.76 1669.32 L3043.76 1668.82 L3043.76 1668.20 L3043.76 1667.71 L3043.76 1667.09 L3043.76 1666.59 L3043.76 1665.97 L3043.76 1665.36 L3043.76 1664.86 L3043.76 1664.24 L3043.76 1663.75 L3043.76 1663.13 L3043.76 1662.63 L3043.76 1662.01 L3043.76 1661.52 L3043.76 1660.90 L3043.76 1660.28 L3043.76 1659.79 L3043.76 1659.17 L3043.76 1658.67 L3043.76 1658.05 L3043.76 1657.56 L3043.76 1656.94 L3043.76 1656.32 L3043.76 1655.83 L3043.76 1655.21 L3043.76 1654.71 L3043.76 1654.09 L3043.76 1653.60 L3043.76 1652.98 L3043.76 1652.36 L3043.76 1651.87 L3043.76 1651.25 L3043.76 1650.75 L3043.76 1650.13 L3043.76 1649.64 L3043.76 1649.02 L3043.76 1648.40 L3043.76 1647.91 L3043.76 1647.29 L3043.76 1646.79 L3043.76 1646.17 L3043.76 1645.68 L3043.76 1645.06 L3043.76 1644.44 L3043.76 1643.95 L3043.76 1643.33 L3043.76 1642.83 L3043.76 1642.21 L3043.76 1641.72 L3043.76 1641.10 L3043.76 1640.48 L3043.76 1639.99 L3043.76 1639.37 L3043.76 1638.87 L3043.76 1638.25 L3043.76 1637.76 L3043.76 1637.14 L3043.76 1636.52 L3043.76 1636.03 L3043.76 1635.41 L3043.76 1634.91 L3043.76 1634.29 L3043.76 1633.80 L3043.76 1633.18 L3043.76 1632.56 L3043.76 1632.07 L3043.76 1631.45 L3043.76 1630.95 L3043.76 1630.33 L3043.76 1629.84 L3043.76 1629.22 L3043.76 1628.72 L3043.76 1628.11 L3043.76 1627.49 L3043.76 1626.99 L3043.76 1626.37 L3043.76 1625.88 L3043.76 1625.26 L3043.76 1624.76 L3043.76 1624.15 L3043.76 1623.53 L3043.76 1623.03 L3043.76 1622.41 L3043.76 1621.92 L3043.76 1621.30 L3043.76 1620.80 L3043.76 1620.19 L3043.76 1619.57 L3043.76 1619.07 L3043.76 1618.45 L3043.76 1617.96 L3043.76 1617.34 L3043.76 1616.84 L3043.76 1616.23 L3043.76 1615.61 L3043.76 1615.11 L3043.76 1614.49 L3043.76 1614.00 L3043.76 1613.38 L3043.76 1612.88 L3043.76 1612.27 L3043.76 1611.65 L3043.76 1611.15 L3043.76 1610.53 L3043.76 1610.04 L3043.76 1609.42 L3043.76 1608.92 L3043.76 1608.31 L3043.76 1607.69 L3043.76 1607.19 L3043.76 1606.57 L3043.76 1606.08 L3043.76 1605.46 L3043.76 1604.96 L3043.76 1604.35 L3043.76 1603.73 L3043.76 1603.23 L3043.76 1602.61 L3043.76 1602.12 L3043.76 1601.50 L3043.76 1601.00 L3043.76 1600.39 L3043.76 1599.77 L3043.76 1599.27 L3043.76 1598.65 L3043.76 1598.16 L3043.76 1597.54 L3043.76 1597.04 L3043.76 1596.42 L3043.76 1595.93 L3085.58 1595.93 L3085.58 1595.31 L3085.58 1594.69 L3085.58 1594.20 L3085.58 1593.58 L3085.58 1593.08 L3085.58 1592.46 L3085.58 1591.97 L3085.58 1591.35 L3085.58 1590.73 L3085.58 1590.24 L3085.58 1589.62 L3085.58 1589.12 L3085.58 1588.50 L3085.58 1588.01 L3085.58 1587.39 L3085.58 1586.77 L3085.58 1586.28 L3085.58 1585.66 L3085.58 1585.16 L3085.58 1584.54 L3085.58 1584.05 L3085.58 1583.43 L3085.58 1582.81 L3085.58 1582.32 L3085.58 1581.70 L3085.58 1581.20 L3085.58 1580.58 L3085.58 1580.09 L3085.58 1579.47 L3085.58 1578.85 L3085.58 1578.36 L3085.58 1577.74 L3085.58 1577.24 L3085.58 1576.62 L3085.58 1576.13 L3085.58 1575.51 L3085.58 1574.89 L3085.58 1574.40 L3085.58 1573.78 L3085.58 1573.28 L3085.58 1572.66 L3085.58 1572.17 L3085.58 1571.55 L3085.58 1570.93 L3085.58 1570.44 L3085.58 1569.82 L3085.58 1569.32 L3085.58 1568.70 L3085.58 1568.21 L3085.58 1567.59 L3085.58 1566.97 L3085.58 1566.48 L3085.58 1565.86 L3085.58 1565.36 L3085.58 1564.74 L3085.58 1564.25 L3085.58 1563.63 L3085.58 1563.14 L3085.58 1562.52 L3085.58 1561.90 L3085.58 1561.40 L3085.58 1560.78 L3085.58 1560.29 L3085.58 1559.67 L3085.58 1559.17 L3085.58 1558.56 L3085.58 1557.94 L3085.58 1557.44 L3085.58 1556.82 L3085.58 1556.33 L3085.58 1555.71 L3085.58 1555.21 L3085.58 1554.60 L3085.58 1553.98 L3085.58 1553.48 L3085.58 1552.86 L3085.58 1552.37 L3085.58 1551.75 L3085.58 1551.25 L3085.58 1550.64 L3085.58 1550.02 L3085.58 1549.52 L3085.58 1548.90 L3085.58 1548.41 L3085.58 1547.79 L3085.58 1547.29 L3085.58 1546.68 L3085.58 1546.06 L3085.58 1545.56 L3085.58 1544.94 L3085.58 1544.45 L3085.58 1543.83 L3085.58 1543.33 L3085.58 1542.72 L3085.58 1542.10 L3085.58 1541.60 L3085.58 1540.98 L3085.58 1540.49 L3085.58 1539.87 L3085.58 1539.37 L3085.58 1538.76 L3085.58 1538.14 L3085.58 1537.64 L3085.58 1537.02 L3085.58 1536.53 L3085.58 1535.91 L3085.58 1535.41 L3085.58 1534.80 L3085.58 1534.30 L3085.58 1533.68 L3085.58 1533.06 L3085.58 1532.57 L3085.58 1531.95 L3085.58 1531.45 L3085.58 1530.84 L3085.58 1530.34 L3085.58 1529.72 L3085.58 1529.10 L3085.58 1528.61 L3085.58 1527.99 L3085.58 1527.49 L3085.58 1526.88 L3085.58 1526.38 L3085.58 1525.76 L3085.58 1525.14 L3085.58 1524.65 L3085.58 1524.03 L3085.58 1523.53 L3085.58 1522.92 L3085.58 1522.42 L3085.58 1521.80 L3085.58 1521.18 L3085.58 1520.69 L3085.58 1520.07 L3085.58 1519.57 L3085.58 1518.95 L3085.58 1518.46 L3085.58 1517.84 L3085.58 1517.22 L3085.58 1516.73 L3085.58 1516.11 L3085.58 1515.61 L3085.58 1514.99 L3085.58 1514.50 L3085.58 1513.88 L3085.58 1513.26 L3085.58 1512.77 L3085.58 1512.15 L3085.58 1511.65 L3085.58 1511.03 L3085.58 1510.54 L3085.58 1509.92 L3085.58 1509.30 L3085.58 1508.81 L3085.58 1508.19 L3085.58 1507.69 L3085.58 1507.07 L3085.58 1506.58 L3085.58 1505.96 L3085.58 1505.34 L3085.58 1504.85 L3085.58 1504.23 L3085.58 1503.73 L3085.58 1503.11 L3085.58 1502.62 L3085.58 1502.00 L3085.58 1501.51 L3085.58 1500.89 L3085.58 1500.27 L3085.58 1499.77 L3085.58 1499.15 L3085.58 1498.66 L3085.58 1498.04 L3085.58 1497.55 L3085.58 1496.93 L3085.58 1496.31 L3085.58 1495.81 L3085.58 1495.19 L3085.58 1494.70 L3085.58 1494.08 L3085.58 1493.59 L3085.58 1492.97 L3085.58 1492.35 L3085.58 1491.85 L3085.58 1491.23 L3085.58 1490.74 L3085.58 1490.12 L3085.58 1489.63 L3085.58 1489.01 L3085.58 1488.39 L3085.58 1487.89 L3085.58 1487.27 L3085.58 1486.78 L3085.58 1486.16 L3085.58 1485.67 L3085.58 1485.05 L3085.58 1484.43 L3085.58 1483.93 L3085.58 1483.31 L3085.58 1482.82 L3085.58 1482.20 L3085.58 1481.71 L3085.58 1481.09 L3085.58 1480.47 L3085.58 1479.97 L3085.58 1479.35 L3085.58 1478.86 L3085.58 1478.24 L3085.58 1477.74 L3085.58 1477.13 L3085.58 1476.51 L3085.58 1476.01 L3085.58 1475.39 L3085.58 1474.90 L3085.58 1474.28 L3085.58 1473.78 L3085.58 1473.17 L3085.58 1472.55 L3085.58 1472.05 L3085.58 1471.43 L3085.58 1470.94 L3085.58 1470.32 L3127.29 1469.82 L3127.29 1469.21 L3127.29 1468.71 L3127.29 1468.09 L3127.29 1467.47 L3127.29 1466.98 L3127.29 1466.36 L3127.29 1465.86 L3127.29 1465.25 L3127.29 1464.75 L3127.29 1464.13 L3127.29 1463.51 L3127.29 1463.02 L3127.29 1462.40 L3127.29 1461.90 L3127.29 1461.29 L3127.29 1460.79 L3127.29 1460.17 L3127.29 1459.55 L3127.29 1459.06 L3127.29 1458.44 L3127.29 1457.94 L3127.29 1457.33 L3127.29 1456.83 L3127.29 1456.21 L3127.29 1455.59 L3127.29 1455.10 L3127.29 1454.48 L3127.29 1453.98 L3127.29 1453.37 L3127.29 1452.87 L3127.29 1452.25 L3127.29 1451.63 L3127.29 1451.14 L3127.29 1450.52 L3127.29 1450.02 L3127.29 1449.41 L3127.29 1448.91 L3127.29 1448.29 L3127.29 1447.67 L3127.29 1447.18 L3127.29 1446.56 L3127.29 1446.06 L3127.29 1445.45 L3127.29 1444.95 L3127.29 1444.33 L3127.29 1443.71 L3127.29 1443.22 L3127.29 1442.60 L3127.29 1442.10 L3127.29 1441.49 L3127.29 1440.99 L3127.29 1440.37 L3127.29 1439.75 L3127.29 1439.26 L3127.29 1438.64 L3127.29 1438.14 L3127.29 1437.52 L3127.29 1437.03 L3127.29 1436.41 L3127.29 1435.92 L3127.29 1435.30 L3127.29 1434.68 L3127.29 1434.18 L3127.29 1433.56 L3127.29 1433.07 L3127.29 1432.45 L3127.29 1431.96 L3127.29 1431.34 L3127.29 1430.72 L3127.29 1430.22 L3127.29 1429.60 L3127.29 1429.11 L3127.29 1428.49 L3127.29 1428.00 L3127.29 1427.38 L3127.29 1426.76 L3127.29 1426.26 L3127.29 1425.64 L3127.29 1425.15 L3127.29 1424.53 L3127.29 1424.04 L3127.29 1423.42 L3127.29 1422.80 L3127.29 1422.30 L3127.29 1421.68 L3127.29 1421.19 L3127.29 1420.57 L3127.29 1420.08 L3127.29 1419.46 L3127.29 1418.84 L3127.29 1418.34 L3127.29 1417.72 L3127.29 1417.23 L3127.29 1416.61 L3127.29 1416.12 L3127.29 1415.50 L3127.29 1414.88 L3127.29 1414.38 L3127.29 1413.76 L3127.29 1413.27 L3127.29 1412.65 L3127.29 1412.16 L3127.29 1411.54 L3127.29 1410.92 L3127.29 1410.42 L3127.29 1409.80 L3127.29 1409.31 L3127.29 1408.69 L3127.29 1408.20 L3127.29 1407.58 L3127.29 1406.96 L3127.29 1406.46 L3127.29 1405.84 L3127.29 1405.35 L3127.29 1404.73 L3127.29 1404.24 L3127.29 1403.62 L3127.29 1403.12 L3127.29 1402.50 L3127.29 1401.88 L3127.29 1401.39 L3127.29 1400.77 L3127.29 1400.28 L3127.29 1399.66 L3127.29 1399.16 L3127.29 1398.54 L3127.29 1397.92 L3127.29 1397.43 L3127.29 1396.81 L3127.29 1396.31 L3127.29 1395.70 L3127.29 1395.20 L3127.29 1394.58 L3127.29 1393.96 L3127.29 1393.47 L3127.29 1392.85 L3127.29 1392.35 L3127.29 1391.74 L3127.29 1391.24 L3127.29 1390.62 L3127.29 1390.00 L3127.29 1389.51 L3127.29 1388.89 L3127.29 1388.39 L3127.29 1387.78 L3127.29 1387.28 L3127.29 1386.66 L3127.29 1386.04 L3127.29 1385.55 L3127.29 1384.93 L3127.29 1384.43 L3127.29 1383.82 L3127.29 1383.32 L3127.29 1382.70 L3127.29 1382.08 L3127.29 1381.59 L3127.29 1380.97 L3127.29 1380.47 L3127.29 1379.86 L3127.29 1379.36 L3127.29 1378.74 L3127.29 1378.12 L3127.29 1377.63 L3127.29 1377.01 L3127.29 1376.51 L3127.29 1375.90 L3127.29 1375.40 L3127.29 1374.78 L3127.29 1374.16 L3127.29 1373.67 L3127.29 1373.05 L3127.29 1372.55 L3127.29 1371.94 L3127.29 1371.44 L3127.29 1370.82 L3127.29 1370.33 L3127.29 1369.71 L3127.29 1369.09 L3127.29 1368.59 L3127.29 1367.98 L3127.29 1367.48 L3127.29 1366.86 L3127.29 1366.37 L3127.29 1365.75 L3127.29 1365.13 L3127.29 1364.63 L3127.29 1364.02 L3127.29 1363.52 L3127.29 1362.90 L3127.29 1362.41 L3127.29 1361.79 L3127.29 1361.17 L3127.29 1360.67 L3127.29 1360.06 L3127.29 1359.56 L3127.29 1358.94 L3127.29 1358.45 L3127.29 1357.83 L3127.29 1357.21 L3127.29 1356.71 L3127.29 1356.09 L3127.29 1355.60 L3127.29 1354.98 L3127.29 1354.49 L3127.29 1353.87 L3127.29 1353.25 L3127.29 1352.75 L3127.29 1352.13 L3127.29 1351.64 L3127.29 1351.02 L3127.29 1350.53 L3127.29 1349.91 L3127.29 1349.29 L3127.29 1348.79 L3127.29 1348.17 L3169.11 1347.68 L3169.11 1347.06 L3169.11 1346.57 L3169.11 1345.95 L3169.11 1345.33 L3169.11 1344.83 L3169.11 1344.21 L3169.11 1343.72 L3169.11 1343.10 L3169.11 1342.61 L3169.11 1341.99 L3169.11 1341.37 L3169.11 1340.87 L3169.11 1340.25 L3169.11 1339.76 L3169.11 1339.14 L3169.11 1338.65 L3169.11 1338.03 L3169.11 1337.53 L3169.11 1336.91 L3169.11 1336.29 L3169.11 1335.80 L3169.11 1335.18 L3169.11 1334.69 L3169.11 1334.07 L3169.11 1333.57 L3169.11 1332.95 L3169.11 1332.33 L3169.11 1331.84 L3169.11 1331.22 L3169.11 1330.73 L3169.11 1330.11 L3169.11 1329.61 L3169.11 1328.99 L3169.11 1328.37 L3169.11 1327.88 L3169.11 1327.26 L3169.11 1326.77 L3169.11 1326.15 L3169.11 1325.65 L3169.11 1325.03 L3169.11 1324.41 L3169.11 1323.92 L3169.11 1323.30 L3169.11 1322.81 L3169.11 1322.19 L3169.11 1321.69 L3169.11 1321.07 L3169.11 1320.45 L3169.11 1319.96 L3169.11 1319.34 L3169.11 1318.84 L3169.11 1318.23 L3169.11 1317.73 L3169.11 1317.11 L3169.11 1316.49 L3169.11 1316.00 L3169.11 1315.38 L3169.11 1314.88 L3169.11 1314.27 L3169.11 1313.77 L3169.11 1313.15 L3169.11 1312.53 L3169.11 1312.04 L3169.11 1311.42 L3169.11 1310.92 L3169.11 1310.31 L3169.11 1309.81 L3169.11 1309.19 L3169.11 1308.70 L3169.11 1308.08 L3169.11 1307.46 L3169.11 1306.96 L3169.11 1306.35 L3169.11 1305.85 L3169.11 1305.23 L3169.11 1304.74 L3169.11 1304.12 L3169.11 1303.50 L3169.11 1303.00 L3169.11 1302.39 L3169.11 1301.89 L3169.11 1301.27 L3169.11 1300.78 L3169.11 1300.16 L3169.11 1299.54 L3169.11 1299.04 L3169.11 1298.43 L3169.11 1297.93 L3169.11 1297.31 L3169.11 1296.82 L3169.11 1296.20 L3169.11 1295.58 L3169.11 1295.08 L3169.11 1294.47 L3169.11 1293.97 L3169.11 1293.35 L3169.11 1292.86 L3169.11 1292.24 L3169.11 1291.62 L3169.11 1291.12 L3169.11 1290.51 L3169.11 1290.01 L3169.11 1289.39 L3169.11 1288.90 L3169.11 1288.28 L3169.11 1287.66 L3169.11 1287.16 L3169.11 1286.55 L3169.11 1286.05 L3169.11 1285.43 L3169.11 1284.94 L3169.11 1284.32 L3169.11 1283.70 L3169.11 1283.20 L3169.11 1282.59 L3169.11 1282.09 L3169.11 1281.47 L3169.11 1280.98 L3169.11 1280.36 L3169.11 1279.74 L3169.11 1279.24 L3169.11 1278.62 L3169.11 1278.13 L3169.11 1277.51 L3169.11 1277.02 L3169.11 1276.40 L3169.11 1275.90 L3169.11 1275.28 L3169.11 1274.66 L3169.11 1274.17 L3169.11 1273.55 L3169.11 1273.06 L3169.11 1272.44 L3169.11 1271.94 L3169.11 1271.32 L3169.11 1270.70 L3169.11 1270.21 L3169.11 1269.59 L3169.11 1269.10 L3169.11 1268.48 L3169.11 1267.98 L3169.11 1267.36 L3169.11 1266.74 L3169.11 1266.25 L3169.11 1265.63 L3169.11 1265.14 L3169.11 1264.52 L3169.11 1264.02 L3169.11 1263.40 L3169.11 1262.78 L3169.11 1262.29 L3169.11 1261.67 L3169.11 1261.18 L3169.11 1260.56 L3169.11 1260.06 L3169.11 1259.44 L3169.11 1258.82 L3169.11 1258.33 L3169.11 1257.71 L3169.11 1257.22 L3169.11 1256.60 L3169.11 1256.10 L3169.11 1255.48 L3169.11 1254.86 L3169.11 1254.37 L3169.11 1253.75 L3169.11 1253.26 L3169.11 1252.64 L3169.11 1252.14 L3169.11 1251.52 L3169.11 1250.90 L3169.11 1250.41 L3169.11 1249.79 L3169.11 1249.30 L3169.11 1248.68 L3169.11 1248.18 L3169.11 1247.56 L3169.11 1246.94 L3169.11 1246.45 L3169.11 1245.83 L3169.11 1245.34 L3169.11 1244.72 L3169.11 1244.22 L3169.11 1243.60 L3169.11 1243.11 L3169.11 1242.49 L3169.11 1241.87 L3169.11 1241.38 L3169.11 1240.76 L3169.11 1240.26 L3169.11 1239.64 L3169.11 1239.15 L3169.11 1238.53 L3169.11 1237.91 L3169.11 1237.41 L3169.11 1236.80 L3169.11 1236.30 L3169.11 1235.68 L3169.11 1235.19 L3169.11 1234.57 L3169.11 1233.95 L3169.11 1233.45 L3210.94 1232.84 L3210.94 1232.34 L3210.94 1231.72 L3210.94 1231.23 L3210.94 1230.61 L3210.94 1229.99 L3210.94 1229.49 L3210.94 1228.88 L3210.94 1228.38 L3210.94 1227.76 L3210.94 1227.27 L3210.94 1226.65 L3210.94 1226.03 L3210.94 1225.53 L3210.94 1224.92 L3210.94 1224.42 L3210.94 1223.80 L3210.94 1223.31 L3210.94 1222.69 L3210.94 1222.07 L3210.94 1221.57 L3210.94 1220.96 L3210.94 1220.46 L3210.94 1219.84 L3210.94 1219.35 L3210.94 1218.73 L3210.94 1218.11 L3210.94 1217.61 L3210.94 1217.00 L3210.94 1216.50 L3210.94 1215.88 L3210.94 1215.39 L3210.94 1214.77 L3210.94 1214.15 L3210.94 1213.65 L3210.94 1213.04 L3210.94 1212.54 L3210.94 1211.92 L3210.94 1211.43 L3210.94 1210.81 L3210.94 1210.31 L3210.94 1209.69 L3210.94 1209.08 L3210.94 1208.58 L3210.94 1207.96 L3210.94 1207.47 L3210.94 1206.85 L3210.94 1206.35 L3210.94 1205.73 L3210.94 1205.12 L3210.94 1204.62 L3210.94 1204.00 L3210.94 1203.51 L3210.94 1202.89 L3210.94 1202.39 L3210.94 1201.77 L3210.94 1201.16 L3210.94 1200.66 L3210.94 1200.04 L3210.94 1199.55 L3210.94 1198.93 L3210.94 1198.43 L3210.94 1197.81 L3210.94 1197.19 L3210.94 1196.70 L3210.94 1196.08 L3210.94 1195.59 L3210.94 1194.97 L3210.94 1194.47 L3210.94 1193.85 L3210.94 1193.23 L3210.94 1192.74 L3210.94 1192.12 L3210.94 1191.63 L3210.94 1191.01 L3210.94 1190.51 L3210.94 1189.89 L3210.94 1189.27 L3210.94 1188.78 L3210.94 1188.16 L3210.94 1187.67 L3210.94 1187.05 L3210.94 1186.55 L3210.94 1185.93 L3210.94 1185.31 L3210.94 1184.82 L3210.94 1184.20 L3210.94 1183.71 L3210.94 1183.09 L3210.94 1182.59 L3210.94 1181.97 L3210.94 1181.35 L3210.94 1180.86 L3210.94 1180.24 L3210.94 1179.75 L3210.94 1179.13 L3210.94 1178.63 L3210.94 1178.01 L3210.94 1177.52 L3210.94 1176.90 L3210.94 1176.28 L3210.94 1175.79 L3210.94 1175.17 L3210.94 1174.67 L3210.94 1174.05 L3210.94 1173.56 L3210.94 1172.94 L3210.94 1172.32 L3210.94 1171.83 L3210.94 1171.21 L3210.94 1170.71 L3210.94 1170.09 L3210.94 1169.60 L3210.94 1168.98 L3210.94 1168.36 L3210.94 1167.87 L3210.94 1167.25 L3210.94 1166.75 L3210.94 1166.13 L3210.94 1165.64 L3210.94 1165.02 L3210.94 1164.40 L3210.94 1163.91 L3210.94 1163.29 L3210.94 1162.79 L3210.94 1162.17 L3210.94 1161.68 L3210.94 1161.06 L3210.94 1160.44 L3210.94 1159.94 L3210.94 1159.33 L3210.94 1158.83 L3210.94 1158.21 L3210.94 1157.72 L3210.94 1157.10 L3210.94 1156.48 L3210.94 1155.98 L3210.94 1155.37 L3210.94 1154.87 L3210.94 1154.25 L3210.94 1153.76 L3210.94 1153.14 L3210.94 1152.52 L3210.94 1152.02 L3210.94 1151.41 L3210.94 1150.91 L3210.94 1150.29 L3210.94 1149.80 L3210.94 1149.18 L3210.94 1148.56 L3210.94 1148.06 L3210.94 1147.45 L3210.94 1146.95 L3210.94 1146.33 L3210.94 1145.84 L3210.94 1145.22 L3210.94 1144.72 L3210.94 1144.10 L3210.94 1143.49 L3210.94 1142.99 L3210.94 1142.37 L3210.94 1141.88 L3210.94 1141.26 L3210.94 1140.76 L3210.94 1140.14 L3210.94 1139.53 L3210.94 1139.03 L3210.94 1138.41 L3210.94 1137.92 L3210.94 1137.30 L3210.94 1136.80 L3210.94 1136.18 L3210.94 1135.57 L3210.94 1135.07 L3210.94 1134.45 L3210.94 1133.96 L3210.94 1133.34 L3210.94 1132.84 L3210.94 1132.22 L3210.94 1131.61 L3210.94 1131.11 L3210.94 1130.49 L3210.94 1130.00 L3210.94 1129.38 L3210.94 1128.88 L3210.94 1128.26 L3210.94 1127.65 L3210.94 1127.15 L3210.94 1126.53 L3210.94 1126.04 L3210.94 1125.42 L3210.94 1124.92 L3210.94 1124.30 L3210.94 1123.69 L3210.94 1123.19 L3210.94 1122.57 L3210.94 1122.08 L3210.94 1121.46 L3210.94 1120.96 L3210.94 1120.34 L3210.94 1119.72 L3210.94 1119.23 L3210.94 1118.61 L3210.94 1118.12 L3210.94 1117.50 L3210.94 1117.00 L3210.94 1116.38 L3210.94 1115.76 L3210.94 1115.27 L3210.94 1114.65 L3210.94 1114.16 L3210.94 1113.54 L3210.94 1113.04 L3210.94 1112.42 L3210.94 1111.93 L3210.94 1111.31 L3252.64 1110.69 L3252.64 1110.20 L3252.64 1109.58 L3252.64 1109.08 L3252.64 1108.46 L3252.64 1107.97 L3252.64 1107.35 L3252.64 1106.73 L3252.64 1106.24 L3252.64 1105.62 L3252.64 1105.12 L3252.64 1104.50 L3252.64 1104.01 L3252.64 1103.39 L3252.64 1102.77 L3252.64 1102.28 L3252.64 1101.66 L3252.64 1101.16 L3252.64 1100.54 L3252.64 1100.05 L3252.64 1099.43 L3252.64 1098.81 L3252.64 1098.32 L3252.64 1097.70 L3252.64 1097.20 L3252.64 1096.58 L3252.64 1096.09 L3252.64 1095.47 L3252.64 1094.85 L3252.64 1094.36 L3252.64 1093.74 L3252.64 1093.24 L3252.64 1092.62 L3252.64 1092.13 L3252.64 1091.51 L3252.64 1090.89 L3252.64 1090.40 L3252.64 1089.78 L3252.64 1089.28 L3252.64 1088.66 L3252.64 1088.17 L3252.64 1087.55 L3252.64 1086.93 L3252.64 1086.44 L3252.64 1085.82 L3252.64 1085.32 L3252.64 1084.70 L3252.64 1084.21 L3252.64 1083.59 L3252.64 1083.09 L3252.64 1082.48 L3252.64 1081.86 L3252.64 1081.36 L3252.64 1080.74 L3252.64 1080.25 L3252.64 1079.63 L3252.64 1079.13 L3252.64 1078.51 L3252.64 1077.90 L3252.64 1077.40 L3252.64 1076.78 L3252.64 1076.29 L3252.64 1075.67 L3252.64 1075.17 L3252.64 1074.55 L3252.64 1073.94 L3252.64 1073.44 L3252.64 1072.82 L3252.64 1072.33 L3252.64 1071.71 L3252.64 1071.21 L3252.64 1070.59 L3252.64 1069.98 L3252.64 1069.48 L3252.64 1068.86 L3252.64 1068.37 L3252.64 1067.75 L3252.64 1067.25 L3252.64 1066.63 L3252.64 1066.02 L3252.64 1065.52 L3252.64 1064.90 L3252.64 1064.41 L3252.64 1063.79 L3252.64 1063.29 L3252.64 1062.67 L3252.64 1062.06 L3252.64 1061.56 L3252.64 1060.94 L3252.64 1060.45 L3252.64 1059.83 L3252.64 1059.33 L3252.64 1058.71 L3252.64 1058.10 L3252.64 1057.60 L3252.64 1056.98 L3252.64 1056.49 L3252.64 1055.87 L3252.64 1055.37 L3252.64 1054.75 L3252.64 1054.14 L3252.64 1053.64 L3252.64 1053.02 L3252.64 1052.53 L3252.64 1051.91 L3252.64 1051.41 L3252.64 1050.79 L3252.64 1050.30 L3252.64 1049.68 L3252.64 1049.06 L3252.64 1048.57 L3252.64 1047.95 L3252.64 1047.45 L3252.64 1046.83 L3252.64 1046.34 L3252.64 1045.72 L3252.64 1045.10 L3252.64 1044.61 L3252.64 1043.99 L3252.64 1043.49 L3252.64 1042.87 L3252.64 1042.38 L3252.64 1041.76 L3252.64 1041.14 L3252.64 1040.65 L3252.64 1040.03 L3252.64 1039.53 L3252.64 1038.91 L3252.64 1038.42 L3252.64 1037.80 L3252.64 1037.18 L3252.64 1036.69 L3252.64 1036.07 L3252.64 1035.57 L3252.64 1034.95 L3252.64 1034.46 L3252.64 1033.84 L3252.64 1033.22 L3252.64 1032.73 L3252.64 1032.11 L3252.64 1031.61 L3252.64 1030.99 L3252.64 1030.50 L3252.64 1029.88 L3252.64 1029.26 L3252.64 1028.77 L3252.64 1028.15 L3252.64 1027.65 L3252.64 1027.03 L3252.64 1026.54 L3252.64 1025.92 L3252.64 1025.30 L3252.64 1024.81 L3252.64 1024.19 L3252.64 1023.69 L3252.64 1023.07 L3252.64 1022.58 L3252.64 1021.96 L3252.64 1021.34 L3252.64 1020.85 L3252.64 1020.23 L3252.64 1019.73 L3252.64 1019.11 L3252.64 1018.62 L3252.64 1018.00 L3252.64 1017.50 L3252.64 1016.89 L3252.64 1016.27 L3252.64 1015.77 L3252.64 1015.15 L3252.64 1014.66 L3252.64 1014.04 L3252.64 1013.54 L3252.64 1012.93 L3252.64 1012.31 L3252.64 1011.81 L3252.64 1011.19 L3252.64 1010.70 L3252.64 1010.08 L3252.64 1009.58 L3252.64 1008.97 L3252.64 1008.35 L3252.64 1007.85 L3252.64 1007.23 L3252.64 1006.74 L3252.64 1006.12 L3252.64 1005.62 L3252.64 1005.01 L3252.64 1004.39 L3252.64 1003.89 L3252.64 1003.27 L3252.64 1002.78 L3252.64 1002.16 L3252.64 1001.66 L3252.64 1001.05 L3252.64 1000.43 L3252.64 999.93 L3252.64 999.31 L3252.64 998.82 L3252.64 998.20 L3252.64 997.70 L3252.64 997.08 L3252.64 996.47 L3252.64 995.97 L3252.64 995.35 L3252.64 994.86 L3252.64 994.24 L3252.64 993.74 L3252.64 993.12 L3252.64 992.51 L3252.64 992.01 L3252.64 991.39 L3252.64 990.90 L3252.64 990.28 L3252.64 989.78 L3252.64 989.16 L3252.64 988.55 L3252.64 988.05 L3252.64 987.43 L3252.64 986.94 L3252.64 986.32 L3252.64 985.82 L3252.64 985.20 L3252.64 984.71 L3252.64 984.09 L3252.64 983.47 L3252.64 982.98 L3252.64 982.36 L3252.64 981.86 L3252.64 981.24 L3252.64 980.75 L3252.64 980.13 L3252.64 979.51 L3252.64 979.02 L3252.64 978.40 L3252.64 977.90 L3252.64 977.28 L3252.64 976.79 L3252.64 976.17 L3252.64 975.55 L3252.64 975.06 L3252.64 974.44 L3252.64 973.94 L3252.64 973.32 L3252.64 972.83 L3252.64 972.21 L3252.64 971.59 L3252.64 971.10 L3252.64 970.48 L3252.64 969.98 L3252.64 969.36 L3252.64 968.87 L3252.64 968.25 L3252.64 967.63 L3252.64 967.14 L3252.64 966.52 L3252.64 966.02 L3252.64 965.40 L3294.47 964.91 L3294.47 964.29 L3294.47 963.67 L3294.47 963.18 L3294.47 962.56 L3294.47 962.06 L3294.47 961.44 L3294.47 960.95 L3294.47 960.33 L3294.47 959.71 L3294.47 959.22 L3294.47 958.60 L3294.47 958.10 L3294.47 957.48 L3294.47 956.99 L3294.47 956.37 L3294.47 955.75 L3294.47 955.26 L3294.47 954.64 L3294.47 954.14 L3294.47 953.52 L3294.47 953.03 L3294.47 952.41 L3294.47 951.91 L3294.47 951.30 L3294.47 950.68 L3294.47 950.18 L3294.47 949.56 L3294.47 949.07 L3294.47 948.45 L3294.47 947.95 L3294.47 947.34 L3294.47 946.72 L3294.47 946.22 L3294.47 945.60 L3294.47 945.11 L3294.47 944.49 L3294.47 943.99 L3294.47 943.38 L3294.47 942.76 L3294.47 942.26 L3294.47 941.64 L3294.47 941.15 L3294.47 940.53 L3294.47 940.03 L3294.47 939.42 L3294.47 938.80 L3294.47 938.30 L3294.47 937.68 L3294.47 937.19 L3294.47 936.57 L3294.47 936.07 L3294.47 935.46 L3294.47 934.84 L3294.47 934.34 L3294.47 933.72 L3294.47 933.23 L3294.47 932.61 L3294.47 932.11 L3294.47 931.50 L3294.47 930.88 L3294.47 930.38 L3294.47 929.76 L3294.47 929.27 L3294.47 928.65 L3294.47 928.15 L3294.47 927.54 L3294.47 926.92 L3294.47 926.42 L3294.47 925.80 L3294.47 925.31 L3294.47 924.69 L3294.47 924.19 L3294.47 923.58 L3294.47 922.96 L3294.47 922.46 L3294.47 921.84 L3294.47 921.35 L3294.47 920.73 L3294.47 920.23 L3294.47 919.61 L3294.47 919.12 L3294.47 918.50 L3294.47 917.88 L3294.47 917.39 L3294.47 916.77 L3294.47 916.27 L3294.47 915.65 L3294.47 915.16 L3294.47 914.54 L3294.47 913.92 L3294.47 913.43 L3294.47 912.81 L3294.47 912.31 L3294.47 911.69 L3294.47 911.20 L3294.47 910.58 L3294.47 909.96 L3294.47 909.47 L3294.47 908.85 L3294.47 908.35 L3294.47 907.73 L3294.47 907.24 L3294.47 906.62 L3294.47 906.00 L3294.47 905.51 L3294.47 904.89 L3294.47 904.39 L3294.47 903.77 L3294.47 903.28 L3294.47 902.66 L3294.47 902.04 L3294.47 901.55 L3294.47 900.93 L3294.47 900.43 L3294.47 899.81 L3294.47 899.32 L3294.47 898.70 L3294.47 898.08 L3294.47 897.59 L3294.47 896.97 L3294.47 896.47 L3294.47 895.85 L3294.47 895.36 L3294.47 894.74 L3294.47 894.12 L3294.47 893.63 L3294.47 893.01 L3294.47 892.51 L3294.47 891.89 L3294.47 891.40 L3294.47 890.78 L3294.47 890.16 L3294.47 889.67 L3294.47 889.05 L3294.47 888.55 L3294.47 887.93 L3294.47 887.44 L3294.47 886.82 L3294.47 886.33 L3294.47 885.71 L3294.47 885.09 L3294.47 884.59 L3294.47 883.97 L3294.47 883.48 L3294.47 882.86 L3294.47 882.37 L3294.47 881.75 L3294.47 881.13 L3294.47 880.63 L3294.47 880.01 L3294.47 879.52 L3294.47 878.90 L3294.47 878.40 L3294.47 877.79 L3294.47 877.17 L3294.47 876.67 L3294.47 876.05 L3294.47 875.56 L3294.47 874.94 L3294.47 874.44 L3294.47 873.83 L3294.47 873.21 L3294.47 872.71 L3294.47 872.09 L3294.47 871.60 L3294.47 870.98 L3294.47 870.48 L3294.47 869.87 L3294.47 869.25 L3294.47 868.75 L3294.47 868.13 L3294.47 867.64 L3294.47 867.02 L3294.47 866.52 L3294.47 865.91 L3294.47 865.29 L3294.47 864.79 L3294.47 864.17 L3294.47 863.68 L3294.47 863.06 L3294.47 862.56 L3294.47 861.95 L3294.47 861.33 L3294.47 860.83 L3294.47 860.21 L3294.47 859.72 L3294.47 859.10 L3294.47 858.60 L3294.47 857.99 L3294.47 857.49 L3294.47 856.87 L3294.47 856.25 L3294.47 855.76 L3294.47 855.14 L3294.47 854.64 L3294.47 854.03 L3294.47 853.53 L3294.47 852.91 L3294.47 852.29 L3294.47 851.80 L3294.47 851.18 L3294.47 850.68 L3294.47 850.07 L3294.47 849.57 L3294.47 848.95 L3294.47 848.33 L3294.47 847.84 L3294.47 847.22 L3294.47 846.72 L3336.18 846.11 L3336.18 845.61 L3336.18 844.99 L3336.18 844.37 L3336.18 843.88 L3336.18 843.26 L3336.18 842.76 L3336.18 842.15 L3336.18 841.65 L3336.18 841.03 L3336.18 840.41 L3336.18 839.92 L3336.18 839.30 L3336.18 838.80 L3336.18 838.18 L3336.18 837.69 L3336.18 837.07 L3336.18 836.45 L3336.18 835.96 L3336.18 835.34 L3336.18 834.84 L3336.18 834.22 L3336.18 833.73 L3336.18 833.11 L3336.18 832.49 L3336.18 832.00 L3336.18 831.38 L3336.18 830.88 L3336.18 830.26 L3336.18 829.77 L3336.18 829.15 L3336.18 828.53 L3336.18 828.04 L3336.18 827.42 L3336.18 826.92 L3336.18 826.30 L3336.18 825.81 L3336.18 825.19 L3336.18 824.70 L3336.18 824.08 L3336.18 823.46 L3336.18 822.96 L3336.18 822.34 L3336.18 821.85 L3336.18 821.23 L3336.18 820.74 L3336.18 820.12 L3336.18 819.50 L3336.18 819.00 L3336.18 818.38 L3336.18 817.89 L3336.18 817.27 L3336.18 816.78 L3336.18 816.16 L3336.18 815.54 L3336.18 815.04 L3336.18 814.42 L3336.18 813.93 L3336.18 813.31 L3336.18 812.82 L3336.18 812.20 L3336.18 811.58 L3336.18 811.08 L3336.18 810.46 L3336.18 809.97 L3336.18 809.35 L3336.18 808.86 L3336.18 808.24 L3336.18 807.62 L3336.18 807.12 L3336.18 806.50 L3336.18 806.01 L3336.18 805.39 L3336.18 804.90 L3336.18 804.28 L3336.18 803.66 L3336.18 803.16 L3336.18 802.54 L3336.18 802.05 L3336.18 801.43 L3336.18 800.94 L3336.18 800.32 L3336.18 799.70 L3336.18 799.20 L3336.18 798.58 L3336.18 798.09 L3336.18 797.47 L3336.18 796.97 L3336.18 796.36 L3336.18 795.74 L3336.18 795.24 L3336.18 794.62 L3336.18 794.13 L3336.18 793.51 L3336.18 793.01 L3336.18 792.40 L3336.18 791.90 L3336.18 791.28 L3336.18 790.66 L3336.18 790.17 L3336.18 789.55 L3336.18 789.05 L3336.18 788.44 L3336.18 787.94 L3336.18 787.32 L3336.18 786.70 L3336.18 786.21 L3336.18 785.59 L3336.18 785.09 L3336.18 784.48 L3336.18 783.98 L3336.18 783.36 L3336.18 782.74 L3336.18 782.25 L3336.18 781.63 L3336.18 781.13 L3336.18 780.52 L3336.18 780.02 L3336.18 779.40 L3336.18 778.78 L3336.18 778.29 L3336.18 777.67 L3336.18 777.17 L3336.18 776.56 L3336.18 776.06 L3336.18 775.44 L3336.18 774.82 L3336.18 774.33 L3336.18 773.71 L3336.18 773.21 L3336.18 772.60 L3336.18 772.10 L3336.18 771.48 L3336.18 770.86 L3336.18 770.37 L3336.18 769.75 L3336.18 769.25 L3336.18 768.64 L3336.18 768.14 L3336.18 767.52 L3336.18 766.90 L3336.18 766.41 L3336.18 765.79 L3336.18 765.29 L3336.18 764.68 L3336.18 764.18 L3336.18 763.56 L3336.18 762.94 L3336.18 762.45 L3336.18 761.83 L3336.18 761.33 L3336.18 760.72 L3336.18 760.22 L3336.18 759.60 L3336.18 759.11 L3336.18 758.49 L3336.18 757.87 L3336.18 757.37 L3336.18 756.75 L3336.18 756.26 L3336.18 755.64 L3336.18 755.15 L3336.18 754.53 L3336.18 753.91 L3336.18 753.41 L3336.18 752.79 L3336.18 752.30 L3336.18 751.68 L3336.18 751.19 L3336.18 750.57 L3336.18 749.95 L3336.18 749.45 L3336.18 748.83 L3336.18 748.34 L3336.18 747.72 L3336.18 747.23 L3336.18 746.61 L3336.18 745.99 L3336.18 745.49 L3336.18 744.87 L3336.18 744.38 L3336.18 743.76 L3336.18 743.27 L3336.18 742.65 L3336.18 742.03 L3336.18 741.53 L3336.18 740.91 L3336.18 740.42 L3336.18 739.80 L3336.18 739.31 L3336.18 738.69 L3336.18 738.07 L3336.18 737.57 L3336.18 736.95 L3336.18 736.46 L3336.18 735.84 L3336.18 735.35 L3336.18 734.73 L3336.18 734.11 L3336.18 733.61 L3336.18 732.99 L3336.18 732.50 L3336.18 731.88 L3336.18 731.39 L3378.00 730.77 L3378.00 730.15 L3378.00 729.65 L3378.00 729.03 L3378.00 728.54 L3378.00 727.92 L3378.00 727.43 L3378.00 726.81 L3378.00 726.31 L3378.00 725.69 L3378.00 725.07 L3378.00 724.58 L3378.00 723.96 L3378.00 723.47 L3378.00 722.85 L3378.00 722.35 L3378.00 721.73 L3378.00 721.11 L3378.00 720.62 L3378.00 720.00 L3378.00 719.50 L3378.00 718.89 L3378.00 718.39 L3378.00 717.77 L3378.00 717.15 L3378.00 716.66 L3378.00 716.04 L3378.00 715.54 L3378.00 714.93 L3378.00 714.43 L3378.00 713.81 L3378.00 713.19 L3378.00 712.70 L3378.00 712.08 L3378.00 711.58 L3378.00 710.97 L3378.00 710.47 L3378.00 709.85 L3378.00 709.23 L3378.00 708.74 L3378.00 708.12 L3378.00 707.62 L3378.00 707.01 L3378.00 706.51 L3378.00 705.89 L3378.00 705.27 L3378.00 704.78 L3378.00 704.16 L3378.00 703.66 L3378.00 703.05 L3378.00 702.55 L3378.00 701.93 L3378.00 701.31 L3378.00 700.82 L3378.00 700.20 L3378.00 699.70 L3378.00 699.09 L3378.00 698.59 L3378.00 697.97 L3378.00 697.35 L3378.00 696.86 L3378.00 696.24 L3378.00 695.74 L3378.00 695.13 L3378.00 694.63 L3378.00 694.01 L3378.00 693.52 L3378.00 692.90 L3378.00 692.28 L3378.00 691.78 L3378.00 691.17 L3378.00 690.67 L3378.00 690.05 L3378.00 689.56 L3378.00 688.94 L3378.00 688.32 L3378.00 687.82 L3378.00 687.21 L3378.00 686.71 L3378.00 686.09 L3378.00 685.60 L3378.00 684.98 L3378.00 684.36 L3378.00 683.86 L3378.00 683.25 L3378.00 682.75 L3378.00 682.13 L3378.00 681.64 L3378.00 681.02 L3378.00 680.40 L3378.00 679.90 L3378.00 679.28 L3378.00 678.79 L3378.00 678.17 L3378.00 677.68 L3378.00 677.06 L3378.00 676.44 L3378.00 675.94 L3378.00 675.32 L3378.00 674.83 L3378.00 674.21 L3378.00 673.72 L3378.00 673.10 L3378.00 672.48 L3378.00 671.98 L3378.00 671.36 L3378.00 670.87 L3378.00 670.25 L3378.00 669.76 L3378.00 669.14 L3378.00 668.52 L3378.00 668.02 L3378.00 667.40 L3378.00 666.91 L3378.00 666.29 L3378.00 665.80 L3378.00 665.18 L3378.00 664.56 L3378.00 664.06 L3378.00 663.44 L3378.00 662.95 L3378.00 662.33 L3378.00 661.84 L3378.00 661.22 L3378.00 660.72 L3378.00 660.10 L3378.00 659.48 L3378.00 658.99 L3378.00 658.37 L3378.00 657.88 L3378.00 657.26 L3378.00 656.76 L3378.00 656.14 L3378.00 655.52 L3378.00 655.03 L3378.00 654.41 L3378.00 653.92 L3378.00 653.30 L3378.00 652.80 L3378.00 652.18 L3378.00 651.56 L3378.00 651.07 L3378.00 650.45 L3378.00 649.96 L3378.00 649.34 L3378.00 648.84 L3378.00 648.22 L3378.00 647.60 L3378.00 647.11 L3378.00 646.49 L3378.00 646.00 L3378.00 645.38 L3378.00 644.88 L3378.00 644.26 L3378.00 643.64 L3378.00 643.15 L3378.00 642.53 L3378.00 642.04 L3378.00 641.42 L3378.00 640.92 L3378.00 640.30 L3378.00 639.68 L3378.00 639.19 L3378.00 638.57 L3378.00 638.07 L3378.00 637.46 L3378.00 636.96 L3378.00 636.34 L3378.00 635.72 L3378.00 635.23 L3378.00 634.61 L3378.00 634.11 L3378.00 633.50 L3378.00 633.00 L3378.00 632.38 L3378.00 631.89 L3378.00 631.27 L3378.00 630.65 L3378.00 630.15 L3378.00 629.54 L3378.00 629.04 L3378.00 628.42 L3378.00 627.93 L3378.00 627.31 L3378.00 626.69 L3378.00 626.19 L3378.00 625.58 L3378.00 625.08 L3378.00 624.46 L3378.00 623.97 L3378.00 623.35 L3378.00 622.73 L3378.00 622.23 L3378.00 621.62 L3378.00 621.12 L3378.00 620.50 L3378.00 620.01 L3378.00 619.39 L3378.00 618.77 L3378.00 618.27 L3378.00 617.66 L3378.00 617.16 L3378.00 616.54 L3378.00 616.05 L3378.00 615.43 L3378.00 614.81 L3378.00 614.31 L3378.00 613.70 L3378.00 613.20 L3378.00 612.58 L3378.00 612.09 L3378.00 611.47 L3419.71 610.85 L3419.71 610.35 L3419.71 609.74 L3419.71 609.24 L3419.71 608.62 L3419.71 608.13 L3419.71 607.51 L3419.71 606.89 L3419.71 606.39 L3419.71 605.78 L3419.71 605.28 L3419.71 604.66 L3419.71 604.17 L3419.71 603.55 L3419.71 602.93 L3419.71 602.43 L3419.71 601.82 L3419.71 601.32 L3419.71 600.70 L3419.71 600.21 L3419.71 599.59 L3419.71 599.09 L3419.71 598.47 L3419.71 597.85 L3419.71 597.36 L3419.71 596.74 L3419.71 596.25 L3419.71 595.63 L3419.71 595.13 L3419.71 594.51 L3419.71 593.89 L3419.71 593.40 L3419.71 592.78 L3419.71 592.29 L3419.71 591.67 L3419.71 591.17 L3419.71 590.55 L3419.71 589.93 L3419.71 589.44 L3419.71 588.82 L3419.71 588.33 L3419.71 587.71 L3419.71 587.21 L3419.71 586.59 L3419.71 585.97 L3419.71 585.48 L3419.71 584.86 L3419.71 584.37 L3419.71 583.75 L3419.71 583.25 L3419.71 582.63 L3419.71 582.01 L3419.71 581.52 L3419.71 580.90 L3419.71 580.41 L3419.71 579.79 L3419.71 579.29 L3419.71 578.67 L3419.71 578.05 L3419.71 577.56 L3419.71 576.94 L3419.71 576.45 L3419.71 575.83 L3419.71 575.33 L3419.71 574.71 L3419.71 574.09 L3419.71 573.60 L3419.71 572.98 L3419.71 572.49 L3419.71 571.87 L3419.71 571.37 L3419.71 570.75 L3419.71 570.13 L3419.71 569.64 L3419.71 569.02 L3419.71 568.53 L3419.71 567.91 L3419.71 567.41 L3419.71 566.79 L3419.71 566.30 L3419.71 565.68 L3419.71 565.06 L3419.71 564.57 L3419.71 563.95 L3419.71 563.45 L3419.71 562.83 L3419.71 562.34 L3419.71 561.72 L3419.71 561.10 L3419.71 560.61 L3419.71 559.99 L3419.71 559.49 L3419.71 558.87 L3419.71 558.38 L3419.71 557.76 L3419.71 557.14 L3419.71 556.64 L3419.71 556.03 L3419.71 555.53 L3419.71 554.91 L3419.71 554.42 L3419.71 553.80 L3419.71 553.18 L3419.71 552.68 L3419.71 552.07 L3419.71 551.57 L3419.71 550.95 L3419.71 550.46 L3419.71 549.84 L3419.71 549.22 L3419.71 548.72 L3419.71 548.11 L3419.71 547.61 L3419.71 546.99 L3419.71 546.50 L3419.71 545.88 L3419.71 545.26 L3419.71 544.76 L3419.71 544.15 L3419.71 543.65 L3419.71 543.03 L3419.71 542.54 L3419.71 541.92 L3419.71 541.30 L3419.71 540.80 L3419.71 540.19 L3419.71 539.69 L3419.71 539.07 L3419.71 538.58 L3419.71 537.96 L3419.71 537.34 L3419.71 536.84 L3419.71 536.23 L3419.71 535.73 L3419.71 535.11 L3419.71 534.62 L3419.71 534.00 L3419.71 533.50 L3419.71 532.88 L3419.71 532.27 L3419.71 531.77 L3419.71 531.15 L3419.71 530.66 L3419.71 530.04 L3419.71 529.54 L3419.71 528.92 L3419.71 528.31 L3419.71 527.81 L3419.71 527.19 L3419.71 526.70 L3419.71 526.08 L3419.71 525.58 L3419.71 524.96 L3419.71 524.35 L3419.71 523.85 L3419.71 523.23 L3419.71 522.74 L3419.71 522.12 L3419.71 521.62 L3419.71 521.00 L3419.71 520.39 L3419.71 519.89 L3419.71 519.27 L3419.71 518.78 L3419.71 518.16 L3419.71 517.66 L3419.71 517.04 L3419.71 516.42 L3419.71 515.93 L3419.71 515.31 L3419.71 514.82 L3419.71 514.20 L3419.71 513.70 L3419.71 513.08 L3419.71 512.46 L3419.71 511.97 L3419.71 511.35 L3419.71 510.86 L3419.71 510.24 L3419.71 509.74 L3419.71 509.12 L3419.71 508.50 L3419.71 508.01 L3419.71 507.39 L3419.71 506.90 L3419.71 506.28 L3419.71 505.78 L3419.71 505.16 L3419.71 504.54 L3419.71 504.05 L3419.71 503.43 L3419.71 502.94 L3419.71 502.32 L3419.71 501.82 L3419.71 501.20 L3419.71 500.71 L3419.71 500.09 L3419.71 499.47 L3419.71 498.98 L3419.71 498.36 L3419.71 497.86 L3419.71 497.24 L3419.71 496.75 L3419.71 496.13 L3419.71 495.51 L3419.71 495.02 L3419.71 494.40 L3461.53 493.90 L3461.53 493.28 L3461.53 492.79 L3461.53 492.17 L3461.53 491.55 L3461.53 491.06 L3461.53 490.44 L3461.53 489.94 L3461.53 489.32 L3461.53 488.83 L3461.53 488.21 L3461.53 487.59 L3461.53 487.10 L3461.53 486.48 L3461.53 485.98 L3461.53 485.36 L3461.53 484.87 L3461.53 484.25 L3461.53 483.63 L3461.53 483.14 L3461.53 482.52 L3461.53 482.02 L3461.53 481.40 L3461.53 480.91 L3461.53 480.29 L3461.53 479.67 L3461.53 479.17 L3461.53 478.56 L3461.53 478.06 L3461.53 477.44 L3461.53 476.95 L3461.53 476.33 L3461.53 475.71 L3461.53 475.21 L3461.53 474.60 L3461.53 474.10 L3461.53 473.48 L3461.53 472.99 L3461.53 472.37 L3461.53 471.75 L3461.53 471.25 L3461.53 470.64 L3461.53 470.14 L3461.53 469.52 L3461.53 469.03 L3461.53 468.41 L3461.53 467.91 L3461.53 467.29 L3461.53 466.68 L3461.53 466.18 L3461.53 465.56 L3461.53 465.07 L3461.53 464.45 L3461.53 463.95 L3461.53 463.33 L3461.53 462.72 L3461.53 462.22 L3461.53 461.60 L3461.53 461.11 L3461.53 460.49 L3461.53 459.99 L3461.53 459.37 L3461.53 458.76 L3461.53 458.26 L3461.53 457.64 L3461.53 457.15 L3461.53 456.53 L3461.53 456.03 L3461.53 455.41 L3461.53 454.80 L3461.53 454.30 L3461.53 453.68 L3461.53 453.19 L3461.53 452.57 L3461.53 452.07 L3461.53 451.45 L3461.53 450.84 L3461.53 450.34 L3461.53 449.72 L3461.53 449.23 L3461.53 448.61 L3461.53 448.11 L3461.53 447.49 L3461.53 446.88 L3461.53 446.38 L3461.53 445.76 L3461.53 445.27 L3461.53 444.65 L3461.53 444.15 L3461.53 443.53 L3461.53 442.92 L3461.53 442.42 L3461.53 441.80 L3461.53 441.31 L3461.53 440.69 L3461.53 440.19 L3461.53 439.57 L3461.53 439.08 L3461.53 438.46 L3461.53 437.84 L3461.53 437.35 L3461.53 436.73 L3461.53 436.23 L3461.53 435.61 L3461.53 435.12 L3461.53 434.50 L3461.53 433.88 L3461.53 433.39 L3461.53 432.77 L3461.53 432.27 L3461.53 431.65 L3461.53 431.16 L3461.53 430.54 L3461.53 429.92 L3461.53 429.43 L3461.53 428.81 L3461.53 428.31 L3461.53 427.69 L3461.53 427.20 L3461.53 426.58 L3461.53 425.96 L3461.53 425.47 L3461.53 424.85 L3461.53 424.35 L3461.53 423.73 L3461.53 423.24 L3461.53 422.62 L3461.53 422.00 L3461.53 421.51 L3461.53 420.89 L3461.53 420.39 L3461.53 419.77 L3461.53 419.28 L3461.53 418.66 L3461.53 418.04 L3461.53 417.55 L3461.53 416.93 L3461.53 416.43 L3461.53 415.81 L3461.53 415.32 L3461.53 414.70 L3461.53 414.08 L3461.53 413.59 L3461.53 412.97 L3461.53 412.47 L3461.53 411.85 L3461.53 411.36 L3461.53 410.74 L3461.53 410.12 L3461.53 409.63 L3461.53 409.01 L3461.53 408.51 L3461.53 407.89 L3461.53 407.40 L3461.53 406.78 L3461.53 406.28 L3461.53 405.67 L3461.53 405.05 L3461.53 404.55 L3461.53 403.93 L3461.53 403.44 L3461.53 402.82 L3461.53 402.32 L3461.53 401.71 L3461.53 401.09 L3461.53 400.59 L3461.53 399.97 L3461.53 399.48 L3461.53 398.86 L3461.53 398.36 L3461.53 397.74 L3461.53 397.13 L3461.53 396.63 L3461.53 396.01 L3461.53 395.52 L3461.53 394.90 L3503.24 394.40 L3503.24 393.78 L3503.24 393.17 L3503.24 392.67 L3503.24 392.05 L3503.24 391.56 L3503.24 390.94 L3503.24 390.44 L3503.24 389.82 L3503.24 389.21 L3503.24 388.71 L3503.24 388.09 L3503.24 387.60 L3503.24 386.98 L3503.24 386.48 L3503.24 385.86 L3503.24 385.25 L3503.24 384.75 L3503.24 384.13 L3503.24 383.64 L3503.24 383.02 L3503.24 382.52 L3503.24 381.90 L3503.24 381.29 L3503.24 380.79 L3503.24 380.17 L3503.24 379.68 L3503.24 379.06 L3503.24 378.56 L3503.24 377.94 L3503.24 377.33 L3503.24 376.83 L3503.24 376.21 L3503.24 375.72 L3503.24 375.10 L3503.24 374.60 L3503.24 373.98 L3503.24 373.49 L3503.24 372.87 L3503.24 372.25 L3503.24 371.76 L3503.24 371.14 L3503.24 370.64 L3503.24 370.02 L3503.24 369.53 L3503.24 368.91 L3503.24 368.29 L3503.24 367.80 L3503.24 367.18 L3503.24 366.68 L3503.24 366.06 L3503.24 365.57 L3503.24 364.95 L3503.24 364.33 L3503.24 363.84 L3503.24 363.22 L3503.24 362.72 L3503.24 362.10 L3503.24 361.61 L3503.24 360.99 L3503.24 360.37 L3503.24 359.88 L3503.24 359.26 L3503.24 358.76 L3503.24 358.14 L3503.24 357.65 L3503.24 357.03 L3503.24 356.41 L3503.24 355.92 L3503.24 355.30 L3503.24 354.80 L3503.24 354.18 L3503.24 353.69 L3503.24 353.07 L3503.24 352.45 L3503.24 351.96 L3503.24 351.34 L3503.24 350.84 L3503.24 350.22 L3503.24 349.73 L3503.24 349.11 L3503.24 348.49 L3503.24 348.00 L3503.24 347.38 L3503.24 346.88 L3503.24 346.26 L3503.24 345.77 L3503.24 345.15 L3503.24 344.53 L3503.24 344.04 L3503.24 343.42 L3503.24 342.92 L3503.24 342.30 L3503.24 341.81 L3503.24 341.19 L3503.24 340.69 L3503.24 340.08 L3503.24 339.46 L3503.24 338.96 L3503.24 338.34 L3503.24 337.85 L3503.24 337.23 L3503.24 336.73 L3503.24 336.12 L3503.24 335.50 L3503.24 335.00 L3503.24 334.38 L3503.24 333.89 L3503.24 333.27 L3503.24 332.77 L3503.24 332.16 L3503.24 331.54 L3503.24 331.04 L3503.24 330.42 L3503.24 329.93 L3503.24 329.31 L3503.24 328.81 L3503.24 328.20 L3503.24 327.58 L3503.24 327.08 L3503.24 326.46 L3503.24 325.97 L3503.24 325.35 L3503.24 324.85 L3503.24 324.24 L3503.24 323.62 L3503.24 323.12 L3503.24 322.50 L3503.24 322.01 L3503.24 321.39 L3503.24 320.89 L3503.24 320.28 L3503.24 319.66 L3503.24 319.16 L3503.24 318.54 L3503.24 318.05 L3503.24 317.43 L3503.24 316.93 L3503.24 316.31 L3503.24 315.70 L3503.24 315.20 L3503.24 314.58 L3503.24 314.09 L3503.24 313.47 L3503.24 312.97 L3503.24 312.35 L3503.24 311.74 L3503.24 311.24 L3503.24 310.62 L3503.24 310.13 L3503.24 309.51 L3503.24 309.01 L3503.24 308.39 L3503.24 307.90 L3503.24 307.28 L3503.24 306.66 L3503.24 306.17 L3503.24 305.55 L3503.24 305.05 L3503.24 304.43 L3503.24 303.94 L3545.07 303.32 L3545.07 302.70 L3545.07 302.21 L3545.07 301.59 L3545.07 301.09 L3545.07 300.47 L3545.07 299.98 L3545.07 299.36 L3545.07 298.74 L3545.07 298.25 L3545.07 297.63 L3545.07 297.13 L3545.07 296.51 L3545.07 296.02 L3545.07 295.40 L3545.07 294.78 L3545.07 294.29 L3545.07 293.67 L3545.07 293.17 L3545.07 292.55 L3545.07 292.06 L3545.07 291.44 L3545.07 290.82 L3545.07 290.33 L3545.07 289.71 L3545.07 289.21 L3545.07 288.59 L3545.07 288.10 L3545.07 287.48 L3545.07 286.86 L3545.07 286.37 L3545.07 285.75 L3545.07 285.25 L3545.07 284.63 L3545.07 284.14 L3545.07 283.52 L3545.07 282.90 L3545.07 282.41 L3545.07 281.79 L3545.07 281.29 L3545.07 280.67 L3545.07 280.18 L3545.07 279.56 L3545.07 278.94 L3545.07 278.45 L3545.07 277.83 L3545.07 277.33 L3545.07 276.71 L3545.07 276.22 L3545.07 275.60 L3545.07 275.10 L3545.07 274.49 L3545.07 273.87 L3545.07 273.37 L3545.07 272.75 L3545.07 272.26 L3545.07 271.64 L3545.07 271.14 L3545.07 270.53 L3545.07 269.91 L3545.07 269.41 L3545.07 268.79 L3545.07 268.30 L3545.07 267.68 L3545.07 267.18 L3545.07 266.57 L3545.07 265.95 L3545.07 265.45 L3545.07 264.83 L3545.07 264.34 L3545.07 263.72 L3545.07 263.22 L3545.07 262.61 L3545.07 261.99 L3545.07 261.49 L3545.07 260.87 L3545.07 260.38 L3545.07 259.76 L3545.07 259.26 L3545.07 258.65 L3545.07 258.03 L3545.07 257.53 L3545.07 256.91 L3545.07 256.42 L3545.07 255.80 L3545.07 255.30 L3545.07 254.69 L3545.07 254.07 L3545.07 253.57 L3545.07 252.95 L3545.07 252.46 L3545.07 251.84 L3545.07 251.34 L3545.07 250.73 L3545.07 250.11 L3545.07 249.61 L3545.07 248.99 L3545.07 248.50 L3545.07 247.88 L3545.07 247.38 L3545.07 246.77 L3545.07 246.15 L3545.07 245.65 L3545.07 245.03 L3545.07 244.54 L3545.07 243.92 L3545.07 243.42 L3545.07 242.81 L3545.07 242.31 L3545.07 241.69 L3545.07 241.07 L3545.07 240.58 L3545.07 239.96 L3545.07 239.46 L3545.07 238.84 L3545.07 238.35 L3545.07 237.73 L3545.07 237.11 L3545.07 236.62 L3545.07 236.00 L3545.07 235.50 L3545.07 234.88 L3545.07 234.39 L3545.07 233.77 L3545.07 233.15 L3545.07 232.66 L3545.07 232.04 L3545.07 231.54 L3545.07 230.92 L3545.07 230.43 L3545.07 229.81 L3545.07 229.19 L3545.07 228.70 L3545.07 228.08 L3545.07 227.58 L3545.07 226.96 L3545.07 226.47 L3545.07 225.85 L3545.07 225.23 L3545.07 224.74 L3545.07 224.12 L3545.07 223.62 L3545.07 223.00 L3545.07 222.51 L3545.07 221.89 L3545.07 221.27 L3545.07 220.78 L3545.07 220.16 L3545.07 219.66 L3545.07 219.04 L3545.07 218.55 L3545.07 217.93 L3545.07 217.31 L3545.07 216.82 L3545.07 216.20 L3545.07 215.70 L3545.07 215.08 L3545.07 214.59 L3545.07 213.97 L3545.07 213.48 L3545.07 212.86 L3545.07 212.24 L3545.07 211.74 L3545.07 211.12 L3545.07 210.63 L3545.07 210.01 L3545.07 209.52 L3545.07 208.90 L3545.07 208.28 L3545.07 207.78 L3545.07 207.16 L3586.77 207.16 L3586.77 206.67 L3586.77 206.05 L3586.77 205.56 L3586.77 204.94 L3586.77 204.32 L3586.77 203.82 L3586.77 203.20 L3586.77 202.71 L3586.77 202.09 L3586.77 201.60 L3586.77 200.98 L3586.77 200.36 L3586.77 199.86 L3586.77 199.24 L3586.77 198.75 L3586.77 198.13 L3586.77 197.63 L3586.77 197.02 L3586.77 196.40 L3586.77 195.90 L3586.77 195.28 L3586.77 194.79 L3586.77 194.17 L3586.77 193.67 L3586.77 193.06 L3586.77 192.44 L3586.77 191.94 L3586.77 191.32 L3586.77 190.83 L3586.77 190.21 L3586.77 189.71 L3586.77 189.10 L3586.77 188.48 L3586.77 187.98 L3586.77 187.36 L3586.77 186.87 L3586.77 186.25 L3586.77 185.75 L3586.77 185.14 L3586.77 184.52 L3586.77 184.02 L3586.77 183.40 L3586.77 182.91 L3586.77 182.29 L3586.77 181.79 L3586.77 181.18 L3586.77 180.68 L3586.77 180.06 L3586.77 179.44" stroke-linejoin="round" style="fill:none;stroke:#1A476F;stroke-width:8.64"/>
	<line x1="390.80" y1="2489.19" x2="390.80" y2="100.86" style="stroke:#000000;stroke-width:5.76"/>
	<line x1="390.80" y1="2425.82" x2="350.83" y2="2425.82" style="stroke:#000000;stroke-width:5.76"/>
	<text x="300.72" y="2425.82" style="font-family:'Helvetica';font-size:99.99px;fill:#000000" transform="rotate(-90 300.72,2425.82)" text-anchor="middle">0</text>
	<line x1="390.80" y1="1860.39" x2="350.83" y2="1860.39" style="stroke:#000000;stroke-width:5.76"/>
	<text x="300.72" y="1860.39" style="font-family:'Helvetica';font-size:99.99px;fill:#000000" transform="rotate(-90 300.72,1860.39)" text-anchor="middle">1000</text>
	<line x1="390.80" y1="1294.96" x2="350.83" y2="1294.96" style="stroke:#000000;stroke-width:5.76"/>
	<text x="300.72" y="1294.96" style="font-family:'Helvetica';font-size:99.99px;fill:#000000" transform="rotate(-90 300.72,1294.96)" text-anchor="middle">2000</text>
	<line x1="390.80" y1="729.53" x2="350.83" y2="729.53" style="stroke:#000000;stroke-width:5.76"/>
	<text x="300.72" y="729.53" style="font-family:'Helvetica';font-size:99.99px;fill:#000000" transform="rotate(-90 300.72,729.53)" text-anchor="middle">3000</text>
	<line x1="390.80" y1="164.22" x2="350.83" y2="164.22" style="stroke:#000000;stroke-width:5.76"/>
	<text x="300.72" y="164.22" style="font-family:'Helvetica';font-size:99.99px;fill:#000000" transform="rotate(-90 300.72,164.22)" text-anchor="middle">4000</text>
	<text x="190.71" y="1294.96" style="font-family:'Helvetica';font-size:99.99px;fill:#000000" transform="rotate(-90 190.71,1294.96)" text-anchor="middle">cum_cpnsdeath</text>
	<line x1="390.80" y1="2489.19" x2="3859.02" y2="2489.19" style="stroke:#000000;stroke-width:5.76"/>
	<line x1="454.16" y1="2489.19" x2="454.16" y2="2529.16" style="stroke:#000000;stroke-width:5.76"/>
	<text x="454.16" y="2619.14" style="font-family:'Helvetica';font-size:99.99px;fill:#000000" text-anchor="middle">0</text>
	<line x1="1289.47" y1="2489.19" x2="1289.47" y2="2529.16" style="stroke:#000000;stroke-width:5.76"/>
	<text x="1289.47" y="2619.14" style="font-family:'Helvetica';font-size:99.99px;fill:#000000" text-anchor="middle">20</text>
	<line x1="2124.91" y1="2489.19" x2="2124.91" y2="2529.16" style="stroke:#000000;stroke-width:5.76"/>
	<text x="2124.91" y="2619.14" style="font-family:'Helvetica';font-size:99.99px;fill:#000000" text-anchor="middle">40</text>
	<line x1="2960.35" y1="2489.19" x2="2960.35" y2="2529.16" style="stroke:#000000;stroke-width:5.76"/>
	<text x="2960.35" y="2619.14" style="font-family:'Helvetica';font-size:99.99px;fill:#000000" text-anchor="middle">60</text>
	<line x1="3795.66" y1="2489.19" x2="3795.66" y2="2529.16" style="stroke:#000000;stroke-width:5.76"/>
	<text x="3795.66" y="2619.14" style="font-family:'Helvetica';font-size:99.99px;fill:#000000" text-anchor="middle">80</text>
	<text x="2124.91" y="2729.16" style="font-family:'Helvetica';font-size:99.99px;fill:#000000" text-anchor="middle">Analysis time when record ends</text>
</svg>
