<?xml version="1.0" encoding="UTF-8" standalone="no"?>
<!-- This is a Stata 16.1 generated SVG file (http://www.stata.com) -->

<svg version="1.1" width="5.50in" height="4.00in" viewBox="0 0 3960 2880" xmlns="http://www.w3.org/2000/svg" xmlns:xlink="http://www.w3.org/1999/xlink">
	<desc>Stata Graph - Graph</desc>
	<rect x="0" y="0" width="3960" height="2880" style="fill:#EAF2F3;stroke:none"/>
	<rect x="0.00" y="0.00" width="3959.88" height="2880.00" style="fill:#EAF2F3"/>
	<rect x="2.88" y="2.88" width="3954.12" height="2874.24" style="fill:none;stroke:#EAF2F3;stroke-width:5.76"/>
	<rect x="390.80" y="100.86" width="3468.22" height="2388.33" style="fill:#FFFFFF"/>
	<rect x="393.68" y="103.74" width="3462.46" height="2382.57" style="fill:none;stroke:#FFFFFF;stroke-width:5.76"/>
	<line x1="390.80" y1="2425.82" x2="3859.02" y2="2425.82" style="stroke:#EAF2F3;stroke-width:8.64"/>
	<line x1="390.80" y1="1671.91" x2="3859.02" y2="1671.91" style="stroke:#EAF2F3;stroke-width:8.64"/>
	<line x1="390.80" y1="918.01" x2="3859.02" y2="918.01" style="stroke:#EAF2F3;stroke-width:8.64"/>
	<path d=" M505.52 2425.95 L556.88 2425.95 L608.36 2425.95 L659.71 2425.95 L711.07 2425.95 L762.55 2425.95 L813.90 2425.95 L865.38 2425.95 L916.74 2425.95 L968.22 2425.95 L1019.58 2425.95 L1070.93 2425.95 L1122.41 2425.95 L1173.77 2425.95 L1225.25 2425.95 L1276.61 2425.95 L1328.09 2425.95 L1379.44 2425.95 L1430.80 2425.95 L1482.28 2425.95 L1533.63 2425.95 L1585.11 2425.95 L1636.47 2425.95 L1687.95 2425.95 L1739.31 2425.95 L1790.66 2425.95 L1842.14 2425.95 L1893.50 2425.95 L1944.98 2425.95 L1996.34 2425.95 L1996.34 2424.46 L2047.82 2424.46 L2099.17 2424.46 L2150.53 2424.46 L2150.53 2422.85 L2202.01 2422.85 L2253.36 2422.85 L2304.84 2422.85 L2356.20 2422.85 L2356.20 2421.37 L2407.56 2421.37 L2459.04 2421.37 L2459.04 2419.88 L2459.04 2418.40 L2510.39 2418.40 L2561.87 2418.40 L2561.87 2416.91 L2613.23 2416.91 L2613.23 2415.30 L2613.23 2413.82 L2613.23 2412.33 L2613.23 2410.85 L2664.71 2410.85 L2664.71 2409.36 L2664.71 2407.76 L2664.71 2406.27 L2664.71 2404.79 L2664.71 2403.30 L2664.71 2401.82 L2716.07 2401.82 L2716.07 2400.33 L2716.07 2398.72 L2716.07 2397.24 L2716.07 2395.75 L2716.07 2394.27 L2716.07 2392.78 L2716.07 2391.17 L2767.42 2391.17 L2767.42 2389.69 L2767.42 2388.20 L2767.42 2386.72 L2767.42 2385.23 L2767.42 2383.75 L2767.42 2382.14 L2767.42 2380.65 L2767.42 2379.17 L2767.42 2377.68 L2767.42 2376.20 L2767.42 2374.59 L2767.42 2373.10 L2818.90 2373.10 L2818.90 2371.62 L2818.90 2370.13 L2818.90 2368.65 L2818.90 2367.16 L2818.90 2365.56 L2818.90 2364.07 L2818.90 2362.59 L2818.90 2361.10 L2818.90 2359.61 L2818.90 2358.01 L2870.26 2358.01 L2870.26 2356.52 L2870.26 2355.04 L2870.26 2353.55 L2870.26 2352.07 L2870.26 2350.58 L2870.26 2348.97 L2870.26 2347.49 L2870.26 2346.00 L2870.26 2344.52 L2870.26 2343.03 L2870.26 2341.42 L2870.26 2339.94 L2870.26 2338.45 L2870.26 2336.97 L2870.26 2335.48 L2870.26 2333.87 L2870.26 2332.39 L2921.74 2330.90 L2921.74 2329.42 L2921.74 2327.93 L2921.74 2326.45 L2921.74 2324.84 L2921.74 2323.36 L2921.74 2321.87 L2921.74 2320.39 L2921.74 2318.90 L2921.74 2317.29 L2921.74 2315.81 L2921.74 2314.32 L2921.74 2312.84 L2921.74 2311.35 L2921.74 2309.87 L2921.74 2308.26 L2921.74 2306.77 L2921.74 2305.29 L2921.74 2303.80 L2973.09 2303.80 L2973.09 2302.32 L2973.09 2300.71 L2973.09 2299.22 L2973.09 2297.74 L2973.09 2296.25 L2973.09 2294.77 L2973.09 2293.28 L2973.09 2291.67 L2973.09 2290.19 L2973.09 2288.70 L2973.09 2287.22 L2973.09 2285.73 L2973.09 2284.13 L2973.09 2282.64 L2973.09 2281.16 L2973.09 2279.67 L2973.09 2278.18 L2973.09 2276.58 L2973.09 2275.09 L2973.09 2273.61 L2973.09 2272.12 L2973.09 2270.64 L3024.57 2270.64 L3024.57 2269.15 L3024.57 2267.54 L3024.57 2266.06 L3024.57 2264.57 L3024.57 2263.09 L3024.57 2261.60 L3024.57 2259.99 L3024.57 2258.51 L3024.57 2257.02 L3024.57 2255.54 L3024.57 2254.05 L3024.57 2252.57 L3024.57 2250.96 L3024.57 2249.47 L3024.57 2247.99 L3024.57 2246.50 L3024.57 2245.02 L3024.57 2243.41 L3024.57 2241.93 L3024.57 2240.44 L3024.57 2238.95 L3024.57 2237.47 L3024.57 2235.98 L3024.57 2234.38 L3024.57 2232.89 L3024.57 2231.41 L3024.57 2229.92 L3024.57 2228.44 L3024.57 2226.83 L3024.57 2225.34 L3024.57 2223.86 L3024.57 2222.37 L3024.57 2220.89 L3024.57 2219.40 L3075.93 2219.40 L3075.93 2217.79 L3075.93 2216.31 L3075.93 2214.82 L3075.93 2213.34 L3075.93 2211.85 L3075.93 2210.24 L3075.93 2208.76 L3075.93 2207.27 L3075.93 2205.79 L3075.93 2204.30 L3075.93 2202.70 L3075.93 2201.21 L3075.93 2199.72 L3075.93 2198.24 L3075.93 2196.75 L3075.93 2195.27 L3075.93 2193.66 L3075.93 2192.18 L3075.93 2190.69 L3075.93 2189.21 L3075.93 2187.72 L3075.93 2186.11 L3075.93 2184.63 L3075.93 2183.14 L3075.93 2181.66 L3075.93 2180.17 L3075.93 2178.69 L3075.93 2177.08 L3075.93 2175.59 L3075.93 2174.11 L3075.93 2172.62 L3075.93 2171.14 L3075.93 2169.53 L3075.93 2168.04 L3075.93 2166.56 L3127.29 2166.56 L3127.29 2165.07 L3127.29 2163.59 L3127.29 2162.10 L3127.29 2160.50 L3127.29 2159.01 L3127.29 2157.52 L3127.29 2156.04 L3127.29 2154.55 L3127.29 2152.95 L3127.29 2151.46 L3127.29 2149.98 L3127.29 2148.49 L3127.29 2147.01 L3127.29 2145.52 L3127.29 2143.91 L3127.29 2142.43 L3127.29 2140.94 L3127.29 2139.46 L3127.29 2137.97 L3127.29 2136.36 L3127.29 2134.88 L3127.29 2133.39 L3127.29 2131.91 L3127.29 2130.42 L3127.29 2128.81 L3127.29 2127.33 L3127.29 2125.84 L3127.29 2124.36 L3127.29 2122.87 L3127.29 2121.39 L3127.29 2119.78 L3127.29 2118.29 L3127.29 2116.81 L3127.29 2115.32 L3127.29 2113.84 L3127.29 2112.23 L3127.29 2110.75 L3127.29 2109.26 L3127.29 2107.78 L3127.29 2106.29 L3127.29 2104.81 L3127.29 2103.20 L3127.29 2101.71 L3127.29 2100.23 L3127.29 2098.74 L3127.29 2097.26 L3127.29 2095.65 L3127.29 2094.16 L3127.29 2092.68 L3127.29 2091.19 L3178.77 2091.19 L3178.77 2089.71 L3178.77 2088.22 L3178.77 2086.61 L3178.77 2085.13 L3178.77 2083.64 L3178.77 2082.16 L3178.77 2080.67 L3178.77 2079.06 L3178.77 2077.58 L3178.77 2076.09 L3178.77 2074.61 L3178.77 2073.12 L3178.77 2071.64 L3178.77 2070.03 L3178.77 2068.55 L3178.77 2067.06 L3178.77 2065.58 L3178.77 2064.09 L3178.77 2062.48 L3178.77 2061.00 L3178.77 2059.51 L3178.77 2058.03 L3178.77 2056.54 L3178.77 2054.93 L3178.77 2053.45 L3178.77 2051.96 L3178.77 2050.48 L3178.77 2048.99 L3178.77 2047.51 L3178.77 2045.90 L3178.77 2044.41 L3178.77 2042.93 L3178.77 2041.44 L3178.77 2039.96 L3178.77 2038.35 L3178.77 2036.86 L3178.77 2035.38 L3178.77 2033.89 L3178.77 2032.41 L3178.77 2030.92 L3178.77 2029.32 L3178.77 2027.83 L3178.77 2026.35 L3178.77 2024.86 L3178.77 2023.38 L3178.77 2021.77 L3178.77 2020.28 L3178.77 2018.80 L3178.77 2017.31 L3178.77 2015.83 L3178.77 2014.34 L3178.77 2012.73 L3178.77 2011.25 L3178.77 2009.76 L3230.12 2009.76 L3230.12 2008.28 L3230.12 2006.79 L3230.12 2005.18 L3230.12 2003.70 L3230.12 2002.21 L3230.12 2000.73 L3230.12 1999.24 L3230.12 1997.63 L3230.12 1996.15 L3230.12 1994.66 L3230.12 1993.18 L3230.12 1991.69 L3230.12 1990.21 L3230.12 1988.60 L3230.12 1987.12 L3230.12 1985.63 L3230.12 1984.15 L3230.12 1982.66 L3230.12 1981.05 L3230.12 1979.57 L3230.12 1978.08 L3230.12 1976.60 L3230.12 1975.11 L3230.12 1973.63 L3230.12 1972.02 L3230.12 1970.53 L3230.12 1969.05 L3230.12 1967.56 L3230.12 1966.08 L3230.12 1964.47 L3230.12 1962.98 L3230.12 1961.50 L3230.12 1960.01 L3230.12 1958.53 L3230.12 1957.04 L3230.12 1955.43 L3230.12 1953.95 L3230.12 1952.46 L3230.12 1950.98 L3230.12 1949.49 L3230.12 1947.89 L3230.12 1946.40 L3230.12 1944.92 L3230.12 1943.43 L3230.12 1941.95 L3230.12 1940.46 L3230.12 1938.85 L3230.12 1937.37 L3230.12 1935.88 L3230.12 1934.40 L3230.12 1932.91 L3230.12 1931.30 L3230.12 1929.82 L3230.12 1928.33 L3230.12 1926.85 L3230.12 1925.36 L3230.12 1923.75 L3230.12 1922.27 L3230.12 1920.78 L3230.12 1919.30 L3230.12 1917.81 L3230.12 1916.33 L3230.12 1914.72 L3230.12 1913.23 L3230.12 1911.75 L3230.12 1910.26 L3230.12 1908.78 L3230.12 1907.17 L3230.12 1905.69 L3230.12 1904.20 L3230.12 1902.72 L3281.60 1902.72 L3281.60 1901.23 L3281.60 1899.75 L3281.60 1898.14 L3281.60 1896.65 L3281.60 1895.17 L3281.60 1893.68 L3281.60 1892.20 L3281.60 1890.59 L3281.60 1889.10 L3281.60 1887.62 L3281.60 1886.13 L3281.60 1884.65 L3281.60 1883.16 L3281.60 1881.55 L3281.60 1880.07 L3281.60 1878.58 L3281.60 1877.10 L3281.60 1875.61 L3281.60 1874.00 L3281.60 1872.52 L3281.60 1871.03 L3281.60 1869.55 L3281.60 1868.06 L3281.60 1866.58 L3281.60 1864.97 L3281.60 1863.49 L3281.60 1862.00 L3281.60 1860.52 L3281.60 1859.03 L3281.60 1857.42 L3281.60 1855.94 L3281.60 1854.45 L3281.60 1852.97 L3281.60 1851.48 L3281.60 1849.87 L3281.60 1848.39 L3281.60 1846.90 L3281.60 1845.42 L3281.60 1843.93 L3281.60 1842.45 L3281.60 1840.84 L3281.60 1839.35 L3281.60 1837.87 L3281.60 1836.38 L3281.60 1834.90 L3281.60 1833.29 L3281.60 1831.80 L3281.60 1830.32 L3281.60 1828.83 L3281.60 1827.35 L3281.60 1825.86 L3281.60 1824.26 L3281.60 1822.77 L3281.60 1821.29 L3281.60 1819.80 L3281.60 1818.32 L3281.60 1816.71 L3281.60 1815.22 L3281.60 1813.74 L3281.60 1812.25 L3281.60 1810.77 L3281.60 1809.28 L3281.60 1807.67 L3281.60 1806.19 L3281.60 1804.70 L3281.60 1803.22 L3281.60 1801.73 L3281.60 1800.12 L3281.60 1798.64 L3281.60 1797.15 L3281.60 1795.67 L3281.60 1794.18 L3281.60 1792.57 L3281.60 1791.09 L3281.60 1789.60 L3281.60 1788.12 L3281.60 1786.63 L3281.60 1785.15 L3281.60 1783.54 L3281.60 1782.06 L3281.60 1780.57 L3281.60 1779.09 L3281.60 1777.60 L3281.60 1775.99 L3281.60 1774.51 L3281.60 1773.02 L3281.60 1771.54 L3281.60 1770.05 L3281.60 1768.57 L3281.60 1766.96 L3332.96 1766.96 L3332.96 1765.47 L3332.96 1763.99 L3332.96 1762.50 L3332.96 1761.02 L3332.96 1759.41 L3332.96 1757.92 L3332.96 1756.44 L3332.96 1754.95 L3332.96 1753.47 L3332.96 1751.98 L3332.96 1750.37 L3332.96 1748.89 L3332.96 1747.40 L3332.96 1745.92 L3332.96 1744.43 L3332.96 1742.83 L3332.96 1741.34 L3332.96 1739.86 L3332.96 1738.37 L3332.96 1736.89 L3332.96 1735.40 L3332.96 1733.79 L3332.96 1732.31 L3332.96 1730.82 L3332.96 1729.34 L3332.96 1727.85 L3332.96 1726.24 L3332.96 1724.76 L3332.96 1723.27 L3332.96 1721.79 L3332.96 1720.30 L3332.96 1718.69 L3332.96 1717.21 L3332.96 1715.72 L3332.96 1714.24 L3332.96 1712.75 L3332.96 1711.27 L3332.96 1709.66 L3332.96 1708.17 L3332.96 1706.69 L3332.96 1705.20 L3332.96 1703.72 L3332.96 1702.11 L3332.96 1700.63 L3332.96 1699.14 L3332.96 1697.66 L3332.96 1696.17 L3332.96 1694.69 L3332.96 1693.08 L3332.96 1691.59 L3332.96 1690.11 L3332.96 1688.62 L3332.96 1687.14 L3332.96 1685.53 L3332.96 1684.04 L3332.96 1682.56 L3332.96 1681.07 L3332.96 1679.59 L3332.96 1678.10 L3332.96 1676.49 L3332.96 1675.01 L3332.96 1673.52 L3332.96 1672.04 L3332.96 1670.55 L3332.96 1668.94 L3332.96 1667.46 L3332.96 1665.97 L3332.96 1664.49 L3332.96 1663.00 L3332.96 1661.52 L3332.96 1659.91 L3332.96 1658.43 L3332.96 1656.94 L3332.96 1655.46 L3332.96 1653.97 L3332.96 1652.36 L3332.96 1650.88 L3332.96 1649.39 L3332.96 1647.91 L3332.96 1646.42 L3332.96 1644.81 L3332.96 1643.33 L3332.96 1641.84 L3332.96 1640.36 L3332.96 1638.87 L3332.96 1637.39 L3332.96 1635.78 L3332.96 1634.29 L3332.96 1632.81 L3332.96 1631.32 L3332.96 1629.84 L3332.96 1628.23 L3332.96 1626.74 L3332.96 1625.26 L3332.96 1623.77 L3332.96 1622.29 L3332.96 1620.80 L3332.96 1619.20 L3332.96 1617.71 L3332.96 1616.23 L3332.96 1614.74 L3384.44 1614.74 L3384.44 1613.26 L3384.44 1611.65 L3384.44 1610.16 L3384.44 1608.68 L3384.44 1607.19 L3384.44 1605.71 L3384.44 1604.22 L3384.44 1602.61 L3384.44 1601.13 L3384.44 1599.64 L3384.44 1598.16 L3384.44 1596.67 L3384.44 1595.06 L3384.44 1593.58 L3384.44 1592.09 L3384.44 1590.61 L3384.44 1589.12 L3384.44 1587.64 L3384.44 1586.03 L3384.44 1584.54 L3384.44 1583.06 L3384.44 1581.57 L3384.44 1580.09 L3384.44 1578.48 L3384.44 1577.00 L3384.44 1575.51 L3384.44 1574.03 L3384.44 1572.54 L3384.44 1570.93 L3384.44 1569.45 L3384.44 1567.96 L3384.44 1566.48 L3384.44 1564.99 L3384.44 1563.51 L3384.44 1561.90 L3384.44 1560.41 L3384.44 1558.93 L3384.44 1557.44 L3384.44 1555.96 L3384.44 1554.35 L3384.44 1552.86 L3384.44 1551.38 L3384.44 1549.89 L3384.44 1548.41 L3384.44 1546.92 L3384.44 1545.31 L3384.44 1543.83 L3384.44 1542.34 L3384.44 1540.86 L3384.44 1539.37 L3384.44 1537.77 L3384.44 1536.28 L3384.44 1534.80 L3384.44 1533.31 L3384.44 1531.83 L3384.44 1530.34 L3384.44 1528.73 L3384.44 1527.25 L3384.44 1525.76 L3384.44 1524.28 L3384.44 1522.79 L3384.44 1521.18 L3384.44 1519.70 L3384.44 1518.21 L3384.44 1516.73 L3384.44 1515.24 L3384.44 1513.63 L3384.44 1512.15 L3384.44 1510.66 L3384.44 1509.18 L3384.44 1507.69 L3384.44 1506.21 L3384.44 1504.60 L3384.44 1503.11 L3384.44 1501.63 L3384.44 1500.14 L3384.44 1498.66 L3384.44 1497.05 L3384.44 1495.57 L3384.44 1494.08 L3384.44 1492.60 L3384.44 1491.11 L3384.44 1489.63 L3384.44 1488.02 L3384.44 1486.53 L3384.44 1485.05 L3384.44 1483.56 L3384.44 1482.08 L3384.44 1480.47 L3384.44 1478.98 L3384.44 1477.50 L3384.44 1476.01 L3384.44 1474.53 L3384.44 1473.04 L3384.44 1471.43 L3384.44 1469.95 L3384.44 1468.46 L3384.44 1466.98 L3384.44 1465.49 L3435.80 1463.88 L3435.80 1462.40 L3435.80 1460.91 L3435.80 1459.43 L3435.80 1457.94 L3435.80 1456.46 L3435.80 1454.85 L3435.80 1453.37 L3435.80 1451.88 L3435.80 1450.40 L3435.80 1448.91 L3435.80 1447.30 L3435.80 1445.82 L3435.80 1444.33 L3435.80 1442.85 L3435.80 1441.36 L3435.80 1439.75 L3435.80 1438.27 L3435.80 1436.78 L3435.80 1435.30 L3435.80 1433.81 L3435.80 1432.33 L3435.80 1430.72 L3435.80 1429.23 L3435.80 1427.75 L3435.80 1426.26 L3435.80 1424.78 L3435.80 1423.17 L3435.80 1421.68 L3435.80 1420.20 L3435.80 1418.71 L3435.80 1417.23 L3435.80 1415.74 L3435.80 1414.14 L3435.80 1412.65 L3435.80 1411.17 L3435.80 1409.68 L3435.80 1408.20 L3435.80 1406.59 L3435.80 1405.10 L3435.80 1403.62 L3435.80 1402.13 L3435.80 1400.65 L3435.80 1399.16 L3435.80 1397.55 L3435.80 1396.07 L3435.80 1394.58 L3435.80 1393.10 L3435.80 1391.61 L3435.80 1390.00 L3435.80 1388.52 L3435.80 1387.03 L3435.80 1385.55 L3435.80 1384.06 L3435.80 1382.58 L3435.80 1380.97 L3435.80 1379.48 L3435.80 1378.00 L3435.80 1376.51 L3435.80 1375.03 L3435.80 1373.42 L3435.80 1371.94 L3435.80 1370.45 L3435.80 1368.97 L3435.80 1367.48 L3435.80 1365.87 L3435.80 1364.39 L3435.80 1362.90 L3435.80 1361.42 L3435.80 1359.93 L3435.80 1358.45 L3435.80 1356.84 L3435.80 1355.35 L3435.80 1353.87 L3435.80 1352.38 L3435.80 1350.90 L3435.80 1349.29 L3435.80 1347.80 L3435.80 1346.32 L3435.80 1344.83 L3435.80 1343.35 L3435.80 1341.86 L3435.80 1340.25 L3435.80 1338.77 L3435.80 1337.28 L3435.80 1335.80 L3435.80 1334.31 L3435.80 1332.71 L3435.80 1331.22 L3435.80 1329.74 L3435.80 1328.25 L3435.80 1326.77 L3435.80 1325.28 L3435.80 1323.67 L3435.80 1322.19 L3435.80 1320.70 L3435.80 1319.22 L3435.80 1317.73 L3435.80 1316.12 L3435.80 1314.64 L3435.80 1313.15 L3435.80 1311.67 L3435.80 1310.18 L3435.80 1308.70 L3435.80 1307.09 L3435.80 1305.60 L3435.80 1304.12 L3435.80 1302.63 L3435.80 1301.15 L3435.80 1299.54 L3435.80 1298.05 L3435.80 1296.57 L3435.80 1295.08 L3487.15 1293.60 L3487.15 1291.99 L3487.15 1290.51 L3487.15 1289.02 L3487.15 1287.54 L3487.15 1286.05 L3487.15 1284.57 L3487.15 1282.96 L3487.15 1281.47 L3487.15 1279.99 L3487.15 1278.50 L3487.15 1277.02 L3487.15 1275.41 L3487.15 1273.92 L3487.15 1272.44 L3487.15 1270.95 L3487.15 1269.47 L3487.15 1267.98 L3487.15 1266.37 L3487.15 1264.89 L3487.15 1263.40 L3487.15 1261.92 L3487.15 1260.43 L3487.15 1258.82 L3487.15 1257.34 L3487.15 1255.85 L3487.15 1254.37 L3487.15 1252.88 L3487.15 1251.40 L3487.15 1249.79 L3487.15 1248.31 L3487.15 1246.82 L3487.15 1245.34 L3487.15 1243.85 L3487.15 1242.24 L3487.15 1240.76 L3487.15 1239.27 L3487.15 1237.79 L3487.15 1236.30 L3487.15 1234.69 L3487.15 1233.21 L3487.15 1231.72 L3487.15 1230.24 L3487.15 1228.75 L3487.15 1227.27 L3487.15 1225.66 L3487.15 1224.17 L3487.15 1222.69 L3487.15 1221.20 L3487.15 1219.72 L3487.15 1218.11 L3487.15 1216.62 L3487.15 1215.14 L3487.15 1213.65 L3487.15 1212.17 L3487.15 1210.68 L3487.15 1209.08 L3487.15 1207.59 L3487.15 1206.11 L3487.15 1204.62 L3487.15 1203.14 L3487.15 1201.53 L3487.15 1200.04 L3487.15 1198.56 L3487.15 1197.07 L3487.15 1195.59 L3487.15 1194.10 L3487.15 1192.49 L3487.15 1191.01 L3487.15 1189.52 L3487.15 1188.04 L3487.15 1186.55 L3487.15 1184.94 L3487.15 1183.46 L3487.15 1181.97 L3487.15 1180.49 L3487.15 1179.00 L3487.15 1177.52 L3487.15 1175.91 L3487.15 1174.42 L3487.15 1172.94 L3487.15 1171.45 L3487.15 1169.97 L3487.15 1168.36 L3487.15 1166.88 L3487.15 1165.39 L3487.15 1163.91 L3487.15 1162.42 L3487.15 1160.81 L3487.15 1159.33 L3487.15 1157.84 L3487.15 1156.36 L3487.15 1154.87 L3487.15 1153.39 L3487.15 1151.78 L3487.15 1150.29 L3487.15 1148.81 L3487.15 1147.32 L3487.15 1145.84 L3487.15 1144.23 L3487.15 1142.74 L3487.15 1141.26 L3487.15 1139.77 L3487.15 1138.29 L3487.15 1136.80 L3487.15 1135.19 L3487.15 1133.71 L3487.15 1132.22 L3487.15 1130.74 L3487.15 1129.25 L3487.15 1127.65 L3487.15 1126.16 L3487.15 1124.68 L3487.15 1123.19 L3487.15 1121.71 L3487.15 1120.22 L3487.15 1118.61 L3487.15 1117.13 L3487.15 1115.64 L3487.15 1114.16 L3487.15 1112.67 L3487.15 1111.06 L3487.15 1109.58 L3487.15 1108.09 L3487.15 1106.61 L3487.15 1105.12 L3487.15 1103.64 L3538.63 1103.64 L3538.63 1102.03 L3538.63 1100.54 L3538.63 1099.06 L3538.63 1097.57 L3538.63 1096.09 L3538.63 1094.48 L3538.63 1092.99 L3538.63 1091.51 L3538.63 1090.02 L3538.63 1088.54 L3538.63 1086.93 L3538.63 1085.45 L3538.63 1083.96 L3538.63 1082.48 L3538.63 1080.99 L3538.63 1079.50 L3538.63 1077.90 L3538.63 1076.41 L3538.63 1074.93 L3538.63 1073.44 L3538.63 1071.96 L3538.63 1070.35 L3538.63 1068.86 L3538.63 1067.38 L3538.63 1065.89 L3538.63 1064.41 L3538.63 1062.92 L3538.63 1061.31 L3538.63 1059.83 L3538.63 1058.34 L3538.63 1056.86 L3538.63 1055.37 L3538.63 1053.76 L3538.63 1052.28 L3538.63 1050.79 L3538.63 1049.31 L3538.63 1047.82 L3538.63 1046.34 L3538.63 1044.73 L3538.63 1043.25 L3538.63 1041.76 L3538.63 1040.28 L3538.63 1038.79 L3538.63 1037.18 L3538.63 1035.70 L3538.63 1034.21 L3538.63 1032.73 L3538.63 1031.24 L3538.63 1029.76 L3538.63 1028.15 L3538.63 1026.66 L3538.63 1025.18 L3538.63 1023.69 L3538.63 1022.21 L3538.63 1020.60 L3538.63 1019.11 L3538.63 1017.63 L3538.63 1016.14 L3538.63 1014.66 L3538.63 1013.05 L3538.63 1011.56 L3538.63 1010.08 L3538.63 1008.59 L3538.63 1007.11 L3538.63 1005.62 L3538.63 1004.02 L3538.63 1002.53 L3538.63 1001.05 L3538.63 999.56 L3538.63 998.07 L3538.63 996.47 L3538.63 994.98 L3538.63 993.50 L3538.63 992.01 L3538.63 990.53 L3538.63 989.04 L3538.63 987.43 L3538.63 985.95 L3538.63 984.46 L3538.63 982.98 L3538.63 981.49 L3538.63 979.88 L3538.63 978.40 L3538.63 976.91 L3538.63 975.43 L3538.63 973.94 L3538.63 972.46 L3538.63 970.85 L3538.63 969.36 L3538.63 967.88 L3538.63 966.39 L3538.63 964.91 L3538.63 963.30 L3538.63 961.82 L3538.63 960.33 L3538.63 958.84 L3538.63 957.36 L3538.63 955.75 L3538.63 954.27 L3538.63 952.78 L3538.63 951.30 L3538.63 949.81 L3538.63 948.33 L3538.63 946.72 L3538.63 945.23 L3538.63 943.75 L3538.63 942.26 L3538.63 940.78 L3538.63 939.17 L3538.63 937.68 L3538.63 936.20 L3538.63 934.71 L3538.63 933.23 L3538.63 931.74 L3538.63 930.13 L3538.63 928.65 L3538.63 927.16 L3538.63 925.68 L3538.63 924.19 L3538.63 922.59 L3538.63 921.10 L3538.63 919.61 L3538.63 918.13 L3589.99 918.13 L3589.99 916.64 L3589.99 915.16 L3589.99 913.55 L3589.99 912.07 L3589.99 910.58 L3589.99 909.10 L3589.99 907.61 L3589.99 906.00 L3589.99 904.52 L3589.99 903.03 L3589.99 901.55 L3589.99 900.06 L3589.99 898.58 L3589.99 896.97 L3589.99 895.48 L3589.99 894.00 L3589.99 892.51 L3589.99 891.03 L3589.99 889.42 L3589.99 887.93 L3589.99 886.45 L3589.99 884.96 L3589.99 883.48 L3589.99 881.87 L3589.99 880.39 L3589.99 878.90 L3589.99 877.41 L3589.99 875.93 L3589.99 874.44 L3589.99 872.84 L3589.99 871.35 L3589.99 869.87 L3589.99 868.38 L3589.99 866.90 L3589.99 865.29 L3589.99 863.80 L3589.99 862.32 L3589.99 860.83 L3589.99 859.35 L3589.99 857.86 L3589.99 856.25 L3589.99 854.77 L3589.99 853.28 L3589.99 851.80 L3589.99 850.31 L3589.99 848.70 L3589.99 847.22 L3589.99 845.73 L3589.99 844.25 L3589.99 842.76 L3589.99 841.28 L3589.99 839.67 L3589.99 838.18 L3589.99 836.70 L3589.99 835.21 L3589.99 833.73 L3589.99 832.12 L3589.99 830.64 L3589.99 829.15 L3589.99 827.67 L3589.99 826.18 L3589.99 824.70 L3589.99 823.09 L3589.99 821.60 L3589.99 820.12 L3589.99 818.63 L3589.99 817.15 L3589.99 815.54 L3589.99 814.05 L3589.99 812.57 L3589.99 811.08 L3589.99 809.60 L3589.99 807.99 L3589.99 806.50 L3589.99 805.02 L3589.99 803.53 L3589.99 802.05 L3589.99 800.56 L3589.99 798.95 L3589.99 797.47 L3589.99 795.98 L3589.99 794.50 L3589.99 793.01 L3589.99 791.41 L3589.99 789.92 L3589.99 788.44 L3589.99 786.95 L3589.99 785.47 L3589.99 783.98 L3589.99 782.37 L3641.47 782.37 L3641.47 780.89 L3641.47 779.40 L3641.47 777.92 L3641.47 776.43 L3641.47 774.82 L3641.47 773.34 L3641.47 771.85 L3641.47 770.37 L3641.47 768.88 L3641.47 767.40 L3641.47 765.79 L3641.47 764.30 L3641.47 762.82 L3641.47 761.33 L3641.47 759.85 L3641.47 758.24 L3641.47 756.75 L3641.47 755.27 L3641.47 753.78 L3641.47 752.30 L3641.47 750.69 L3641.47 749.21 L3641.47 747.72 L3641.47 746.24 L3641.47 744.75 L3641.47 743.27 L3641.47 741.66 L3641.47 740.17 L3641.47 738.69 L3641.47 737.20 L3641.47 735.72 L3641.47 734.11 L3641.47 732.62 L3641.47 731.14 L3641.47 729.65 L3692.82 729.65 L3692.82 728.17 L3692.82 726.68 L3692.82 725.07 L3692.82 723.59 L3692.82 722.10 L3692.82 720.62 L3692.82 719.13 L3692.82 717.52 L3692.82 716.04 L3692.82 714.55 L3744.30 713.07 L3744.30 711.58 L3744.30 710.10 L3744.30 708.49 L3744.30 707.01 L3744.30 705.52 L3744.30 704.04 L3744.30 702.55 L3795.66 702.55 L3795.66 700.94" stroke-linejoin="round" style="fill:none;stroke:#1A476F;stroke-width:8.64"/>
	<line x1="390.80" y1="2489.19" x2="390.80" y2="100.86" style="stroke:#000000;stroke-width:5.76"/>
	<line x1="390.80" y1="2425.82" x2="350.83" y2="2425.82" style="stroke:#000000;stroke-width:5.76"/>
	<text x="300.72" y="2425.82" style="font-family:'Helvetica';font-size:99.99px;fill:#000000" transform="rotate(-90 300.72,2425.82)" text-anchor="middle">0</text>
	<line x1="390.80" y1="1671.91" x2="350.83" y2="1671.91" style="stroke:#000000;stroke-width:5.76"/>
	<text x="300.72" y="1671.91" style="font-family:'Helvetica';font-size:99.99px;fill:#000000" transform="rotate(-90 300.72,1671.91)" text-anchor="middle">500</text>
	<line x1="390.80" y1="918.01" x2="350.83" y2="918.01" style="stroke:#000000;stroke-width:5.76"/>
	<text x="300.72" y="918.01" style="font-family:'Helvetica';font-size:99.99px;fill:#000000" transform="rotate(-90 300.72,918.01)" text-anchor="middle">1000</text>
	<line x1="390.80" y1="164.22" x2="350.83" y2="164.22" style="stroke:#000000;stroke-width:5.76"/>
	<text x="300.72" y="164.22" style="font-family:'Helvetica';font-size:99.99px;fill:#000000" transform="rotate(-90 300.72,164.22)" text-anchor="middle">1500</text>
	<text x="190.71" y="1294.96" style="font-family:'Helvetica';font-size:99.99px;fill:#000000" transform="rotate(-90 190.71,1294.96)" text-anchor="middle">cum_onscoviddeath</text>
	<line x1="390.80" y1="2489.19" x2="3859.02" y2="2489.19" style="stroke:#000000;stroke-width:5.76"/>
	<line x1="454.16" y1="2489.19" x2="454.16" y2="2529.16" style="stroke:#000000;stroke-width:5.76"/>
	<text x="454.16" y="2619.14" style="font-family:'Helvetica';font-size:99.99px;fill:#000000" text-anchor="middle">0</text>
	<line x1="1482.28" y1="2489.19" x2="1482.28" y2="2529.16" style="stroke:#000000;stroke-width:5.76"/>
	<text x="1482.28" y="2619.14" style="font-family:'Helvetica';font-size:99.99px;fill:#000000" text-anchor="middle">20</text>
	<line x1="2510.52" y1="2489.19" x2="2510.52" y2="2529.16" style="stroke:#000000;stroke-width:5.76"/>
	<text x="2510.52" y="2619.14" style="font-family:'Helvetica';font-size:99.99px;fill:#000000" text-anchor="middle">40</text>
	<line x1="3538.63" y1="2489.19" x2="3538.63" y2="2529.16" style="stroke:#000000;stroke-width:5.76"/>
	<text x="3538.63" y="2619.14" style="font-family:'Helvetica';font-size:99.99px;fill:#000000" text-anchor="middle">60</text>
	<text x="2124.91" y="2729.16" style="font-family:'Helvetica';font-size:99.99px;fill:#000000" text-anchor="middle">Analysis time when record ends</text>
</svg>
