<?xml version="1.0" encoding="UTF-8" standalone="no"?>
<!-- This is a Stata 16.1 generated SVG file (http://www.stata.com) -->

<svg version="1.1" width="5.50in" height="4.00in" viewBox="0 0 3960 2880" xmlns="http://www.w3.org/2000/svg" xmlns:xlink="http://www.w3.org/1999/xlink">
	<desc>Stata Graph - Graph</desc>
	<rect x="0" y="0" width="3960" height="2880" style="fill:#EAF2F3;stroke:none"/>
	<rect x="0.00" y="0.00" width="3959.88" height="2880.00" style="fill:#EAF2F3"/>
	<rect x="2.88" y="2.88" width="3954.12" height="2874.24" style="fill:none;stroke:#EAF2F3;stroke-width:5.76"/>
	<rect x="63.36" y="317.92" width="1916.64" height="1848.64" style="fill:#EAF2F3"/>
	<rect x="65.52" y="320.08" width="1912.32" height="1844.32" style="fill:none;stroke:#EAF2F3;stroke-width:4.32"/>
	<rect x="381.40" y="524.47" width="1522.99" height="1349.04" style="fill:#FFFFFF"/>
	<rect x="383.56" y="526.63" width="1518.67" height="1344.72" style="fill:none;stroke:#FFFFFF;stroke-width:4.32"/>
	<line x1="381.40" y1="1825.99" x2="1904.39" y2="1825.99" style="stroke:#EAF2F3;stroke-width:6.48"/>
	<line x1="381.40" y1="1407.95" x2="1904.39" y2="1407.95" style="stroke:#EAF2F3;stroke-width:6.48"/>
	<line x1="381.40" y1="989.91" x2="1904.39" y2="989.91" style="stroke:#EAF2F3;stroke-width:6.48"/>
	<line x1="381.40" y1="571.99" x2="1904.39" y2="571.99" style="stroke:#EAF2F3;stroke-width:6.48"/>
	<path d=" M428.92 1825.99 L428.92 1825.99 L428.92 1825.99 L428.92 1825.99 L428.92 1825.99 L428.92 1825.99 L428.92 1825.99 L428.92 1825.99 L428.92 1825.99 L428.92 1825.99 L428.92 1825.99 L446.74 1825.99 L446.74 1825.99 L482.50 1825.99 L482.50 1825.99 L518.14 1825.99 L518.14 1825.99 L535.96 1825.99 L535.96 1825.99 L571.73 1825.99 L571.73 1825.99 L589.54 1825.99 L589.54 1825.99 L607.37 1825.99 L607.37 1825.99 L625.18 1825.99 L625.18 1825.99 L643.13 1825.99 L643.13 1825.99 L660.95 1825.99 L660.95 1825.99 L678.77 1825.99 L678.77 1825.99 L696.59 1825.99 L696.59 1825.99 L732.35 1825.99 L732.35 1825.99 L750.17 1825.99 L750.17 1825.99 L785.81 1825.99 L785.81 1825.99 L803.76 1825.99 L803.76 1825.99 L821.58 1825.99 L821.58 1825.99 L857.22 1825.99 L857.22 1825.99 L892.98 1825.99 L892.98 1825.99 L964.38 1825.99 L964.38 1825.99 L982.20 1825.99 L982.20 1825.99 L1017.84 1825.99 L1017.84 1825.99 L1035.79 1825.99 L1035.79 1825.99 L1071.43 1825.99 L1071.43 1825.99 L1107.19 1825.99 L1107.19 1825.99 L1125.01 1825.99 L1125.01 1825.99 L1142.83 1825.99 L1142.83 1825.99 L1160.65 1825.99 L1160.65 1825.99 L1178.47 1825.99 L1178.47 1825.99 L1196.41 1825.99 L1196.41 1825.99 L1214.23 1825.99 L1214.23 1825.99 L1232.06 1825.99 L1232.06 1825.99 L1249.88 1825.99 L1249.88 1825.99 L1267.82 1825.99 L1267.82 1825.99 L1285.64 1825.99 L1285.64 1825.99 L1321.28 1825.99 L1321.28 1825.99 L1357.04 1825.99 L1357.04 1825.99 L1374.86 1825.99 L1374.86 1825.99 L1392.68 1825.99 L1392.68 1825.99 L1410.50 1825.99 L1410.50 1825.99 L1481.91 1825.99 L1481.91 1825.99 L1499.85 1825.99 L1499.85 1825.49 L1517.67 1825.49 L1517.67 1825.12 L1571.13 1825.12 L1571.13 1824.87 L1606.89 1824.87 L1606.89 1824.26 L1624.71 1824.26 L1624.71 1824.01 L1642.53 1824.01 L1642.53 1823.76 L1678.30 1823.76 L1678.30 1823.14 L1767.52 1823.14 L1767.52 1823.14" stroke-linejoin="round" style="fill:none;stroke:#1A476F;stroke-width:6.48"/>
	<path d=" M428.92 1825.99 L428.92 1825.99 L428.92 1825.99 L428.92 1825.99 L428.92 1825.99 L428.92 1825.99 L428.92 1825.99 L428.92 1825.99 L428.92 1825.99 L428.92 1825.99 L428.92 1825.99 L446.74 1825.99 L446.74 1825.99 L464.56 1825.99 L464.56 1825.99 L482.50 1825.99 L482.50 1825.99 L500.32 1825.99 L500.32 1825.99 L518.14 1825.99 L518.14 1825.99 L535.96 1825.99 L535.96 1825.99 L553.78 1825.99 L553.78 1825.99 L571.73 1825.99 L571.73 1825.99 L589.54 1825.99 L589.54 1825.99 L607.37 1825.99 L607.37 1825.99 L625.18 1825.99 L625.18 1825.99 L643.13 1825.99 L643.13 1825.99 L660.95 1825.99 L660.95 1825.99 L678.77 1825.99 L678.77 1825.99 L696.59 1825.99 L696.59 1825.99 L714.53 1825.99 L714.53 1825.99 L732.35 1825.99 L732.35 1825.99 L750.17 1825.99 L750.17 1825.99 L767.99 1825.99 L767.99 1825.99 L785.81 1825.99 L785.81 1825.99 L803.76 1825.99 L803.76 1825.99 L821.58 1825.99 L821.58 1825.99 L839.40 1825.99 L839.40 1825.99 L857.22 1825.99 L857.22 1825.99 L875.16 1825.99 L875.16 1825.99 L892.98 1825.99 L892.98 1825.99 L910.80 1825.99 L910.80 1825.99 L928.62 1825.99 L928.62 1825.99 L946.44 1825.99 L946.44 1825.99 L964.38 1825.99 L964.38 1825.99 L982.20 1825.99 L982.20 1825.99 L1000.02 1825.99 L1000.02 1825.99 L1017.84 1825.99 L1017.84 1825.99 L1035.79 1825.99 L1035.79 1825.99 L1053.61 1825.99 L1053.61 1825.99 L1071.43 1825.99 L1071.43 1825.99 L1089.25 1825.99 L1089.25 1825.99 L1107.19 1825.99 L1107.19 1825.99 L1125.01 1825.99 L1125.01 1825.99 L1142.83 1825.99 L1142.83 1825.99 L1160.65 1825.99 L1160.65 1825.99 L1178.47 1825.99 L1178.47 1825.99 L1196.41 1825.99 L1196.41 1825.99 L1214.23 1825.99 L1214.23 1825.99 L1232.06 1825.99 L1232.06 1825.99 L1249.88 1825.99 L1249.88 1825.99 L1267.82 1825.99 L1267.82 1825.99 L1285.64 1825.99 L1285.64 1825.99 L1303.46 1825.99 L1303.46 1825.99 L1321.28 1825.99 L1321.28 1825.49 L1339.10 1825.49 L1339.10 1824.87 L1357.04 1824.87 L1357.04 1824.87 L1374.86 1824.87 L1374.86 1824.87 L1392.68 1824.87 L1392.68 1824.87 L1410.50 1824.87 L1410.50 1824.26 L1428.45 1824.26 L1428.45 1824.26 L1446.27 1824.26 L1446.27 1823.64 L1464.09 1823.64 L1464.09 1823.02 L1481.91 1823.02 L1481.91 1822.40 L1499.85 1822.40 L1499.85 1822.40 L1517.67 1822.40 L1517.67 1821.78 L1535.49 1821.78 L1535.49 1821.29 L1553.31 1821.29 L1553.31 1820.67 L1571.13 1820.67 L1571.13 1819.43 L1624.71 1819.43 L1624.71 1818.81 L1642.53 1818.81 L1642.53 1817.08 L1660.48 1817.08 L1660.48 1815.84 L1678.30 1815.84 L1678.30 1815.22 L1696.12 1815.22 L1696.12 1814.60 L1713.94 1814.60 L1713.94 1814.11 L1767.52 1814.11 L1767.52 1814.11" stroke-linejoin="round" style="fill:none;stroke:#90353B;stroke-width:6.48"/>
	<path d=" M428.92 1825.99 L428.92 1825.99 L428.92 1825.99 L428.92 1825.99 L428.92 1825.99 L428.92 1825.99 L428.92 1825.99 L428.92 1825.99 L428.92 1825.99 L428.92 1825.99 L428.92 1825.99 L446.74 1825.99 L446.74 1825.99 L464.56 1825.99 L464.56 1825.99 L482.50 1825.99 L482.50 1825.99 L500.32 1825.99 L500.32 1825.99 L518.14 1825.99 L518.14 1825.99 L535.96 1825.99 L535.96 1825.99 L553.78 1825.99 L553.78 1825.99 L571.73 1825.99 L571.73 1825.99 L589.54 1825.99 L589.54 1825.99 L607.37 1825.99 L607.37 1825.99 L625.18 1825.99 L625.18 1825.99 L643.13 1825.99 L643.13 1825.99 L660.95 1825.99 L660.95 1825.99 L678.77 1825.99 L678.77 1825.99 L696.59 1825.99 L696.59 1825.99 L714.53 1825.99 L714.53 1825.99 L732.35 1825.99 L732.35 1825.99 L750.17 1825.99 L750.17 1825.99 L767.99 1825.99 L767.99 1825.99 L785.81 1825.99 L785.81 1825.99 L803.76 1825.99 L803.76 1825.99 L821.58 1825.99 L821.58 1825.99 L839.40 1825.99 L839.40 1825.99 L857.22 1825.99 L857.22 1825.99 L875.16 1825.99 L875.16 1825.99 L892.98 1825.99 L892.98 1825.99 L910.80 1825.99 L910.80 1825.99 L928.62 1825.99 L928.62 1825.99 L946.44 1825.99 L946.44 1825.99 L964.38 1825.99 L964.38 1825.99 L982.20 1825.99 L982.20 1825.99 L1000.02 1825.99 L1000.02 1825.99 L1017.84 1825.99 L1017.84 1825.99 L1035.79 1825.99 L1035.79 1825.99 L1053.61 1825.99 L1053.61 1825.99 L1071.43 1825.99 L1071.43 1825.99 L1089.25 1825.99 L1089.25 1825.99 L1107.19 1825.99 L1107.19 1825.99 L1125.01 1825.99 L1125.01 1825.99 L1142.83 1825.99 L1142.83 1825.99 L1160.65 1825.99 L1160.65 1825.99 L1178.47 1825.99 L1178.47 1825.99 L1196.41 1825.99 L1196.41 1825.99 L1214.23 1825.99 L1214.23 1825.99 L1232.06 1825.99 L1232.06 1825.99 L1249.88 1825.99 L1249.88 1825.99 L1267.82 1825.99 L1267.82 1825.99 L1285.64 1825.99 L1285.64 1825.49 L1303.46 1825.49 L1303.46 1825.49 L1321.28 1825.49 L1321.28 1825.49 L1339.10 1825.49 L1339.10 1824.38 L1357.04 1824.38 L1357.04 1823.76 L1374.86 1823.76 L1374.86 1823.76 L1392.68 1823.76 L1392.68 1822.15 L1410.50 1822.15 L1410.50 1821.04 L1428.45 1821.04 L1428.45 1819.92 L1446.27 1819.92 L1446.27 1817.70 L1464.09 1817.70 L1464.09 1816.58 L1481.91 1816.58 L1481.91 1816.09 L1499.85 1816.09 L1499.85 1814.97 L1517.67 1814.97 L1517.67 1813.24 L1535.49 1813.24 L1535.49 1810.52 L1553.31 1810.52 L1553.31 1808.29 L1571.13 1808.29 L1571.13 1805.57 L1589.07 1805.57 L1589.07 1803.84 L1606.89 1803.84 L1606.89 1798.89 L1624.71 1798.89 L1624.71 1796.66 L1642.53 1796.66 L1642.53 1793.94 L1660.48 1793.94 L1660.48 1792.20 L1678.30 1792.20 L1678.30 1790.59 L1696.12 1790.59 L1696.12 1788.86 L1713.94 1788.86 L1713.94 1784.53 L1731.88 1784.53 L1731.88 1783.42 L1749.70 1783.42 L1749.70 1781.19 L1767.52 1781.19 L1767.52 1781.19" stroke-linejoin="round" style="fill:none;stroke:#55752F;stroke-width:6.48"/>
	<path d=" M428.92 1825.99 L428.92 1825.99 L428.92 1825.99 L428.92 1825.99 L428.92 1825.99 L428.92 1825.99 L428.92 1825.99 L428.92 1825.99 L428.92 1825.99 L428.92 1825.99 L428.92 1825.99 L446.74 1825.99 L446.74 1825.99 L464.56 1825.99 L464.56 1825.99 L482.50 1825.99 L482.50 1825.99 L500.32 1825.99 L500.32 1825.99 L518.14 1825.99 L518.14 1825.99 L535.96 1825.99 L535.96 1825.99 L553.78 1825.99 L553.78 1825.99 L571.73 1825.99 L571.73 1825.99 L589.54 1825.99 L589.54 1825.99 L607.37 1825.99 L607.37 1825.99 L625.18 1825.99 L625.18 1825.99 L643.13 1825.99 L643.13 1825.99 L660.95 1825.99 L660.95 1825.99 L678.77 1825.99 L678.77 1825.99 L696.59 1825.99 L696.59 1825.99 L714.53 1825.99 L714.53 1825.99 L732.35 1825.99 L732.35 1825.99 L750.17 1825.99 L750.17 1825.99 L767.99 1825.99 L767.99 1825.99 L785.81 1825.99 L785.81 1825.99 L803.76 1825.99 L803.76 1825.99 L821.58 1825.99 L821.58 1825.99 L839.40 1825.99 L839.40 1825.99 L857.22 1825.99 L857.22 1825.99 L875.16 1825.99 L875.16 1825.99 L892.98 1825.99 L892.98 1825.99 L910.80 1825.99 L910.80 1825.99 L928.62 1825.99 L928.62 1825.99 L946.44 1825.99 L946.44 1825.99 L964.38 1825.99 L964.38 1825.99 L982.20 1825.99 L982.20 1825.99 L1000.02 1825.99 L1000.02 1825.99 L1017.84 1825.99 L1017.84 1825.99 L1035.79 1825.99 L1035.79 1825.99 L1053.61 1825.99 L1053.61 1825.99 L1071.43 1825.99 L1071.43 1825.99 L1089.25 1825.99 L1089.25 1825.99 L1107.19 1825.99 L1107.19 1825.99 L1125.01 1825.99 L1125.01 1825.99 L1142.83 1825.99 L1142.83 1825.99 L1160.65 1825.99 L1160.65 1825.99 L1178.47 1825.99 L1178.47 1825.99 L1196.41 1825.99 L1196.41 1825.99 L1214.23 1825.99 L1214.23 1825.99 L1232.06 1825.99 L1232.06 1825.99 L1249.88 1825.99 L1249.88 1825.99 L1267.82 1825.99 L1267.82 1824.63 L1285.64 1824.63 L1285.64 1824.63 L1303.46 1824.63 L1303.46 1824.01 L1321.28 1824.01 L1321.28 1821.16 L1339.10 1821.16 L1339.10 1821.16 L1357.04 1821.16 L1357.04 1819.18 L1374.86 1819.18 L1374.86 1818.44 L1392.68 1818.44 L1392.68 1814.97 L1410.50 1814.97 L1410.50 1812.25 L1428.45 1812.25 L1428.45 1808.04 L1446.27 1808.04 L1446.27 1802.60 L1464.09 1802.60 L1464.09 1800.50 L1481.91 1800.50 L1481.91 1799.88 L1499.85 1799.88 L1499.85 1795.67 L1517.67 1795.67 L1517.67 1790.84 L1535.49 1790.84 L1535.49 1785.27 L1553.31 1785.27 L1553.31 1775.62 L1571.13 1775.62 L1571.13 1771.54 L1589.07 1771.54 L1589.07 1768.07 L1606.89 1768.07 L1606.89 1761.88 L1624.71 1761.88 L1624.71 1755.70 L1642.53 1755.70 L1642.53 1748.02 L1660.48 1748.02 L1660.48 1741.84 L1678.30 1741.84 L1678.30 1736.39 L1696.12 1736.39 L1696.12 1732.18 L1713.94 1732.18 L1713.94 1728.72 L1731.88 1728.72 L1731.88 1723.89 L1749.70 1723.89 L1749.70 1721.79 L1767.52 1721.79 L1767.52 1721.17" stroke-linejoin="round" style="fill:none;stroke:#E37E00;stroke-width:6.48"/>
	<path d=" M428.92 1825.99 L428.92 1825.99 L428.92 1825.99 L428.92 1825.99 L428.92 1825.99 L428.92 1825.99 L428.92 1825.99 L428.92 1825.99 L428.92 1825.99 L428.92 1825.99 L428.92 1825.99 L446.74 1825.99 L446.74 1825.99 L464.56 1825.99 L464.56 1825.99 L482.50 1825.99 L482.50 1825.99 L500.32 1825.99 L500.32 1825.99 L518.14 1825.99 L518.14 1825.99 L535.96 1825.99 L535.96 1825.99 L553.78 1825.99 L553.78 1825.99 L571.73 1825.99 L571.73 1825.99 L589.54 1825.99 L589.54 1825.99 L607.37 1825.99 L607.37 1825.99 L625.18 1825.99 L625.18 1825.99 L643.13 1825.99 L643.13 1825.99 L660.95 1825.99 L660.95 1825.99 L678.77 1825.99 L678.77 1825.99 L696.59 1825.99 L696.59 1825.99 L714.53 1825.99 L714.53 1825.99 L732.35 1825.99 L732.35 1825.99 L750.17 1825.99 L750.17 1825.99 L767.99 1825.99 L767.99 1825.99 L785.81 1825.99 L785.81 1825.99 L803.76 1825.99 L803.76 1825.99 L821.58 1825.99 L821.58 1825.99 L839.40 1825.99 L839.40 1825.99 L857.22 1825.99 L857.22 1825.99 L875.16 1825.99 L875.16 1825.99 L892.98 1825.99 L892.98 1825.99 L910.80 1825.99 L910.80 1825.99 L928.62 1825.99 L928.62 1825.99 L946.44 1825.99 L946.44 1825.99 L964.38 1825.99 L964.38 1825.99 L982.20 1825.99 L982.20 1825.25 L1000.02 1825.25 L1000.02 1825.25 L1017.84 1825.25 L1017.84 1825.25 L1035.79 1825.25 L1035.79 1825.25 L1053.61 1825.25 L1053.61 1825.25 L1071.43 1825.25 L1071.43 1825.25 L1089.25 1825.25 L1089.25 1825.25 L1107.19 1825.25 L1107.19 1825.25 L1125.01 1825.25 L1125.01 1825.25 L1142.83 1825.25 L1142.83 1825.25 L1160.65 1825.25 L1160.65 1825.25 L1178.47 1825.25 L1178.47 1825.25 L1196.41 1825.25 L1196.41 1824.38 L1214.23 1824.38 L1214.23 1824.38 L1232.06 1824.38 L1232.06 1823.64 L1249.88 1823.64 L1249.88 1823.64 L1267.82 1823.64 L1267.82 1823.64 L1285.64 1823.64 L1285.64 1821.16 L1303.46 1821.16 L1303.46 1818.69 L1321.28 1818.69 L1321.28 1815.35 L1339.10 1815.35 L1339.10 1813.74 L1357.04 1813.74 L1357.04 1810.40 L1374.86 1810.40 L1374.86 1805.57 L1392.68 1805.57 L1392.68 1801.36 L1410.50 1801.36 L1410.50 1789.98 L1428.45 1789.98 L1428.45 1784.16 L1446.27 1784.16 L1446.27 1771.04 L1464.09 1771.04 L1464.09 1759.53 L1481.91 1759.53 L1481.91 1752.23 L1499.85 1752.23 L1499.85 1743.20 L1517.67 1743.20 L1517.67 1732.43 L1535.49 1732.43 L1535.49 1717.70 L1553.31 1717.70 L1553.31 1700.50 L1571.13 1700.50 L1571.13 1678.23 L1589.07 1678.23 L1589.07 1663.50 L1606.89 1663.50 L1606.89 1646.30 L1624.71 1646.30 L1624.71 1624.89 L1642.53 1624.89 L1642.53 1607.69 L1660.48 1607.69 L1660.48 1592.96 L1678.30 1592.96 L1678.30 1575.63 L1696.12 1575.63 L1696.12 1560.04 L1713.94 1560.04 L1713.94 1551.01 L1731.88 1551.01 L1731.88 1538.76 L1749.70 1538.76 L1749.70 1527.25 L1767.52 1527.25 L1767.52 1523.91" stroke-linejoin="round" style="fill:none;stroke:#6E8E84;stroke-width:6.48"/>
	<path d=" M428.92 1825.99 L428.92 1825.99 L428.92 1825.99 L428.92 1825.99 L428.92 1825.99 L428.92 1825.99 L428.92 1825.99 L428.92 1825.99 L428.92 1825.99 L428.92 1825.99 L428.92 1825.99 L446.74 1825.99 L446.74 1825.99 L464.56 1825.99 L464.56 1825.99 L482.50 1825.99 L482.50 1825.99 L500.32 1825.99 L500.32 1825.99 L518.14 1825.99 L518.14 1825.99 L535.96 1825.99 L535.96 1825.99 L553.78 1825.99 L553.78 1825.99 L571.73 1825.99 L571.73 1825.99 L589.54 1825.99 L589.54 1825.99 L607.37 1825.99 L607.37 1825.99 L625.18 1825.99 L625.18 1825.99 L643.13 1825.99 L643.13 1825.99 L660.95 1825.99 L660.95 1825.99 L678.77 1825.99 L678.77 1825.99 L696.59 1825.99 L696.59 1825.99 L714.53 1825.99 L714.53 1825.99 L732.35 1825.99 L732.35 1825.99 L750.17 1825.99 L750.17 1825.99 L767.99 1825.99 L767.99 1825.99 L785.81 1825.99 L785.81 1825.99 L803.76 1825.99 L803.76 1825.99 L821.58 1825.99 L821.58 1825.99 L839.40 1825.99 L839.40 1825.99 L857.22 1825.99 L857.22 1825.99 L875.16 1825.99 L875.16 1825.99 L892.98 1825.99 L892.98 1825.99 L910.80 1825.99 L910.80 1824.75 L928.62 1824.75 L928.62 1824.75 L946.44 1824.75 L946.44 1823.51 L964.38 1823.51 L964.38 1822.28 L982.20 1822.28 L982.20 1822.28 L1000.02 1822.28 L1000.02 1822.28 L1017.84 1822.28 L1017.84 1822.28 L1035.79 1822.28 L1035.79 1822.28 L1053.61 1822.28 L1053.61 1822.28 L1071.43 1822.28 L1071.43 1822.28 L1089.25 1822.28 L1089.25 1822.28 L1107.19 1822.28 L1107.19 1822.28 L1125.01 1822.28 L1125.01 1822.28 L1142.83 1822.28 L1142.83 1822.28 L1160.65 1822.28 L1160.65 1821.04 L1178.47 1821.04 L1178.47 1819.80 L1196.41 1819.80 L1196.41 1818.56 L1214.23 1818.56 L1214.23 1814.73 L1232.06 1814.73 L1232.06 1811.01 L1249.88 1811.01 L1249.88 1808.54 L1267.82 1808.54 L1267.82 1806.06 L1285.64 1806.06 L1285.64 1804.70 L1303.46 1804.70 L1303.46 1798.51 L1321.28 1798.51 L1321.28 1794.68 L1339.10 1794.68 L1339.10 1784.65 L1357.04 1784.65 L1357.04 1774.63 L1374.86 1774.63 L1374.86 1767.08 L1392.68 1767.08 L1392.68 1748.27 L1410.50 1748.27 L1410.50 1724.39 L1428.45 1724.39 L1428.45 1708.05 L1446.27 1708.05 L1446.27 1670.43 L1464.09 1670.43 L1464.09 1625.14 L1481.91 1625.14 L1481.91 1601.25 L1499.85 1601.25 L1499.85 1572.42 L1517.67 1572.42 L1517.67 1527.12 L1535.49 1527.12 L1535.49 1489.38 L1553.31 1489.38 L1553.31 1436.53 L1571.13 1436.53 L1571.13 1386.29 L1589.07 1386.29 L1589.07 1346.07 L1606.89 1346.07 L1606.89 1293.23 L1624.71 1293.23 L1624.71 1221.57 L1642.53 1221.57 L1642.53 1168.73 L1660.48 1168.73 L1660.48 1114.65 L1678.30 1114.65 L1678.30 1061.93 L1696.12 1061.93 L1696.12 998.94 L1713.94 998.94 L1713.94 949.93 L1731.88 949.93 L1731.88 900.93 L1749.70 900.93 L1749.70 834.22 L1767.52 834.22 L1767.52 817.89" stroke-linejoin="round" style="fill:none;stroke:#C10534;stroke-width:6.48"/>
	<line x1="381.40" y1="1873.51" x2="381.40" y2="524.47" style="stroke:#000000;stroke-width:4.32"/>
	<line x1="381.40" y1="1825.99" x2="351.45" y2="1825.99" style="stroke:#000000;stroke-width:4.32"/>
	<text x="336.48" y="1852.27" style="font-family:'Helvetica';font-size:74.99px;fill:#000000" text-anchor="end">0.00</text>
	<line x1="381.40" y1="1407.95" x2="351.45" y2="1407.95" style="stroke:#000000;stroke-width:4.32"/>
	<text x="336.48" y="1434.23" style="font-family:'Helvetica';font-size:74.99px;fill:#000000" text-anchor="end">0.00</text>
	<line x1="381.40" y1="989.91" x2="351.45" y2="989.91" style="stroke:#000000;stroke-width:4.32"/>
	<text x="336.48" y="1016.19" style="font-family:'Helvetica';font-size:74.99px;fill:#000000" text-anchor="end">0.00</text>
	<line x1="381.40" y1="571.99" x2="351.45" y2="571.99" style="stroke:#000000;stroke-width:4.32"/>
	<text x="336.48" y="598.27" style="font-family:'Helvetica';font-size:74.99px;fill:#000000" text-anchor="end">0.00</text>
	<line x1="381.40" y1="1873.51" x2="1904.39" y2="1873.51" style="stroke:#000000;stroke-width:4.32"/>
	<line x1="428.92" y1="1873.51" x2="428.92" y2="1903.46" style="stroke:#000000;stroke-width:4.32"/>
	<text x="428.92" y="1970.87" style="font-family:'Helvetica';font-size:74.99px;fill:#000000" text-anchor="middle">0</text>
	<line x1="785.94" y1="1873.51" x2="785.94" y2="1903.46" style="stroke:#000000;stroke-width:4.32"/>
	<text x="785.94" y="1970.87" style="font-family:'Helvetica';font-size:74.99px;fill:#000000" text-anchor="middle">20</text>
	<line x1="1142.83" y1="1873.51" x2="1142.83" y2="1903.46" style="stroke:#000000;stroke-width:4.32"/>
	<text x="1142.83" y="1970.87" style="font-family:'Helvetica';font-size:74.99px;fill:#000000" text-anchor="middle">40</text>
	<line x1="1499.85" y1="1873.51" x2="1499.85" y2="1903.46" style="stroke:#000000;stroke-width:4.32"/>
	<text x="1499.85" y="1970.87" style="font-family:'Helvetica';font-size:74.99px;fill:#000000" text-anchor="middle">60</text>
	<line x1="1856.87" y1="1873.51" x2="1856.87" y2="1903.46" style="stroke:#000000;stroke-width:4.32"/>
	<text x="1856.87" y="1970.87" style="font-family:'Helvetica';font-size:74.99px;fill:#000000" text-anchor="middle">80</text>
	<text x="1142.83" y="2053.41" style="font-family:'Helvetica';font-size:74.99px;fill:#000000" text-anchor="middle">Days since 1 Feb 2020</text>
	<text x="1142.83" y="479.93" style="font-family:'Helvetica';font-size:104.94px;fill:#1E2D53" text-anchor="middle">Female</text>
	<rect x="1980.00" y="317.92" width="1916.52" height="1848.64" style="fill:#EAF2F3"/>
	<rect x="1982.16" y="320.08" width="1912.20" height="1844.32" style="fill:none;stroke:#EAF2F3;stroke-width:4.32"/>
	<rect x="2298.04" y="524.47" width="1522.87" height="1349.04" style="fill:#FFFFFF"/>
	<rect x="2300.20" y="526.63" width="1518.55" height="1344.72" style="fill:none;stroke:#FFFFFF;stroke-width:4.32"/>
	<line x1="2298.04" y1="1825.99" x2="3820.91" y2="1825.99" style="stroke:#EAF2F3;stroke-width:6.48"/>
	<line x1="2298.04" y1="1407.95" x2="3820.91" y2="1407.95" style="stroke:#EAF2F3;stroke-width:6.48"/>
	<line x1="2298.04" y1="989.91" x2="3820.91" y2="989.91" style="stroke:#EAF2F3;stroke-width:6.48"/>
	<line x1="2298.04" y1="571.99" x2="3820.91" y2="571.99" style="stroke:#EAF2F3;stroke-width:6.48"/>
	<path d=" M2345.43 1825.99 L2345.43 1825.99 L2345.43 1825.99 L2345.43 1825.99 L2345.43 1825.99 L2345.43 1825.99 L2345.43 1825.99 L2345.43 1825.99 L2345.43 1825.99 L2345.43 1825.99 L2345.43 1825.99 L2363.38 1825.99 L2363.38 1825.99 L2381.20 1825.99 L2381.20 1825.99 L2399.02 1825.99 L2399.02 1825.99 L2416.84 1825.99 L2416.84 1825.99 L2470.42 1825.99 L2470.42 1825.99 L2488.24 1825.99 L2488.24 1825.99 L2541.82 1825.99 L2541.82 1825.99 L2577.47 1825.99 L2577.47 1825.99 L2595.41 1825.99 L2595.41 1825.99 L2613.23 1825.99 L2613.23 1825.99 L2631.05 1825.99 L2631.05 1825.99 L2648.87 1825.99 L2648.87 1825.99 L2684.63 1825.99 L2684.63 1825.99 L2720.27 1825.99 L2720.27 1825.99 L2738.09 1825.99 L2738.09 1825.99 L2791.68 1825.99 L2791.68 1825.99 L2809.50 1825.99 L2809.50 1825.99 L2827.44 1825.99 L2827.44 1825.99 L2845.26 1825.99 L2845.26 1825.99 L2863.08 1825.99 L2863.08 1825.99 L2898.72 1825.99 L2898.72 1825.99 L2916.66 1825.99 L2916.66 1825.99 L2970.12 1825.99 L2970.12 1825.99 L2988.07 1825.99 L2988.07 1825.99 L3023.71 1825.99 L3023.71 1825.99 L3041.53 1825.99 L3041.53 1825.99 L3059.47 1825.99 L3059.47 1825.99 L3077.29 1825.99 L3077.29 1825.99 L3095.11 1825.99 L3095.11 1825.99 L3112.93 1825.99 L3112.93 1825.99 L3130.75 1825.99 L3130.75 1825.99 L3148.70 1825.99 L3148.70 1825.99 L3166.51 1825.99 L3166.51 1825.99 L3184.34 1825.99 L3184.34 1825.99 L3202.16 1825.99 L3202.16 1825.99 L3220.10 1825.99 L3220.10 1825.99 L3237.92 1825.99 L3237.92 1825.86 L3255.74 1825.86 L3255.74 1825.86 L3291.38 1825.86 L3291.38 1825.86 L3309.32 1825.86 L3309.32 1825.86 L3327.14 1825.86 L3327.14 1825.74 L3344.96 1825.74 L3344.96 1825.62 L3362.78 1825.62 L3362.78 1825.49 L3380.73 1825.49 L3380.73 1825.49 L3434.19 1825.49 L3434.19 1825.37 L3452.13 1825.37 L3452.13 1825.25 L3487.77 1825.25 L3487.77 1824.63 L3523.41 1824.63 L3523.41 1824.38 L3541.35 1824.38 L3541.35 1824.26 L3612.76 1824.26 L3612.76 1824.13 L3666.22 1824.13 L3666.22 1824.01 L3684.04 1824.01 L3684.04 1824.01" stroke-linejoin="round" style="fill:none;stroke:#1A476F;stroke-width:6.48"/>
	<path d=" M2345.43 1825.99 L2345.43 1825.99 L2345.43 1825.99 L2345.43 1825.99 L2345.43 1825.99 L2345.43 1825.99 L2345.43 1825.99 L2345.43 1825.99 L2345.43 1825.99 L2345.43 1825.99 L2345.43 1825.99 L2363.38 1825.99 L2363.38 1825.99 L2381.20 1825.99 L2381.20 1825.99 L2399.02 1825.99 L2399.02 1825.99 L2416.84 1825.99 L2416.84 1825.99 L2434.78 1825.99 L2434.78 1825.99 L2452.60 1825.99 L2452.60 1825.99 L2470.42 1825.99 L2470.42 1825.99 L2488.24 1825.99 L2488.24 1825.99 L2506.06 1825.99 L2506.06 1825.99 L2524.01 1825.99 L2524.01 1825.99 L2541.82 1825.99 L2541.82 1825.99 L2559.64 1825.99 L2559.64 1825.99 L2577.47 1825.99 L2577.47 1825.99 L2595.41 1825.99 L2595.41 1825.99 L2613.23 1825.99 L2613.23 1825.99 L2631.05 1825.99 L2631.05 1825.99 L2648.87 1825.99 L2648.87 1825.99 L2666.69 1825.99 L2666.69 1825.99 L2684.63 1825.99 L2684.63 1825.99 L2702.45 1825.99 L2702.45 1825.99 L2720.27 1825.99 L2720.27 1825.99 L2738.09 1825.99 L2738.09 1825.99 L2756.04 1825.99 L2756.04 1825.99 L2773.86 1825.99 L2773.86 1825.99 L2791.68 1825.99 L2791.68 1825.99 L2809.50 1825.99 L2809.50 1825.99 L2827.44 1825.99 L2827.44 1825.99 L2845.26 1825.99 L2845.26 1825.99 L2863.08 1825.99 L2863.08 1825.99 L2880.90 1825.99 L2880.90 1825.99 L2898.72 1825.99 L2898.72 1825.99 L2916.66 1825.99 L2916.66 1825.99 L2934.48 1825.99 L2934.48 1825.99 L2952.30 1825.99 L2952.30 1825.99 L2970.12 1825.99 L2970.12 1825.99 L2988.07 1825.99 L2988.07 1825.99 L3005.89 1825.99 L3005.89 1825.99 L3023.71 1825.99 L3023.71 1825.99 L3041.53 1825.99 L3041.53 1825.99 L3059.47 1825.99 L3059.47 1825.99 L3077.29 1825.99 L3077.29 1825.99 L3095.11 1825.99 L3095.11 1825.99 L3112.93 1825.99 L3112.93 1825.99 L3130.75 1825.99 L3130.75 1825.99 L3148.70 1825.99 L3148.70 1825.99 L3166.51 1825.99 L3166.51 1825.99 L3184.34 1825.99 L3184.34 1825.99 L3202.16 1825.99 L3202.16 1825.99 L3220.10 1825.99 L3220.10 1825.99 L3237.92 1825.99 L3237.92 1825.74 L3255.74 1825.74 L3255.74 1825.74 L3291.38 1825.74 L3291.38 1825.74 L3309.32 1825.74 L3309.32 1825.74 L3327.14 1825.74 L3327.14 1825.74 L3344.96 1825.74 L3344.96 1825.74 L3362.78 1825.74 L3362.78 1824.38 L3380.73 1824.38 L3380.73 1824.01 L3398.55 1824.01 L3398.55 1824.01 L3416.37 1824.01 L3416.37 1823.76 L3434.19 1823.76 L3434.19 1823.51 L3452.13 1823.51 L3452.13 1822.40 L3487.77 1822.40 L3487.77 1821.16 L3505.59 1821.16 L3505.59 1820.67 L3523.41 1820.67 L3523.41 1819.80 L3541.35 1819.80 L3541.35 1819.18 L3559.17 1819.18 L3559.17 1818.69 L3576.99 1818.69 L3576.99 1816.95 L3594.81 1816.95 L3594.81 1816.46 L3612.76 1816.46 L3612.76 1815.59 L3630.58 1815.59 L3630.58 1814.11 L3648.40 1814.11 L3648.40 1813.86 L3666.22 1813.86 L3666.22 1813.61 L3684.04 1813.61 L3684.04 1813.61" stroke-linejoin="round" style="fill:none;stroke:#90353B;stroke-width:6.48"/>
	<path d=" M2345.43 1825.99 L2345.43 1825.99 L2345.43 1825.99 L2345.43 1825.99 L2345.43 1825.99 L2345.43 1825.99 L2345.43 1825.99 L2345.43 1825.99 L2345.43 1825.99 L2345.43 1825.99 L2345.43 1825.99 L2363.38 1825.99 L2363.38 1825.99 L2381.20 1825.99 L2381.20 1825.99 L2399.02 1825.99 L2399.02 1825.99 L2416.84 1825.99 L2416.84 1825.99 L2434.78 1825.99 L2434.78 1825.99 L2452.60 1825.99 L2452.60 1825.99 L2470.42 1825.99 L2470.42 1825.99 L2488.24 1825.99 L2488.24 1825.99 L2506.06 1825.99 L2506.06 1825.99 L2524.01 1825.99 L2524.01 1825.99 L2541.82 1825.99 L2541.82 1825.99 L2559.64 1825.99 L2559.64 1825.99 L2577.47 1825.99 L2577.47 1825.99 L2595.41 1825.99 L2595.41 1825.99 L2613.23 1825.99 L2613.23 1825.99 L2631.05 1825.99 L2631.05 1825.99 L2648.87 1825.99 L2648.87 1825.99 L2666.69 1825.99 L2666.69 1825.99 L2684.63 1825.99 L2684.63 1825.99 L2702.45 1825.99 L2702.45 1825.99 L2720.27 1825.99 L2720.27 1825.99 L2738.09 1825.99 L2738.09 1825.99 L2756.04 1825.99 L2756.04 1825.99 L2773.86 1825.99 L2773.86 1825.99 L2791.68 1825.99 L2791.68 1825.99 L2809.50 1825.99 L2809.50 1825.99 L2827.44 1825.99 L2827.44 1825.99 L2845.26 1825.99 L2845.26 1825.99 L2863.08 1825.99 L2863.08 1825.99 L2880.90 1825.99 L2880.90 1825.99 L2898.72 1825.99 L2898.72 1825.74 L2916.66 1825.74 L2916.66 1825.74 L2934.48 1825.74 L2934.48 1825.74 L2952.30 1825.74 L2952.30 1825.74 L2970.12 1825.74 L2970.12 1825.74 L2988.07 1825.74 L2988.07 1825.74 L3005.89 1825.74 L3005.89 1825.74 L3023.71 1825.74 L3023.71 1825.74 L3041.53 1825.74 L3041.53 1825.49 L3059.47 1825.49 L3059.47 1825.49 L3077.29 1825.49 L3077.29 1825.49 L3095.11 1825.49 L3095.11 1825.49 L3112.93 1825.49 L3112.93 1825.49 L3130.75 1825.49 L3130.75 1825.49 L3148.70 1825.49 L3148.70 1825.49 L3166.51 1825.49 L3166.51 1825.49 L3184.34 1825.49 L3184.34 1825.49 L3202.16 1825.49 L3202.16 1825.25 L3220.10 1825.25 L3220.10 1825.00 L3237.92 1825.00 L3237.92 1824.75 L3255.74 1824.75 L3255.74 1823.64 L3273.56 1823.64 L3273.56 1823.39 L3291.38 1823.39 L3291.38 1822.77 L3309.32 1822.77 L3309.32 1822.77 L3327.14 1822.77 L3327.14 1821.78 L3344.96 1821.78 L3344.96 1820.42 L3362.78 1820.42 L3362.78 1819.55 L3380.73 1819.55 L3380.73 1817.94 L3398.55 1817.94 L3398.55 1817.20 L3416.37 1817.20 L3416.37 1815.10 L3434.19 1815.10 L3434.19 1812.87 L3452.13 1812.87 L3452.13 1811.26 L3469.95 1811.26 L3469.95 1808.54 L3487.77 1808.54 L3487.77 1807.55 L3505.59 1807.55 L3505.59 1805.69 L3523.41 1805.69 L3523.41 1803.71 L3541.35 1803.71 L3541.35 1801.36 L3559.17 1801.36 L3559.17 1799.50 L3576.99 1799.50 L3576.99 1796.53 L3594.81 1796.53 L3594.81 1794.93 L3612.76 1794.93 L3612.76 1792.20 L3630.58 1792.20 L3630.58 1790.35 L3648.40 1790.35 L3648.40 1787.13 L3666.22 1787.13 L3666.22 1785.27 L3684.04 1785.27 L3684.04 1784.78" stroke-linejoin="round" style="fill:none;stroke:#55752F;stroke-width:6.48"/>
	<path d=" M2345.43 1825.99 L2345.43 1825.99 L2345.43 1825.99 L2345.43 1825.99 L2345.43 1825.99 L2345.43 1825.99 L2345.43 1825.99 L2345.43 1825.99 L2345.43 1825.99 L2345.43 1825.99 L2345.43 1825.99 L2363.38 1825.99 L2363.38 1825.99 L2381.20 1825.99 L2381.20 1825.99 L2399.02 1825.99 L2399.02 1825.99 L2416.84 1825.99 L2416.84 1825.99 L2434.78 1825.99 L2434.78 1825.99 L2452.60 1825.99 L2452.60 1825.99 L2470.42 1825.99 L2470.42 1825.99 L2488.24 1825.99 L2488.24 1825.99 L2506.06 1825.99 L2506.06 1825.99 L2524.01 1825.99 L2524.01 1825.99 L2541.82 1825.99 L2541.82 1825.99 L2559.64 1825.99 L2559.64 1825.99 L2577.47 1825.99 L2577.47 1825.99 L2595.41 1825.99 L2595.41 1825.99 L2613.23 1825.99 L2613.23 1825.99 L2631.05 1825.99 L2631.05 1825.99 L2648.87 1825.99 L2648.87 1825.99 L2666.69 1825.99 L2666.69 1825.99 L2684.63 1825.99 L2684.63 1825.99 L2702.45 1825.99 L2702.45 1825.99 L2720.27 1825.99 L2720.27 1825.99 L2738.09 1825.99 L2738.09 1825.99 L2756.04 1825.99 L2756.04 1825.99 L2773.86 1825.99 L2773.86 1825.99 L2791.68 1825.99 L2791.68 1825.99 L2809.50 1825.99 L2809.50 1825.99 L2827.44 1825.99 L2827.44 1825.99 L2845.26 1825.99 L2845.26 1825.99 L2863.08 1825.99 L2863.08 1825.99 L2880.90 1825.99 L2880.90 1825.99 L2898.72 1825.99 L2898.72 1825.99 L2916.66 1825.99 L2916.66 1825.99 L2934.48 1825.99 L2934.48 1825.99 L2952.30 1825.99 L2952.30 1825.99 L2970.12 1825.99 L2970.12 1825.99 L2988.07 1825.99 L2988.07 1825.99 L3005.89 1825.99 L3005.89 1825.99 L3023.71 1825.99 L3023.71 1825.99 L3041.53 1825.99 L3041.53 1825.99 L3059.47 1825.99 L3059.47 1825.99 L3077.29 1825.99 L3077.29 1825.99 L3095.11 1825.99 L3095.11 1825.99 L3112.93 1825.99 L3112.93 1825.99 L3130.75 1825.99 L3130.75 1825.99 L3148.70 1825.99 L3148.70 1825.74 L3166.51 1825.74 L3166.51 1825.74 L3184.34 1825.74 L3184.34 1825.00 L3202.16 1825.00 L3202.16 1824.63 L3220.10 1824.63 L3220.10 1824.63 L3237.92 1824.63 L3237.92 1823.88 L3255.74 1823.88 L3255.74 1821.53 L3273.56 1821.53 L3273.56 1820.42 L3291.38 1820.42 L3291.38 1819.68 L3309.32 1819.68 L3309.32 1817.94 L3327.14 1817.94 L3327.14 1814.85 L3344.96 1814.85 L3344.96 1811.63 L3362.78 1811.63 L3362.78 1804.58 L3380.73 1804.58 L3380.73 1801.11 L3398.55 1801.11 L3398.55 1797.65 L3416.37 1797.65 L3416.37 1793.07 L3434.19 1793.07 L3434.19 1787.50 L3452.13 1787.50 L3452.13 1781.81 L3469.95 1781.81 L3469.95 1775.50 L3487.77 1775.50 L3487.77 1768.20 L3505.59 1768.20 L3505.59 1762.50 L3523.41 1762.50 L3523.41 1756.19 L3541.35 1756.19 L3541.35 1747.40 L3559.17 1747.40 L3559.17 1741.84 L3576.99 1741.84 L3576.99 1736.89 L3594.81 1736.89 L3594.81 1731.69 L3612.76 1731.69 L3612.76 1726.37 L3630.58 1726.37 L3630.58 1719.44 L3648.40 1719.44 L3648.40 1715.85 L3666.22 1715.85 L3666.22 1710.28 L3684.04 1710.28 L3684.04 1708.92" stroke-linejoin="round" style="fill:none;stroke:#E37E00;stroke-width:6.48"/>
	<path d=" M2345.43 1825.99 L2345.43 1825.99 L2345.43 1825.99 L2345.43 1825.99 L2345.43 1825.99 L2345.43 1825.99 L2345.43 1825.99 L2345.43 1825.99 L2345.43 1825.99 L2345.43 1825.99 L2345.43 1825.99 L2363.38 1825.99 L2363.38 1825.99 L2381.20 1825.99 L2381.20 1825.99 L2399.02 1825.99 L2399.02 1825.99 L2416.84 1825.99 L2416.84 1825.99 L2434.78 1825.99 L2434.78 1825.99 L2452.60 1825.99 L2452.60 1825.99 L2470.42 1825.99 L2470.42 1825.99 L2488.24 1825.99 L2488.24 1825.99 L2506.06 1825.99 L2506.06 1825.99 L2524.01 1825.99 L2524.01 1825.99 L2541.82 1825.99 L2541.82 1825.99 L2559.64 1825.99 L2559.64 1825.99 L2577.47 1825.99 L2577.47 1825.99 L2595.41 1825.99 L2595.41 1825.99 L2613.23 1825.99 L2613.23 1825.99 L2631.05 1825.99 L2631.05 1825.99 L2648.87 1825.99 L2648.87 1825.99 L2666.69 1825.99 L2666.69 1825.99 L2684.63 1825.99 L2684.63 1825.99 L2702.45 1825.99 L2702.45 1825.99 L2720.27 1825.99 L2720.27 1825.99 L2738.09 1825.99 L2738.09 1825.99 L2756.04 1825.99 L2756.04 1825.99 L2773.86 1825.99 L2773.86 1825.99 L2791.68 1825.99 L2791.68 1825.99 L2809.50 1825.99 L2809.50 1825.99 L2827.44 1825.99 L2827.44 1825.99 L2845.26 1825.99 L2845.26 1825.99 L2863.08 1825.99 L2863.08 1825.99 L2880.90 1825.99 L2880.90 1825.99 L2898.72 1825.99 L2898.72 1825.99 L2916.66 1825.99 L2916.66 1825.99 L2934.48 1825.99 L2934.48 1825.99 L2952.30 1825.99 L2952.30 1825.99 L2970.12 1825.99 L2970.12 1825.99 L2988.07 1825.99 L2988.07 1825.99 L3005.89 1825.99 L3005.89 1825.99 L3023.71 1825.99 L3023.71 1825.99 L3041.53 1825.99 L3041.53 1825.99 L3059.47 1825.99 L3059.47 1825.99 L3077.29 1825.99 L3077.29 1825.99 L3095.11 1825.99 L3095.11 1825.99 L3112.93 1825.99 L3112.93 1825.99 L3130.75 1825.99 L3130.75 1824.63 L3148.70 1824.63 L3148.70 1824.26 L3166.51 1824.26 L3166.51 1822.03 L3184.34 1822.03 L3184.34 1821.04 L3202.16 1821.04 L3202.16 1818.81 L3220.10 1818.81 L3220.10 1817.94 L3237.92 1817.94 L3237.92 1815.22 L3255.74 1815.22 L3255.74 1810.77 L3273.56 1810.77 L3273.56 1805.32 L3291.38 1805.32 L3291.38 1798.51 L3309.32 1798.51 L3309.32 1792.20 L3327.14 1792.20 L3327.14 1783.66 L3344.96 1783.66 L3344.96 1770.55 L3362.78 1770.55 L3362.78 1757.92 L3380.73 1757.92 L3380.73 1740.85 L3398.55 1740.85 L3398.55 1732.31 L3416.37 1732.31 L3416.37 1712.88 L3434.19 1712.88 L3434.19 1699.39 L3452.13 1699.39 L3452.13 1684.91 L3469.95 1684.91 L3469.95 1668.70 L3487.77 1668.70 L3487.77 1652.86 L3505.59 1652.86 L3505.59 1636.64 L3523.41 1636.64 L3523.41 1612.76 L3541.35 1612.76 L3541.35 1591.60 L3559.17 1591.60 L3559.17 1574.03 L3576.99 1574.03 L3576.99 1560.41 L3594.81 1560.41 L3594.81 1540.12 L3612.76 1540.12 L3612.76 1523.04 L3630.58 1523.04 L3630.58 1509.92 L3648.40 1509.92 L3648.40 1495.57 L3666.22 1495.57 L3666.22 1484.18 L3684.04 1484.18 L3684.04 1480.22" stroke-linejoin="round" style="fill:none;stroke:#6E8E84;stroke-width:6.48"/>
	<path d=" M2345.43 1825.99 L2345.43 1825.99 L2345.43 1825.99 L2345.43 1825.99 L2345.43 1825.99 L2345.43 1825.99 L2345.43 1825.99 L2345.43 1825.99 L2345.43 1825.99 L2345.43 1825.99 L2345.43 1825.99 L2363.38 1825.99 L2363.38 1825.99 L2381.20 1825.99 L2381.20 1825.99 L2399.02 1825.99 L2399.02 1825.99 L2416.84 1825.99 L2416.84 1825.99 L2434.78 1825.99 L2434.78 1825.99 L2452.60 1825.99 L2452.60 1825.99 L2470.42 1825.99 L2470.42 1825.99 L2488.24 1825.99 L2488.24 1825.99 L2506.06 1825.99 L2506.06 1825.99 L2524.01 1825.99 L2524.01 1825.99 L2541.82 1825.99 L2541.82 1825.99 L2559.64 1825.99 L2559.64 1825.99 L2577.47 1825.99 L2577.47 1825.99 L2595.41 1825.99 L2595.41 1825.99 L2613.23 1825.99 L2613.23 1825.99 L2631.05 1825.99 L2631.05 1825.99 L2648.87 1825.99 L2648.87 1825.99 L2666.69 1825.99 L2666.69 1825.99 L2684.63 1825.99 L2684.63 1825.99 L2702.45 1825.99 L2702.45 1825.99 L2720.27 1825.99 L2720.27 1825.99 L2738.09 1825.99 L2738.09 1825.99 L2756.04 1825.99 L2756.04 1825.99 L2773.86 1825.99 L2773.86 1825.99 L2791.68 1825.99 L2791.68 1825.99 L2809.50 1825.99 L2809.50 1825.99 L2827.44 1825.99 L2827.44 1825.99 L2845.26 1825.99 L2845.26 1825.99 L2863.08 1825.99 L2863.08 1825.99 L2880.90 1825.99 L2880.90 1825.99 L2898.72 1825.99 L2898.72 1825.99 L2916.66 1825.99 L2916.66 1825.12 L2934.48 1825.12 L2934.48 1824.26 L2952.30 1824.26 L2952.30 1824.26 L2970.12 1824.26 L2970.12 1824.26 L2988.07 1824.26 L2988.07 1824.26 L3005.89 1824.26 L3005.89 1824.26 L3023.71 1824.26 L3023.71 1824.26 L3041.53 1824.26 L3041.53 1824.26 L3059.47 1824.26 L3059.47 1824.26 L3077.29 1824.26 L3077.29 1823.39 L3095.11 1823.39 L3095.11 1820.67 L3112.93 1820.67 L3112.93 1819.80 L3130.75 1819.80 L3130.75 1818.07 L3148.70 1818.07 L3148.70 1816.21 L3166.51 1816.21 L3166.51 1810.02 L3184.34 1810.02 L3184.34 1807.30 L3202.16 1807.30 L3202.16 1802.85 L3220.10 1802.85 L3220.10 1794.80 L3237.92 1794.80 L3237.92 1784.90 L3255.74 1784.90 L3255.74 1779.58 L3273.56 1779.58 L3273.56 1765.35 L3291.38 1765.35 L3291.38 1750.13 L3309.32 1750.13 L3309.32 1721.42 L3327.14 1721.42 L3327.14 1700.87 L3344.96 1700.87 L3344.96 1675.75 L3362.78 1675.75 L3362.78 1627.49 L3380.73 1627.49 L3380.73 1571.92 L3398.55 1571.92 L3398.55 1550.39 L3416.37 1550.39 L3416.37 1506.58 L3434.19 1506.58 L3434.19 1469.82 L3452.13 1469.82 L3452.13 1416.98 L3469.95 1416.98 L3469.95 1348.79 L3487.77 1348.79 L3487.77 1288.77 L3505.59 1288.77 L3505.59 1213.53 L3523.41 1213.53 L3523.41 1168.73 L3541.35 1168.73 L3541.35 1100.54 L3559.17 1100.54 L3559.17 1044.11 L3576.99 1044.11 L3576.99 983.22 L3594.81 983.22 L3594.81 923.08 L3612.76 923.08 L3612.76 868.50 L3630.58 868.50 L3630.58 822.72 L3648.40 822.72 L3648.40 784.23 L3666.22 784.23 L3666.22 742.15 L3684.04 742.15 L3684.04 727.80" stroke-linejoin="round" style="fill:none;stroke:#C10534;stroke-width:6.48"/>
	<line x1="2298.04" y1="1873.51" x2="2298.04" y2="524.47" style="stroke:#000000;stroke-width:4.32"/>
	<line x1="2298.04" y1="1825.99" x2="2267.97" y2="1825.99" style="stroke:#000000;stroke-width:4.32"/>
	<text x="2252.99" y="1852.27" style="font-family:'Helvetica';font-size:74.99px;fill:#000000" text-anchor="end">0.00</text>
	<line x1="2298.04" y1="1407.95" x2="2267.97" y2="1407.95" style="stroke:#000000;stroke-width:4.32"/>
	<text x="2252.99" y="1434.23" style="font-family:'Helvetica';font-size:74.99px;fill:#000000" text-anchor="end">0.00</text>
	<line x1="2298.04" y1="989.91" x2="2267.97" y2="989.91" style="stroke:#000000;stroke-width:4.32"/>
	<text x="2252.99" y="1016.19" style="font-family:'Helvetica';font-size:74.99px;fill:#000000" text-anchor="end">0.00</text>
	<line x1="2298.04" y1="571.99" x2="2267.97" y2="571.99" style="stroke:#000000;stroke-width:4.32"/>
	<text x="2252.99" y="598.27" style="font-family:'Helvetica';font-size:74.99px;fill:#000000" text-anchor="end">0.00</text>
	<line x1="2298.04" y1="1873.51" x2="3820.91" y2="1873.51" style="stroke:#000000;stroke-width:4.32"/>
	<line x1="2345.56" y1="1873.51" x2="2345.56" y2="1903.46" style="stroke:#000000;stroke-width:4.32"/>
	<text x="2345.56" y="1970.87" style="font-family:'Helvetica';font-size:74.99px;fill:#000000" text-anchor="middle">0</text>
	<line x1="2702.45" y1="1873.51" x2="2702.45" y2="1903.46" style="stroke:#000000;stroke-width:4.32"/>
	<text x="2702.45" y="1970.87" style="font-family:'Helvetica';font-size:74.99px;fill:#000000" text-anchor="middle">20</text>
	<line x1="3059.47" y1="1873.51" x2="3059.47" y2="1903.46" style="stroke:#000000;stroke-width:4.32"/>
	<text x="3059.47" y="1970.87" style="font-family:'Helvetica';font-size:74.99px;fill:#000000" text-anchor="middle">40</text>
	<line x1="3416.49" y1="1873.51" x2="3416.49" y2="1903.46" style="stroke:#000000;stroke-width:4.32"/>
	<text x="3416.49" y="1970.87" style="font-family:'Helvetica';font-size:74.99px;fill:#000000" text-anchor="middle">60</text>
	<line x1="3773.39" y1="1873.51" x2="3773.39" y2="1903.46" style="stroke:#000000;stroke-width:4.32"/>
	<text x="3773.39" y="1970.87" style="font-family:'Helvetica';font-size:74.99px;fill:#000000" text-anchor="middle">80</text>
	<text x="3059.47" y="2053.41" style="font-family:'Helvetica';font-size:74.99px;fill:#000000" text-anchor="middle">Days since 1 Feb 2020</text>
	<text x="3059.47" y="479.93" style="font-family:'Helvetica';font-size:104.94px;fill:#1E2D53" text-anchor="middle">Male</text>
	<text x="1980.00" y="157.51" style="font-family:'Helvetica';font-size:110.01px;fill:#000000" text-anchor="middle">CPNS Covid-19 death</text>
	<text x="1980.00" y="267.53" style="font-family:'Helvetica';font-size:110.01px;fill:#000000" text-anchor="middle">'</text>
	<rect x="1168.82" y="2201.21" width="1622.24" height="580.90" style="fill:#FFFFFF"/>
	<rect x="1171.70" y="2204.09" width="1616.48" height="575.14" style="fill:none;stroke:#000000;stroke-width:5.76"/>
	<line x1="1212.01" y1="2408.87" x2="1586.35" y2="2408.87" style="stroke:#1A476F;stroke-width:8.64"/>
	<line x1="2049.92" y1="2408.87" x2="2424.26" y2="2408.87" style="stroke:#90353B;stroke-width:8.64"/>
	<line x1="1212.01" y1="2548.83" x2="1586.35" y2="2548.83" style="stroke:#55752F;stroke-width:8.64"/>
	<line x1="2049.92" y1="2548.83" x2="2424.26" y2="2548.83" style="stroke:#E37E00;stroke-width:8.64"/>
	<line x1="1212.01" y1="2688.92" x2="1586.35" y2="2688.92" style="stroke:#6E8E84;stroke-width:8.64"/>
	<line x1="2049.92" y1="2688.92" x2="2424.26" y2="2688.92" style="stroke:#C10534;stroke-width:8.64"/>
	<text x="1646.37" y="2436.88" style="font-family:'Helvetica';font-size:79.94px;fill:#000000">18-&lt;40</text>
	<text x="2484.28" y="2436.88" style="font-family:'Helvetica';font-size:79.94px;fill:#000000">40-&lt;50</text>
	<text x="1646.37" y="2576.85" style="font-family:'Helvetica';font-size:79.94px;fill:#000000">50-&lt;60</text>
	<text x="2484.28" y="2576.85" style="font-family:'Helvetica';font-size:79.94px;fill:#000000">60-&lt;70</text>
	<text x="1646.37" y="2716.94" style="font-family:'Helvetica';font-size:79.94px;fill:#000000">70-&lt;80</text>
	<text x="2484.28" y="2716.94" style="font-family:'Helvetica';font-size:79.94px;fill:#000000">80+</text>
	<text x="1980.00" y="2308.96" style="font-family:'Helvetica';font-size:79.94px;fill:#000000" text-anchor="middle">Age group</text>
</svg>
