<?xml version="1.0" encoding="UTF-8" standalone="no"?>
<!-- This is a Stata 16.1 generated SVG file (http://www.stata.com) -->

<svg version="1.1" width="5.50in" height="4.00in" viewBox="0 0 3960 2880" xmlns="http://www.w3.org/2000/svg" xmlns:xlink="http://www.w3.org/1999/xlink">
	<desc>Stata Graph - Graph</desc>
	<rect x="0" y="0" width="3960" height="2880" style="fill:#EAF2F3;stroke:none"/>
	<rect x="0.00" y="0.00" width="3959.88" height="2880.00" style="fill:#EAF2F3"/>
	<rect x="2.88" y="2.88" width="3954.12" height="2874.24" style="fill:none;stroke:#EAF2F3;stroke-width:5.76"/>
	<rect x="63.36" y="317.92" width="1916.64" height="1848.64" style="fill:#EAF2F3"/>
	<rect x="65.52" y="320.08" width="1912.32" height="1844.32" style="fill:none;stroke:#EAF2F3;stroke-width:4.32"/>
	<rect x="381.40" y="524.47" width="1522.99" height="1349.04" style="fill:#FFFFFF"/>
	<rect x="383.56" y="526.63" width="1518.67" height="1344.72" style="fill:none;stroke:#FFFFFF;stroke-width:4.32"/>
	<line x1="381.40" y1="1825.99" x2="1904.39" y2="1825.99" style="stroke:#EAF2F3;stroke-width:6.48"/>
	<line x1="381.40" y1="1198.93" x2="1904.39" y2="1198.93" style="stroke:#EAF2F3;stroke-width:6.48"/>
	<line x1="381.40" y1="571.99" x2="1904.39" y2="571.99" style="stroke:#EAF2F3;stroke-width:6.48"/>
	<path d=" M428.92 1825.99 L428.92 1825.99 L428.92 1825.99 L428.92 1825.99 L428.92 1825.99 L428.92 1825.99 L428.92 1825.99 L428.92 1825.99 L428.92 1825.99 L428.92 1825.99 L428.92 1825.99 L450.82 1825.99 L450.82 1825.99 L494.75 1825.99 L494.75 1825.99 L538.68 1825.99 L538.68 1825.99 L560.71 1825.99 L560.71 1825.99 L604.64 1825.99 L604.64 1825.99 L626.55 1825.99 L626.55 1825.99 L648.57 1825.99 L648.57 1825.99 L670.48 1825.99 L670.48 1825.99 L692.50 1825.99 L692.50 1825.99 L714.53 1825.99 L714.53 1825.99 L736.44 1825.99 L736.44 1825.99 L758.46 1825.99 L758.46 1825.99 L802.39 1825.99 L802.39 1825.99 L824.30 1825.99 L824.30 1825.99 L868.23 1825.99 L868.23 1825.99 L890.26 1825.99 L890.26 1825.99 L912.16 1825.99 L912.16 1825.99 L956.09 1825.99 L956.09 1825.99 L1000.02 1825.99 L1000.02 1825.99 L1087.89 1825.99 L1087.89 1825.99 L1109.91 1825.99 L1109.91 1825.99 L1153.85 1825.99 L1153.85 1825.99 L1175.75 1825.99 L1175.75 1825.99 L1219.68 1825.99 L1219.68 1825.99 L1263.61 1825.99 L1263.61 1825.99 L1285.64 1825.99 L1285.64 1825.99 L1307.54 1825.99 L1307.54 1825.99 L1329.57 1825.99 L1329.57 1825.99 L1351.47 1825.99 L1351.47 1825.99 L1373.50 1825.99 L1373.50 1825.99 L1395.40 1825.99 L1395.40 1825.99 L1417.43 1825.99 L1417.43 1825.99 L1439.34 1825.99 L1439.34 1825.99 L1461.36 1825.99 L1461.36 1825.99 L1483.27 1825.99 L1483.27 1825.99 L1527.20 1825.99 L1527.20 1825.99 L1571.13 1825.99 L1571.13 1825.99 L1593.16 1825.99 L1593.16 1825.99 L1615.06 1825.99 L1615.06 1825.99 L1637.09 1825.99 L1637.09 1825.99 L1724.95 1825.99 L1724.95 1825.99 L1768.88 1825.99 L1768.88 1825.99 L1856.74 1825.99 L1856.74 1825.99" stroke-linejoin="round" style="fill:none;stroke:#1A476F;stroke-width:6.48"/>
	<path d=" M428.92 1825.99 L428.92 1825.99 L428.92 1825.99 L428.92 1825.99 L428.92 1825.99 L428.92 1825.99 L428.92 1825.99 L428.92 1825.99 L428.92 1825.99 L428.92 1825.99 L428.92 1825.99 L450.82 1825.99 L450.82 1825.99 L472.85 1825.99 L472.85 1825.99 L494.75 1825.99 L494.75 1825.99 L516.78 1825.99 L516.78 1825.99 L538.68 1825.99 L538.68 1825.99 L560.71 1825.99 L560.71 1825.99 L582.62 1825.99 L582.62 1825.99 L604.64 1825.99 L604.64 1825.99 L626.55 1825.99 L626.55 1825.99 L648.57 1825.99 L648.57 1825.99 L670.48 1825.99 L670.48 1825.99 L692.50 1825.99 L692.50 1825.99 L714.53 1825.99 L714.53 1825.99 L736.44 1825.99 L736.44 1825.99 L758.46 1825.99 L758.46 1825.99 L780.37 1825.99 L780.37 1825.99 L802.39 1825.99 L802.39 1825.99 L824.30 1825.99 L824.30 1825.99 L846.33 1825.99 L846.33 1825.99 L868.23 1825.99 L868.23 1825.99 L890.26 1825.99 L890.26 1825.99 L912.16 1825.99 L912.16 1825.99 L934.19 1825.99 L934.19 1825.99 L956.09 1825.99 L956.09 1825.99 L978.12 1825.99 L978.12 1825.99 L1000.02 1825.99 L1000.02 1825.99 L1022.05 1825.99 L1022.05 1825.99 L1043.95 1825.99 L1043.95 1825.99 L1065.98 1825.99 L1065.98 1825.99 L1087.89 1825.99 L1087.89 1825.99 L1109.91 1825.99 L1109.91 1825.99 L1131.82 1825.99 L1131.82 1825.99 L1153.85 1825.99 L1153.85 1825.99 L1175.75 1825.99 L1175.75 1825.99 L1197.78 1825.99 L1197.78 1825.99 L1219.68 1825.99 L1219.68 1825.99 L1241.71 1825.99 L1241.71 1825.99 L1263.61 1825.99 L1263.61 1825.99 L1285.64 1825.99 L1285.64 1825.99 L1307.54 1825.99 L1307.54 1825.99 L1329.57 1825.99 L1329.57 1825.99 L1351.47 1825.99 L1351.47 1825.99 L1373.50 1825.99 L1373.50 1825.99 L1395.40 1825.99 L1395.40 1825.99 L1417.43 1825.99 L1417.43 1825.99 L1439.34 1825.99 L1439.34 1825.99 L1461.36 1825.99 L1461.36 1825.99 L1483.27 1825.99 L1483.27 1825.99 L1505.30 1825.99 L1505.30 1825.99 L1527.20 1825.99 L1527.20 1823.76 L1549.23 1823.76 L1549.23 1821.53 L1571.13 1821.53 L1571.13 1821.53 L1593.16 1821.53 L1593.16 1821.53 L1615.06 1821.53 L1615.06 1821.53 L1637.09 1821.53 L1637.09 1821.53 L1659.12 1821.53 L1659.12 1821.53 L1681.02 1821.53 L1681.02 1817.08 L1703.05 1817.08 L1703.05 1817.08 L1746.98 1817.08 L1746.98 1814.85 L1790.91 1814.85 L1790.91 1810.27 L1856.74 1810.27 L1856.74 1810.27" stroke-linejoin="round" style="fill:none;stroke:#90353B;stroke-width:6.48"/>
	<path d=" M428.92 1825.99 L428.92 1825.99 L428.92 1825.99 L428.92 1825.99 L428.92 1825.99 L428.92 1825.99 L428.92 1825.99 L428.92 1825.99 L428.92 1825.99 L428.92 1825.99 L428.92 1825.99 L450.82 1825.99 L450.82 1825.99 L472.85 1825.99 L472.85 1825.99 L494.75 1825.99 L494.75 1825.99 L516.78 1825.99 L516.78 1825.99 L538.68 1825.99 L538.68 1825.99 L560.71 1825.99 L560.71 1825.99 L582.62 1825.99 L582.62 1825.99 L604.64 1825.99 L604.64 1825.99 L626.55 1825.99 L626.55 1825.99 L648.57 1825.99 L648.57 1825.99 L670.48 1825.99 L670.48 1825.99 L692.50 1825.99 L692.50 1825.99 L714.53 1825.99 L714.53 1825.99 L736.44 1825.99 L736.44 1825.99 L758.46 1825.99 L758.46 1825.99 L780.37 1825.99 L780.37 1825.99 L802.39 1825.99 L802.39 1825.99 L824.30 1825.99 L824.30 1825.99 L846.33 1825.99 L846.33 1825.99 L868.23 1825.99 L868.23 1825.99 L890.26 1825.99 L890.26 1825.99 L912.16 1825.99 L912.16 1825.99 L934.19 1825.99 L934.19 1825.99 L956.09 1825.99 L956.09 1825.99 L978.12 1825.99 L978.12 1825.99 L1000.02 1825.99 L1000.02 1825.99 L1022.05 1825.99 L1022.05 1825.99 L1043.95 1825.99 L1043.95 1825.99 L1065.98 1825.99 L1065.98 1825.99 L1087.89 1825.99 L1087.89 1825.99 L1109.91 1825.99 L1109.91 1825.99 L1131.82 1825.99 L1131.82 1825.99 L1153.85 1825.99 L1153.85 1825.99 L1175.75 1825.99 L1175.75 1825.99 L1197.78 1825.99 L1197.78 1825.99 L1219.68 1825.99 L1219.68 1825.99 L1241.71 1825.99 L1241.71 1825.99 L1263.61 1825.99 L1263.61 1825.99 L1285.64 1825.99 L1285.64 1825.99 L1307.54 1825.99 L1307.54 1825.99 L1329.57 1825.99 L1329.57 1825.99 L1351.47 1825.99 L1351.47 1825.99 L1373.50 1825.99 L1373.50 1825.99 L1395.40 1825.99 L1395.40 1825.99 L1417.43 1825.99 L1417.43 1825.99 L1439.34 1825.99 L1439.34 1825.99 L1461.36 1825.99 L1461.36 1824.01 L1483.27 1824.01 L1483.27 1819.80 L1505.30 1819.80 L1505.30 1819.80 L1527.20 1819.80 L1527.20 1819.80 L1549.23 1819.80 L1549.23 1817.70 L1571.13 1817.70 L1571.13 1815.59 L1593.16 1815.59 L1593.16 1815.59 L1615.06 1815.59 L1615.06 1811.51 L1637.09 1811.51 L1637.09 1807.30 L1659.12 1807.30 L1659.12 1803.22 L1681.02 1803.22 L1681.02 1796.91 L1703.05 1796.91 L1703.05 1792.82 L1724.95 1792.82 L1724.95 1790.72 L1746.98 1790.72 L1746.98 1788.61 L1768.88 1788.61 L1768.88 1786.51 L1790.91 1786.51 L1790.91 1786.51 L1812.81 1786.51 L1812.81 1786.51 L1856.74 1786.51 L1856.74 1786.51" stroke-linejoin="round" style="fill:none;stroke:#55752F;stroke-width:6.48"/>
	<path d=" M428.92 1825.99 L428.92 1825.99 L428.92 1825.99 L428.92 1825.99 L428.92 1825.99 L428.92 1825.99 L428.92 1825.99 L428.92 1825.99 L428.92 1825.99 L428.92 1825.99 L428.92 1825.99 L450.82 1825.99 L450.82 1825.99 L472.85 1825.99 L472.85 1825.99 L494.75 1825.99 L494.75 1825.99 L516.78 1825.99 L516.78 1825.99 L538.68 1825.99 L538.68 1825.99 L560.71 1825.99 L560.71 1825.99 L582.62 1825.99 L582.62 1825.99 L604.64 1825.99 L604.64 1825.99 L626.55 1825.99 L626.55 1825.99 L648.57 1825.99 L648.57 1825.99 L670.48 1825.99 L670.48 1825.99 L692.50 1825.99 L692.50 1825.99 L714.53 1825.99 L714.53 1825.99 L736.44 1825.99 L736.44 1825.99 L758.46 1825.99 L758.46 1825.99 L780.37 1825.99 L780.37 1825.99 L802.39 1825.99 L802.39 1825.99 L824.30 1825.99 L824.30 1825.99 L846.33 1825.99 L846.33 1825.99 L868.23 1825.99 L868.23 1825.99 L890.26 1825.99 L890.26 1825.99 L912.16 1825.99 L912.16 1825.99 L934.19 1825.99 L934.19 1825.99 L956.09 1825.99 L956.09 1825.99 L978.12 1825.99 L978.12 1825.99 L1000.02 1825.99 L1000.02 1825.99 L1022.05 1825.99 L1022.05 1825.99 L1043.95 1825.99 L1043.95 1825.99 L1065.98 1825.99 L1065.98 1825.99 L1087.89 1825.99 L1087.89 1825.99 L1109.91 1825.99 L1109.91 1825.99 L1131.82 1825.99 L1131.82 1825.99 L1153.85 1825.99 L1153.85 1825.99 L1175.75 1825.99 L1175.75 1825.99 L1197.78 1825.99 L1197.78 1825.99 L1219.68 1825.99 L1219.68 1825.99 L1241.71 1825.99 L1241.71 1825.99 L1263.61 1825.99 L1263.61 1825.99 L1285.64 1825.99 L1285.64 1823.39 L1307.54 1823.39 L1307.54 1823.39 L1329.57 1823.39 L1329.57 1823.39 L1351.47 1823.39 L1351.47 1823.39 L1373.50 1823.39 L1373.50 1823.39 L1395.40 1823.39 L1395.40 1820.91 L1417.43 1820.91 L1417.43 1818.32 L1439.34 1818.32 L1439.34 1818.32 L1461.36 1818.32 L1461.36 1815.72 L1483.27 1815.72 L1483.27 1815.72 L1505.30 1815.72 L1505.30 1813.12 L1527.20 1813.12 L1527.20 1805.32 L1549.23 1805.32 L1549.23 1805.32 L1571.13 1805.32 L1571.13 1795.05 L1593.16 1795.05 L1593.16 1789.85 L1615.06 1789.85 L1615.06 1769.06 L1637.09 1769.06 L1637.09 1766.59 L1659.12 1766.59 L1659.12 1750.99 L1681.02 1750.99 L1681.02 1743.20 L1703.05 1743.20 L1703.05 1735.52 L1724.95 1735.52 L1724.95 1730.33 L1746.98 1730.33 L1746.98 1725.13 L1768.88 1725.13 L1768.88 1712.13 L1790.91 1712.13 L1790.91 1712.13 L1834.84 1712.13 L1834.84 1709.66 L1856.74 1709.66 L1856.74 1709.66" stroke-linejoin="round" style="fill:none;stroke:#E37E00;stroke-width:6.48"/>
	<path d=" M428.92 1825.99 L428.92 1825.99 L428.92 1825.99 L428.92 1825.99 L428.92 1825.99 L428.92 1825.99 L428.92 1825.99 L428.92 1825.99 L428.92 1825.99 L428.92 1825.99 L428.92 1825.99 L450.82 1825.99 L450.82 1825.99 L472.85 1825.99 L472.85 1825.99 L494.75 1825.99 L494.75 1825.99 L516.78 1825.99 L516.78 1825.99 L538.68 1825.99 L538.68 1825.99 L560.71 1825.99 L560.71 1825.99 L582.62 1825.99 L582.62 1825.99 L604.64 1825.99 L604.64 1825.99 L626.55 1825.99 L626.55 1825.99 L648.57 1825.99 L648.57 1825.99 L670.48 1825.99 L670.48 1825.99 L692.50 1825.99 L692.50 1825.99 L714.53 1825.99 L714.53 1825.99 L736.44 1825.99 L736.44 1825.99 L758.46 1825.99 L758.46 1825.99 L780.37 1825.99 L780.37 1825.99 L802.39 1825.99 L802.39 1825.99 L824.30 1825.99 L824.30 1825.99 L846.33 1825.99 L846.33 1825.99 L868.23 1825.99 L868.23 1825.99 L890.26 1825.99 L890.26 1825.99 L912.16 1825.99 L912.16 1825.99 L934.19 1825.99 L934.19 1825.99 L956.09 1825.99 L956.09 1825.99 L978.12 1825.99 L978.12 1825.99 L1000.02 1825.99 L1000.02 1825.99 L1022.05 1825.99 L1022.05 1825.99 L1043.95 1825.99 L1043.95 1825.99 L1065.98 1825.99 L1065.98 1825.99 L1087.89 1825.99 L1087.89 1825.99 L1109.91 1825.99 L1109.91 1825.99 L1131.82 1825.99 L1131.82 1825.99 L1153.85 1825.99 L1153.85 1825.99 L1175.75 1825.99 L1175.75 1825.99 L1197.78 1825.99 L1197.78 1825.99 L1219.68 1825.99 L1219.68 1825.99 L1241.71 1825.99 L1241.71 1825.99 L1263.61 1825.99 L1263.61 1825.99 L1285.64 1825.99 L1285.64 1825.99 L1307.54 1825.99 L1307.54 1825.99 L1329.57 1825.99 L1329.57 1825.99 L1351.47 1825.99 L1351.47 1825.99 L1373.50 1825.99 L1373.50 1823.02 L1395.40 1823.02 L1395.40 1823.02 L1417.43 1823.02 L1417.43 1819.92 L1439.34 1819.92 L1439.34 1819.92 L1461.36 1819.92 L1461.36 1819.92 L1483.27 1819.92 L1483.27 1813.74 L1505.30 1813.74 L1505.30 1804.46 L1527.20 1804.46 L1527.20 1789.11 L1549.23 1789.11 L1549.23 1779.83 L1571.13 1779.83 L1571.13 1767.58 L1593.16 1767.58 L1593.16 1736.76 L1615.06 1736.76 L1615.06 1721.42 L1637.09 1721.42 L1637.09 1669.07 L1659.12 1669.07 L1659.12 1644.44 L1681.02 1644.44 L1681.02 1619.81 L1703.05 1619.81 L1703.05 1582.94 L1724.95 1582.94 L1724.95 1542.84 L1746.98 1542.84 L1746.98 1502.87 L1768.88 1502.87 L1768.88 1478.24 L1790.91 1478.24 L1790.91 1472.05 L1812.81 1472.05 L1812.81 1468.96 L1834.84 1468.96 L1834.84 1462.89 L1856.74 1462.89 L1856.74 1462.89" stroke-linejoin="round" style="fill:none;stroke:#6E8E84;stroke-width:6.48"/>
	<path d=" M428.92 1825.99 L428.92 1825.99 L428.92 1825.99 L428.92 1825.99 L428.92 1825.99 L428.92 1825.99 L428.92 1825.99 L428.92 1825.99 L428.92 1825.99 L428.92 1825.99 L428.92 1825.99 L450.82 1825.99 L450.82 1825.99 L472.85 1825.99 L472.85 1825.99 L494.75 1825.99 L494.75 1825.99 L516.78 1825.99 L516.78 1825.99 L538.68 1825.99 L538.68 1825.99 L560.71 1825.99 L560.71 1825.99 L582.62 1825.99 L582.62 1825.99 L604.64 1825.99 L604.64 1825.99 L626.55 1825.99 L626.55 1825.99 L648.57 1825.99 L648.57 1825.99 L670.48 1825.99 L670.48 1825.99 L692.50 1825.99 L692.50 1825.99 L714.53 1825.99 L714.53 1825.99 L736.44 1825.99 L736.44 1825.99 L758.46 1825.99 L758.46 1825.99 L780.37 1825.99 L780.37 1825.99 L802.39 1825.99 L802.39 1825.99 L824.30 1825.99 L824.30 1825.99 L846.33 1825.99 L846.33 1825.99 L868.23 1825.99 L868.23 1825.99 L890.26 1825.99 L890.26 1825.99 L912.16 1825.99 L912.16 1825.99 L934.19 1825.99 L934.19 1825.99 L956.09 1825.99 L956.09 1825.99 L978.12 1825.99 L978.12 1825.99 L1000.02 1825.99 L1000.02 1825.99 L1022.05 1825.99 L1022.05 1825.99 L1043.95 1825.99 L1043.95 1825.99 L1065.98 1825.99 L1065.98 1825.99 L1087.89 1825.99 L1087.89 1821.41 L1109.91 1821.41 L1109.91 1821.41 L1131.82 1821.41 L1131.82 1821.41 L1153.85 1821.41 L1153.85 1821.41 L1175.75 1821.41 L1175.75 1821.41 L1197.78 1821.41 L1197.78 1821.41 L1219.68 1821.41 L1219.68 1821.41 L1241.71 1821.41 L1241.71 1821.41 L1263.61 1821.41 L1263.61 1821.41 L1285.64 1821.41 L1285.64 1821.41 L1307.54 1821.41 L1307.54 1821.41 L1329.57 1821.41 L1329.57 1821.41 L1351.47 1821.41 L1351.47 1816.71 L1373.50 1816.71 L1373.50 1812.00 L1395.40 1812.00 L1395.40 1802.60 L1417.43 1802.60 L1417.43 1788.49 L1439.34 1788.49 L1439.34 1769.68 L1461.36 1769.68 L1461.36 1755.57 L1483.27 1755.57 L1483.27 1741.46 L1505.30 1741.46 L1505.30 1713.25 L1527.20 1713.25 L1527.20 1689.74 L1549.23 1689.74 L1549.23 1652.11 L1571.13 1652.11 L1571.13 1600.26 L1593.16 1600.26 L1593.16 1567.34 L1615.06 1567.34 L1615.06 1501.38 L1637.09 1501.38 L1637.09 1402.50 L1659.12 1402.50 L1659.12 1327.14 L1681.02 1327.14 L1681.02 1251.77 L1703.05 1251.77 L1703.05 1119.85 L1724.95 1119.85 L1724.95 987.93 L1746.98 987.93 L1746.98 865.41 L1768.88 865.41 L1768.88 771.11 L1790.91 771.11 L1790.91 752.18 L1812.81 752.18 L1812.81 742.77 L1834.84 742.77 L1834.84 733.37 L1856.74 733.37 L1856.74 733.37" stroke-linejoin="round" style="fill:none;stroke:#C10534;stroke-width:6.48"/>
	<line x1="381.40" y1="1873.51" x2="381.40" y2="524.47" style="stroke:#000000;stroke-width:4.32"/>
	<line x1="381.40" y1="1825.99" x2="351.45" y2="1825.99" style="stroke:#000000;stroke-width:4.32"/>
	<text x="336.48" y="1852.27" style="font-family:'Helvetica';font-size:74.99px;fill:#000000" text-anchor="end">0.00</text>
	<line x1="381.40" y1="1198.93" x2="351.45" y2="1198.93" style="stroke:#000000;stroke-width:4.32"/>
	<text x="336.48" y="1225.21" style="font-family:'Helvetica';font-size:74.99px;fill:#000000" text-anchor="end">0.00</text>
	<line x1="381.40" y1="571.99" x2="351.45" y2="571.99" style="stroke:#000000;stroke-width:4.32"/>
	<text x="336.48" y="598.27" style="font-family:'Helvetica';font-size:74.99px;fill:#000000" text-anchor="end">0.00</text>
	<line x1="381.40" y1="1873.51" x2="1904.39" y2="1873.51" style="stroke:#000000;stroke-width:4.32"/>
	<line x1="428.92" y1="1873.51" x2="428.92" y2="1903.46" style="stroke:#000000;stroke-width:4.32"/>
	<text x="428.92" y="1970.87" style="font-family:'Helvetica';font-size:74.99px;fill:#000000" text-anchor="middle">0</text>
	<line x1="868.35" y1="1873.51" x2="868.35" y2="1903.46" style="stroke:#000000;stroke-width:4.32"/>
	<text x="868.35" y="1970.87" style="font-family:'Helvetica';font-size:74.99px;fill:#000000" text-anchor="middle">20</text>
	<line x1="1307.67" y1="1873.51" x2="1307.67" y2="1903.46" style="stroke:#000000;stroke-width:4.32"/>
	<text x="1307.67" y="1970.87" style="font-family:'Helvetica';font-size:74.99px;fill:#000000" text-anchor="middle">40</text>
	<line x1="1746.98" y1="1873.51" x2="1746.98" y2="1903.46" style="stroke:#000000;stroke-width:4.32"/>
	<text x="1746.98" y="1970.87" style="font-family:'Helvetica';font-size:74.99px;fill:#000000" text-anchor="middle">60</text>
	<text x="1142.83" y="2053.41" style="font-family:'Helvetica';font-size:74.99px;fill:#000000" text-anchor="middle">Days since 1 Feb 2020</text>
	<text x="1142.83" y="479.93" style="font-family:'Helvetica';font-size:104.94px;fill:#1E2D53" text-anchor="middle">Female</text>
	<rect x="1980.00" y="317.92" width="1916.52" height="1848.64" style="fill:#EAF2F3"/>
	<rect x="1982.16" y="320.08" width="1912.20" height="1844.32" style="fill:none;stroke:#EAF2F3;stroke-width:4.32"/>
	<rect x="2298.04" y="524.47" width="1522.87" height="1349.04" style="fill:#FFFFFF"/>
	<rect x="2300.20" y="526.63" width="1518.55" height="1344.72" style="fill:none;stroke:#FFFFFF;stroke-width:4.32"/>
	<line x1="2298.04" y1="1825.99" x2="3820.91" y2="1825.99" style="stroke:#EAF2F3;stroke-width:6.48"/>
	<line x1="2298.04" y1="1512.52" x2="3820.91" y2="1512.52" style="stroke:#EAF2F3;stroke-width:6.48"/>
	<line x1="2298.04" y1="1198.93" x2="3820.91" y2="1198.93" style="stroke:#EAF2F3;stroke-width:6.48"/>
	<line x1="2298.04" y1="885.46" x2="3820.91" y2="885.46" style="stroke:#EAF2F3;stroke-width:6.48"/>
	<line x1="2298.04" y1="571.99" x2="3820.91" y2="571.99" style="stroke:#EAF2F3;stroke-width:6.48"/>
	<path d=" M2345.43 1825.99 L2345.43 1825.99 L2345.43 1825.99 L2345.43 1825.99 L2345.43 1825.99 L2345.43 1825.99 L2345.43 1825.99 L2345.43 1825.99 L2345.43 1825.99 L2345.43 1825.99 L2345.43 1825.99 L2367.46 1825.99 L2367.46 1825.99 L2389.36 1825.99 L2389.36 1825.99 L2411.39 1825.99 L2411.39 1825.99 L2433.30 1825.99 L2433.30 1825.99 L2499.26 1825.99 L2499.26 1825.99 L2521.16 1825.99 L2521.16 1825.99 L2587.12 1825.99 L2587.12 1825.99 L2631.05 1825.99 L2631.05 1825.99 L2653.08 1825.99 L2653.08 1825.99 L2674.98 1825.99 L2674.98 1825.99 L2697.01 1825.99 L2697.01 1825.99 L2718.91 1825.99 L2718.91 1825.99 L2762.84 1825.99 L2762.84 1825.99 L2806.77 1825.99 L2806.77 1825.99 L2828.80 1825.99 L2828.80 1825.99 L2894.64 1825.99 L2894.64 1825.99 L2916.66 1825.99 L2916.66 1825.99 L2938.57 1825.99 L2938.57 1825.99 L2960.59 1825.99 L2960.59 1825.99 L2982.50 1825.99 L2982.50 1825.99 L3026.43 1825.99 L3026.43 1825.99 L3048.46 1825.99 L3048.46 1825.99 L3114.29 1825.99 L3114.29 1825.99 L3136.32 1825.99 L3136.32 1825.99 L3180.25 1825.99 L3180.25 1825.99 L3202.16 1825.99 L3202.16 1825.99 L3224.18 1825.99 L3224.18 1825.99 L3246.09 1825.99 L3246.09 1825.99 L3268.11 1825.99 L3268.11 1825.99 L3290.02 1825.99 L3290.02 1825.99 L3312.05 1825.99 L3312.05 1825.99 L3333.95 1825.99 L3333.95 1825.99 L3355.98 1825.99 L3355.98 1825.99 L3377.88 1825.99 L3377.88 1825.99 L3399.91 1825.99 L3399.91 1825.99 L3421.81 1825.99 L3421.81 1825.99 L3443.84 1825.99 L3443.84 1825.49 L3465.74 1825.49 L3465.74 1825.49 L3509.67 1825.49 L3509.67 1825.49 L3531.70 1825.49 L3531.70 1825.00 L3553.73 1825.00 L3553.73 1824.50 L3597.66 1824.50 L3597.66 1824.50 L3619.56 1824.50 L3619.56 1824.50 L3685.52 1824.50 L3685.52 1824.01 L3707.43 1824.01 L3707.43 1823.51 L3773.39 1823.51 L3773.39 1823.51" stroke-linejoin="round" style="fill:none;stroke:#1A476F;stroke-width:6.48"/>
	<path d=" M2345.43 1825.99 L2345.43 1825.99 L2345.43 1825.99 L2345.43 1825.99 L2345.43 1825.99 L2345.43 1825.99 L2345.43 1825.99 L2345.43 1825.99 L2345.43 1825.99 L2345.43 1825.99 L2345.43 1825.99 L2367.46 1825.99 L2367.46 1825.99 L2389.36 1825.99 L2389.36 1825.99 L2411.39 1825.99 L2411.39 1825.99 L2433.30 1825.99 L2433.30 1825.99 L2455.32 1825.99 L2455.32 1825.99 L2477.23 1825.99 L2477.23 1825.99 L2499.26 1825.99 L2499.26 1825.99 L2521.16 1825.99 L2521.16 1825.99 L2543.19 1825.99 L2543.19 1825.99 L2565.09 1825.99 L2565.09 1825.99 L2587.12 1825.99 L2587.12 1825.99 L2609.14 1825.99 L2609.14 1825.99 L2631.05 1825.99 L2631.05 1825.99 L2653.08 1825.99 L2653.08 1825.99 L2674.98 1825.99 L2674.98 1825.99 L2697.01 1825.99 L2697.01 1825.99 L2718.91 1825.99 L2718.91 1825.99 L2740.94 1825.99 L2740.94 1825.99 L2762.84 1825.99 L2762.84 1825.99 L2784.87 1825.99 L2784.87 1825.99 L2806.77 1825.99 L2806.77 1825.99 L2828.80 1825.99 L2828.80 1825.99 L2850.70 1825.99 L2850.70 1825.99 L2872.73 1825.99 L2872.73 1825.99 L2894.64 1825.99 L2894.64 1825.99 L2916.66 1825.99 L2916.66 1825.99 L2938.57 1825.99 L2938.57 1825.99 L2960.59 1825.99 L2960.59 1825.99 L2982.50 1825.99 L2982.50 1825.99 L3004.53 1825.99 L3004.53 1825.99 L3026.43 1825.99 L3026.43 1825.99 L3048.46 1825.99 L3048.46 1825.99 L3070.36 1825.99 L3070.36 1825.99 L3092.39 1825.99 L3092.39 1825.99 L3114.29 1825.99 L3114.29 1825.99 L3136.32 1825.99 L3136.32 1825.99 L3158.22 1825.99 L3158.22 1825.99 L3180.25 1825.99 L3180.25 1825.99 L3202.16 1825.99 L3202.16 1825.99 L3224.18 1825.99 L3224.18 1825.99 L3246.09 1825.99 L3246.09 1825.99 L3268.11 1825.99 L3268.11 1825.99 L3290.02 1825.99 L3290.02 1825.99 L3312.05 1825.99 L3312.05 1825.99 L3333.95 1825.99 L3333.95 1825.99 L3355.98 1825.99 L3355.98 1825.99 L3377.88 1825.99 L3377.88 1825.99 L3399.91 1825.99 L3399.91 1825.99 L3421.81 1825.99 L3421.81 1825.99 L3443.84 1825.99 L3443.84 1825.00 L3465.74 1825.00 L3465.74 1825.00 L3509.67 1825.00 L3509.67 1825.00 L3531.70 1825.00 L3531.70 1825.00 L3553.73 1825.00 L3553.73 1825.00 L3575.63 1825.00 L3575.63 1825.00 L3597.66 1825.00 L3597.66 1821.78 L3619.56 1821.78 L3619.56 1819.68 L3641.59 1819.68 L3641.59 1819.68 L3663.49 1819.68 L3663.49 1818.56 L3685.52 1818.56 L3685.52 1817.57 L3773.39 1817.57 L3773.39 1817.57" stroke-linejoin="round" style="fill:none;stroke:#90353B;stroke-width:6.48"/>
	<path d=" M2345.43 1825.99 L2345.43 1825.99 L2345.43 1825.99 L2345.43 1825.99 L2345.43 1825.99 L2345.43 1825.99 L2345.43 1825.99 L2345.43 1825.99 L2345.43 1825.99 L2345.43 1825.99 L2345.43 1825.99 L2367.46 1825.99 L2367.46 1825.99 L2389.36 1825.99 L2389.36 1825.99 L2411.39 1825.99 L2411.39 1825.99 L2433.30 1825.99 L2433.30 1825.99 L2455.32 1825.99 L2455.32 1825.99 L2477.23 1825.99 L2477.23 1825.99 L2499.26 1825.99 L2499.26 1825.99 L2521.16 1825.99 L2521.16 1825.99 L2543.19 1825.99 L2543.19 1825.99 L2565.09 1825.99 L2565.09 1825.99 L2587.12 1825.99 L2587.12 1825.99 L2609.14 1825.99 L2609.14 1825.99 L2631.05 1825.99 L2631.05 1825.99 L2653.08 1825.99 L2653.08 1825.99 L2674.98 1825.99 L2674.98 1825.99 L2697.01 1825.99 L2697.01 1825.99 L2718.91 1825.99 L2718.91 1825.99 L2740.94 1825.99 L2740.94 1825.99 L2762.84 1825.99 L2762.84 1825.99 L2784.87 1825.99 L2784.87 1825.99 L2806.77 1825.99 L2806.77 1825.99 L2828.80 1825.99 L2828.80 1825.99 L2850.70 1825.99 L2850.70 1825.99 L2872.73 1825.99 L2872.73 1825.99 L2894.64 1825.99 L2894.64 1825.99 L2916.66 1825.99 L2916.66 1825.99 L2938.57 1825.99 L2938.57 1825.99 L2960.59 1825.99 L2960.59 1825.99 L2982.50 1825.99 L2982.50 1825.99 L3004.53 1825.99 L3004.53 1825.99 L3026.43 1825.99 L3026.43 1825.99 L3048.46 1825.99 L3048.46 1825.99 L3070.36 1825.99 L3070.36 1825.99 L3092.39 1825.99 L3092.39 1825.99 L3114.29 1825.99 L3114.29 1825.99 L3136.32 1825.99 L3136.32 1825.99 L3158.22 1825.99 L3158.22 1825.99 L3180.25 1825.99 L3180.25 1825.99 L3202.16 1825.99 L3202.16 1825.99 L3224.18 1825.99 L3224.18 1825.99 L3246.09 1825.99 L3246.09 1825.99 L3268.11 1825.99 L3268.11 1825.99 L3290.02 1825.99 L3290.02 1825.99 L3312.05 1825.99 L3312.05 1825.99 L3333.95 1825.99 L3333.95 1825.99 L3355.98 1825.99 L3355.98 1825.99 L3377.88 1825.99 L3377.88 1825.00 L3399.91 1825.00 L3399.91 1824.01 L3421.81 1824.01 L3421.81 1824.01 L3443.84 1824.01 L3443.84 1824.01 L3465.74 1824.01 L3465.74 1818.93 L3487.77 1818.93 L3487.77 1817.94 L3509.67 1817.94 L3509.67 1813.98 L3531.70 1813.98 L3531.70 1813.98 L3553.73 1813.98 L3553.73 1809.90 L3575.63 1809.90 L3575.63 1807.92 L3597.66 1807.92 L3597.66 1806.93 L3619.56 1806.93 L3619.56 1803.96 L3641.59 1803.96 L3641.59 1799.88 L3663.49 1799.88 L3663.49 1796.91 L3685.52 1796.91 L3685.52 1795.79 L3773.39 1795.79 L3773.39 1795.79" stroke-linejoin="round" style="fill:none;stroke:#55752F;stroke-width:6.48"/>
	<path d=" M2345.43 1825.99 L2345.43 1825.99 L2345.43 1825.99 L2345.43 1825.99 L2345.43 1825.99 L2345.43 1825.99 L2345.43 1825.99 L2345.43 1825.99 L2345.43 1825.99 L2345.43 1825.99 L2345.43 1825.99 L2367.46 1825.99 L2367.46 1825.99 L2389.36 1825.99 L2389.36 1825.99 L2411.39 1825.99 L2411.39 1825.99 L2433.30 1825.99 L2433.30 1825.99 L2455.32 1825.99 L2455.32 1825.99 L2477.23 1825.99 L2477.23 1825.99 L2499.26 1825.99 L2499.26 1825.99 L2521.16 1825.99 L2521.16 1825.99 L2543.19 1825.99 L2543.19 1825.99 L2565.09 1825.99 L2565.09 1825.99 L2587.12 1825.99 L2587.12 1825.99 L2609.14 1825.99 L2609.14 1825.99 L2631.05 1825.99 L2631.05 1825.99 L2653.08 1825.99 L2653.08 1825.99 L2674.98 1825.99 L2674.98 1825.99 L2697.01 1825.99 L2697.01 1825.99 L2718.91 1825.99 L2718.91 1825.99 L2740.94 1825.99 L2740.94 1825.99 L2762.84 1825.99 L2762.84 1825.99 L2784.87 1825.99 L2784.87 1825.99 L2806.77 1825.99 L2806.77 1825.99 L2828.80 1825.99 L2828.80 1825.99 L2850.70 1825.99 L2850.70 1825.99 L2872.73 1825.99 L2872.73 1825.99 L2894.64 1825.99 L2894.64 1825.99 L2916.66 1825.99 L2916.66 1825.99 L2938.57 1825.99 L2938.57 1825.99 L2960.59 1825.99 L2960.59 1825.99 L2982.50 1825.99 L2982.50 1825.99 L3004.53 1825.99 L3004.53 1825.99 L3026.43 1825.99 L3026.43 1825.99 L3048.46 1825.99 L3048.46 1825.99 L3070.36 1825.99 L3070.36 1825.99 L3092.39 1825.99 L3092.39 1825.99 L3114.29 1825.99 L3114.29 1825.99 L3136.32 1825.99 L3136.32 1825.99 L3158.22 1825.99 L3158.22 1825.99 L3180.25 1825.99 L3180.25 1825.99 L3202.16 1825.99 L3202.16 1825.99 L3224.18 1825.99 L3224.18 1825.99 L3246.09 1825.99 L3246.09 1825.99 L3268.11 1825.99 L3268.11 1825.99 L3290.02 1825.99 L3290.02 1825.99 L3312.05 1825.99 L3312.05 1825.99 L3333.95 1825.99 L3333.95 1823.39 L3355.98 1823.39 L3355.98 1823.39 L3377.88 1823.39 L3377.88 1819.43 L3399.91 1819.43 L3399.91 1818.19 L3421.81 1818.19 L3421.81 1818.19 L3443.84 1818.19 L3443.84 1814.23 L3465.74 1814.23 L3465.74 1807.67 L3487.77 1807.67 L3487.77 1802.35 L3509.67 1802.35 L3509.67 1798.39 L3531.70 1798.39 L3531.70 1795.79 L3553.73 1795.79 L3553.73 1783.91 L3575.63 1783.91 L3575.63 1768.20 L3597.66 1768.20 L3597.66 1753.72 L3619.56 1753.72 L3619.56 1745.80 L3641.59 1745.80 L3641.59 1735.28 L3663.49 1735.28 L3663.49 1724.76 L3685.52 1724.76 L3685.52 1715.60 L3707.43 1715.60 L3707.43 1714.24 L3729.45 1714.24 L3729.45 1714.24 L3773.39 1714.24 L3773.39 1712.88" stroke-linejoin="round" style="fill:none;stroke:#E37E00;stroke-width:6.48"/>
	<path d=" M2345.43 1825.99 L2345.43 1825.99 L2345.43 1825.99 L2345.43 1825.99 L2345.43 1825.99 L2345.43 1825.99 L2345.43 1825.99 L2345.43 1825.99 L2345.43 1825.99 L2345.43 1825.99 L2345.43 1825.99 L2367.46 1825.99 L2367.46 1825.99 L2389.36 1825.99 L2389.36 1825.99 L2411.39 1825.99 L2411.39 1825.99 L2433.30 1825.99 L2433.30 1825.99 L2455.32 1825.99 L2455.32 1825.99 L2477.23 1825.99 L2477.23 1825.99 L2499.26 1825.99 L2499.26 1825.99 L2521.16 1825.99 L2521.16 1825.99 L2543.19 1825.99 L2543.19 1825.99 L2565.09 1825.99 L2565.09 1825.99 L2587.12 1825.99 L2587.12 1825.99 L2609.14 1825.99 L2609.14 1825.99 L2631.05 1825.99 L2631.05 1825.99 L2653.08 1825.99 L2653.08 1825.99 L2674.98 1825.99 L2674.98 1825.99 L2697.01 1825.99 L2697.01 1825.99 L2718.91 1825.99 L2718.91 1825.99 L2740.94 1825.99 L2740.94 1825.99 L2762.84 1825.99 L2762.84 1825.99 L2784.87 1825.99 L2784.87 1825.99 L2806.77 1825.99 L2806.77 1825.99 L2828.80 1825.99 L2828.80 1825.99 L2850.70 1825.99 L2850.70 1825.99 L2872.73 1825.99 L2872.73 1825.99 L2894.64 1825.99 L2894.64 1825.99 L2916.66 1825.99 L2916.66 1825.99 L2938.57 1825.99 L2938.57 1825.99 L2960.59 1825.99 L2960.59 1825.99 L2982.50 1825.99 L2982.50 1825.99 L3004.53 1825.99 L3004.53 1825.99 L3026.43 1825.99 L3026.43 1825.99 L3048.46 1825.99 L3048.46 1825.99 L3070.36 1825.99 L3070.36 1825.99 L3092.39 1825.99 L3092.39 1825.99 L3114.29 1825.99 L3114.29 1825.99 L3136.32 1825.99 L3136.32 1825.99 L3158.22 1825.99 L3158.22 1825.99 L3180.25 1825.99 L3180.25 1825.99 L3202.16 1825.99 L3202.16 1825.99 L3224.18 1825.99 L3224.18 1825.99 L3246.09 1825.99 L3246.09 1825.99 L3268.11 1825.99 L3268.11 1825.99 L3290.02 1825.99 L3290.02 1824.38 L3312.05 1824.38 L3312.05 1820.91 L3333.95 1820.91 L3333.95 1817.57 L3355.98 1817.57 L3355.98 1814.23 L3377.88 1814.23 L3377.88 1809.16 L3399.91 1809.16 L3399.91 1800.74 L3421.81 1800.74 L3421.81 1793.94 L3443.84 1793.94 L3443.84 1785.52 L3465.74 1785.52 L3465.74 1771.91 L3487.77 1771.91 L3487.77 1755.08 L3509.67 1755.08 L3509.67 1731.44 L3531.70 1731.44 L3531.70 1716.22 L3553.73 1716.22 L3553.73 1687.38 L3575.63 1687.38 L3575.63 1646.92 L3597.66 1646.92 L3597.66 1613.01 L3619.56 1613.01 L3619.56 1580.96 L3641.59 1580.96 L3641.59 1525.14 L3663.49 1525.14 L3663.49 1476.14 L3685.52 1476.14 L3685.52 1447.30 L3707.43 1447.30 L3707.43 1433.81 L3729.45 1433.81 L3729.45 1430.47 L3751.36 1430.47 L3751.36 1430.47 L3773.39 1430.47 L3773.39 1430.47" stroke-linejoin="round" style="fill:none;stroke:#6E8E84;stroke-width:6.48"/>
	<path d=" M2345.43 1825.99 L2345.43 1825.99 L2345.43 1825.99 L2345.43 1825.99 L2345.43 1825.99 L2345.43 1825.99 L2345.43 1825.99 L2345.43 1825.99 L2345.43 1825.99 L2345.43 1825.99 L2345.43 1825.99 L2367.46 1825.99 L2367.46 1825.99 L2389.36 1825.99 L2389.36 1825.99 L2411.39 1825.99 L2411.39 1825.99 L2433.30 1825.99 L2433.30 1825.99 L2455.32 1825.99 L2455.32 1825.99 L2477.23 1825.99 L2477.23 1825.99 L2499.26 1825.99 L2499.26 1825.99 L2521.16 1825.99 L2521.16 1825.99 L2543.19 1825.99 L2543.19 1825.99 L2565.09 1825.99 L2565.09 1825.99 L2587.12 1825.99 L2587.12 1825.99 L2609.14 1825.99 L2609.14 1825.99 L2631.05 1825.99 L2631.05 1825.99 L2653.08 1825.99 L2653.08 1825.99 L2674.98 1825.99 L2674.98 1825.99 L2697.01 1825.99 L2697.01 1825.99 L2718.91 1825.99 L2718.91 1825.99 L2740.94 1825.99 L2740.94 1825.99 L2762.84 1825.99 L2762.84 1825.99 L2784.87 1825.99 L2784.87 1825.99 L2806.77 1825.99 L2806.77 1825.99 L2828.80 1825.99 L2828.80 1825.99 L2850.70 1825.99 L2850.70 1825.99 L2872.73 1825.99 L2872.73 1825.99 L2894.64 1825.99 L2894.64 1825.99 L2916.66 1825.99 L2916.66 1825.99 L2938.57 1825.99 L2938.57 1825.99 L2960.59 1825.99 L2960.59 1825.99 L2982.50 1825.99 L2982.50 1825.99 L3004.53 1825.99 L3004.53 1825.99 L3026.43 1825.99 L3026.43 1825.99 L3048.46 1825.99 L3048.46 1825.99 L3070.36 1825.99 L3070.36 1822.65 L3092.39 1822.65 L3092.39 1822.65 L3114.29 1822.65 L3114.29 1822.65 L3136.32 1822.65 L3136.32 1822.65 L3158.22 1822.65 L3158.22 1819.31 L3180.25 1819.31 L3180.25 1819.31 L3202.16 1819.31 L3202.16 1815.96 L3224.18 1815.96 L3224.18 1815.96 L3246.09 1815.96 L3246.09 1812.62 L3268.11 1812.62 L3268.11 1802.60 L3290.02 1802.60 L3290.02 1792.57 L3312.05 1792.57 L3312.05 1785.89 L3333.95 1785.89 L3333.95 1775.87 L3355.98 1775.87 L3355.98 1762.50 L3377.88 1762.50 L3377.88 1745.80 L3399.91 1745.80 L3399.91 1728.97 L3421.81 1728.97 L3421.81 1702.23 L3443.84 1702.23 L3443.84 1668.70 L3465.74 1668.70 L3465.74 1655.21 L3487.77 1655.21 L3487.77 1604.96 L3509.67 1604.96 L3509.67 1558.06 L3531.70 1558.06 L3531.70 1457.33 L3553.73 1457.33 L3553.73 1396.93 L3575.63 1396.93 L3575.63 1292.86 L3597.66 1292.86 L3597.66 1185.44 L3619.56 1185.44 L3619.56 1057.85 L3641.59 1057.85 L3641.59 930.26 L3663.49 930.26 L3663.49 799.20 L3685.52 799.20 L3685.52 701.81 L3707.43 701.81 L3707.43 644.76 L3729.45 644.76 L3729.45 627.93 L3751.36 627.93 L3751.36 617.78 L3773.39 617.78 L3773.39 617.78" stroke-linejoin="round" style="fill:none;stroke:#C10534;stroke-width:6.48"/>
	<line x1="2298.04" y1="1873.51" x2="2298.04" y2="524.47" style="stroke:#000000;stroke-width:4.32"/>
	<line x1="2298.04" y1="1825.99" x2="2267.97" y2="1825.99" style="stroke:#000000;stroke-width:4.32"/>
	<text x="2252.99" y="1852.27" style="font-family:'Helvetica';font-size:74.99px;fill:#000000" text-anchor="end">0.00</text>
	<line x1="2298.04" y1="1512.52" x2="2267.97" y2="1512.52" style="stroke:#000000;stroke-width:4.32"/>
	<text x="2252.99" y="1538.80" style="font-family:'Helvetica';font-size:74.99px;fill:#000000" text-anchor="end">0.00</text>
	<line x1="2298.04" y1="1198.93" x2="2267.97" y2="1198.93" style="stroke:#000000;stroke-width:4.32"/>
	<text x="2252.99" y="1225.21" style="font-family:'Helvetica';font-size:74.99px;fill:#000000" text-anchor="end">0.00</text>
	<line x1="2298.04" y1="885.46" x2="2267.97" y2="885.46" style="stroke:#000000;stroke-width:4.32"/>
	<text x="2252.99" y="911.74" style="font-family:'Helvetica';font-size:74.99px;fill:#000000" text-anchor="end">0.00</text>
	<line x1="2298.04" y1="571.99" x2="2267.97" y2="571.99" style="stroke:#000000;stroke-width:4.32"/>
	<text x="2252.99" y="598.27" style="font-family:'Helvetica';font-size:74.99px;fill:#000000" text-anchor="end">0.00</text>
	<line x1="2298.04" y1="1873.51" x2="3820.91" y2="1873.51" style="stroke:#000000;stroke-width:4.32"/>
	<line x1="2345.56" y1="1873.51" x2="2345.56" y2="1903.46" style="stroke:#000000;stroke-width:4.32"/>
	<text x="2345.56" y="1970.87" style="font-family:'Helvetica';font-size:74.99px;fill:#000000" text-anchor="middle">0</text>
	<line x1="2784.87" y1="1873.51" x2="2784.87" y2="1903.46" style="stroke:#000000;stroke-width:4.32"/>
	<text x="2784.87" y="1970.87" style="font-family:'Helvetica';font-size:74.99px;fill:#000000" text-anchor="middle">20</text>
	<line x1="3224.18" y1="1873.51" x2="3224.18" y2="1903.46" style="stroke:#000000;stroke-width:4.32"/>
	<text x="3224.18" y="1970.87" style="font-family:'Helvetica';font-size:74.99px;fill:#000000" text-anchor="middle">40</text>
	<line x1="3663.62" y1="1873.51" x2="3663.62" y2="1903.46" style="stroke:#000000;stroke-width:4.32"/>
	<text x="3663.62" y="1970.87" style="font-family:'Helvetica';font-size:74.99px;fill:#000000" text-anchor="middle">60</text>
	<text x="3059.47" y="2053.41" style="font-family:'Helvetica';font-size:74.99px;fill:#000000" text-anchor="middle">Days since 1 Feb 2020</text>
	<text x="3059.47" y="479.93" style="font-family:'Helvetica';font-size:104.94px;fill:#1E2D53" text-anchor="middle">Male</text>
	<text x="1980.00" y="157.51" style="font-family:'Helvetica';font-size:110.01px;fill:#000000" text-anchor="middle">ONS Covid-19 death</text>
	<text x="1980.00" y="267.53" style="font-family:'Helvetica';font-size:110.01px;fill:#000000" text-anchor="middle">'</text>
	<rect x="1168.82" y="2201.21" width="1622.24" height="580.90" style="fill:#FFFFFF"/>
	<rect x="1171.70" y="2204.09" width="1616.48" height="575.14" style="fill:none;stroke:#000000;stroke-width:5.76"/>
	<line x1="1212.01" y1="2408.87" x2="1586.35" y2="2408.87" style="stroke:#1A476F;stroke-width:8.64"/>
	<line x1="2049.92" y1="2408.87" x2="2424.26" y2="2408.87" style="stroke:#90353B;stroke-width:8.64"/>
	<line x1="1212.01" y1="2548.83" x2="1586.35" y2="2548.83" style="stroke:#55752F;stroke-width:8.64"/>
	<line x1="2049.92" y1="2548.83" x2="2424.26" y2="2548.83" style="stroke:#E37E00;stroke-width:8.64"/>
	<line x1="1212.01" y1="2688.92" x2="1586.35" y2="2688.92" style="stroke:#6E8E84;stroke-width:8.64"/>
	<line x1="2049.92" y1="2688.92" x2="2424.26" y2="2688.92" style="stroke:#C10534;stroke-width:8.64"/>
	<text x="1646.37" y="2436.88" style="font-family:'Helvetica';font-size:79.94px;fill:#000000">18-&lt;40</text>
	<text x="2484.28" y="2436.88" style="font-family:'Helvetica';font-size:79.94px;fill:#000000">40-&lt;50</text>
	<text x="1646.37" y="2576.85" style="font-family:'Helvetica';font-size:79.94px;fill:#000000">50-&lt;60</text>
	<text x="2484.28" y="2576.85" style="font-family:'Helvetica';font-size:79.94px;fill:#000000">60-&lt;70</text>
	<text x="1646.37" y="2716.94" style="font-family:'Helvetica';font-size:79.94px;fill:#000000">70-&lt;80</text>
	<text x="2484.28" y="2716.94" style="font-family:'Helvetica';font-size:79.94px;fill:#000000">80+</text>
	<text x="1980.00" y="2308.96" style="font-family:'Helvetica';font-size:79.94px;fill:#000000" text-anchor="middle">Age group</text>
</svg>
