<?xml version="1.0" encoding="UTF-8" standalone="no"?>
<!-- This is a Stata 16.1 generated SVG file (http://www.stata.com) -->

<svg version="1.1" width="5.50in" height="4.00in" viewBox="0 0 3960 2880" xmlns="http://www.w3.org/2000/svg" xmlns:xlink="http://www.w3.org/1999/xlink">
	<desc>Stata Graph - Graph</desc>
	<rect x="0" y="0" width="3960" height="2880" style="fill:#EAF2F3;stroke:none"/>
	<rect x="0.00" y="0.00" width="3959.88" height="2880.00" style="fill:#EAF2F3"/>
	<rect x="2.88" y="2.88" width="3954.12" height="2874.24" style="fill:none;stroke:#EAF2F3;stroke-width:5.76"/>
	<rect x="63.36" y="317.92" width="1916.64" height="1848.64" style="fill:#EAF2F3"/>
	<rect x="65.52" y="320.08" width="1912.32" height="1844.32" style="fill:none;stroke:#EAF2F3;stroke-width:4.32"/>
	<rect x="381.40" y="524.47" width="1522.99" height="1349.04" style="fill:#FFFFFF"/>
	<rect x="383.56" y="526.63" width="1518.67" height="1344.72" style="fill:none;stroke:#FFFFFF;stroke-width:4.32"/>
	<line x1="381.40" y1="1825.99" x2="1904.39" y2="1825.99" style="stroke:#EAF2F3;stroke-width:6.48"/>
	<line x1="381.40" y1="1512.52" x2="1904.39" y2="1512.52" style="stroke:#EAF2F3;stroke-width:6.48"/>
	<line x1="381.40" y1="1198.93" x2="1904.39" y2="1198.93" style="stroke:#EAF2F3;stroke-width:6.48"/>
	<line x1="381.40" y1="885.46" x2="1904.39" y2="885.46" style="stroke:#EAF2F3;stroke-width:6.48"/>
	<line x1="381.40" y1="571.99" x2="1904.39" y2="571.99" style="stroke:#EAF2F3;stroke-width:6.48"/>
	<path d=" M428.92 1825.99 L428.92 1825.99 L428.92 1825.99 L428.92 1825.99 L428.92 1825.99 L428.92 1825.99 L428.92 1825.99 L428.92 1825.99 L428.92 1825.99 L428.92 1825.99 L428.92 1825.99 L446.74 1825.99 L446.74 1825.99 L482.50 1825.99 L482.50 1825.99 L518.14 1825.99 L518.14 1825.99 L535.96 1825.99 L535.96 1825.99 L571.73 1825.99 L571.73 1825.99 L589.54 1825.99 L589.54 1825.99 L607.37 1825.99 L607.37 1825.99 L625.18 1825.99 L625.18 1825.99 L643.13 1825.99 L643.13 1825.99 L660.95 1825.99 L660.95 1825.99 L678.77 1825.99 L678.77 1825.99 L696.59 1825.99 L696.59 1825.99 L732.35 1825.99 L732.35 1825.99 L750.17 1825.99 L750.17 1825.99 L785.81 1825.99 L785.81 1825.99 L803.76 1825.99 L803.76 1825.99 L821.58 1825.99 L821.58 1825.99 L857.22 1825.99 L857.22 1825.99 L892.98 1825.99 L892.98 1825.99 L964.38 1825.99 L964.38 1825.99 L982.20 1825.99 L982.20 1825.99 L1017.84 1825.99 L1017.84 1825.99 L1035.79 1825.99 L1035.79 1825.99 L1071.43 1825.99 L1071.43 1825.99 L1107.19 1825.99 L1107.19 1825.99 L1125.01 1825.99 L1125.01 1825.99 L1142.83 1825.99 L1142.83 1825.99 L1160.65 1825.99 L1160.65 1825.99 L1178.47 1825.99 L1178.47 1820.67 L1196.41 1820.67 L1196.41 1815.22 L1214.23 1815.22 L1214.23 1815.22 L1232.06 1815.22 L1232.06 1809.90 L1249.88 1809.90 L1249.88 1809.90 L1267.82 1809.90 L1267.82 1809.90 L1285.64 1809.90 L1285.64 1804.58 L1303.46 1804.58 L1303.46 1799.13 L1321.28 1799.13 L1321.28 1799.13 L1339.10 1799.13 L1339.10 1793.81 L1357.04 1793.81 L1357.04 1788.37 L1374.86 1788.37 L1374.86 1777.60 L1392.68 1777.60 L1392.68 1772.28 L1410.50 1772.28 L1410.50 1772.28 L1428.45 1772.28 L1428.45 1745.30 L1446.27 1745.30 L1446.27 1739.98 L1481.91 1739.98 L1481.91 1739.98 L1499.85 1739.98 L1499.85 1723.77 L1517.67 1723.77 L1517.67 1723.77 L1535.49 1723.77 L1535.49 1713.00 L1553.31 1713.00 L1553.31 1702.36 L1571.13 1702.36 L1571.13 1686.15 L1606.89 1686.15 L1606.89 1680.83 L1696.12 1680.83 L1696.12 1675.38 L1713.94 1675.38 L1713.94 1670.06 L1803.16 1670.06 L1803.16 1664.61 L1838.92 1664.61 L1838.92 1664.61" stroke-linejoin="round" style="fill:none;stroke:#1A476F;stroke-width:6.48"/>
	<path d=" M428.92 1825.99 L428.92 1825.99 L428.92 1825.99 L428.92 1825.99 L428.92 1825.99 L428.92 1825.99 L428.92 1825.99 L428.92 1825.99 L428.92 1825.99 L428.92 1825.99 L428.92 1825.99 L446.74 1825.99 L446.74 1825.99 L464.56 1825.99 L464.56 1825.99 L482.50 1825.99 L482.50 1825.99 L500.32 1825.99 L500.32 1825.99 L518.14 1825.99 L518.14 1825.99 L535.96 1825.99 L535.96 1825.99 L553.78 1825.99 L553.78 1825.99 L571.73 1825.99 L571.73 1825.99 L589.54 1825.99 L589.54 1825.99 L607.37 1825.99 L607.37 1825.99 L625.18 1825.99 L625.18 1825.99 L643.13 1825.99 L643.13 1825.99 L660.95 1825.99 L660.95 1825.99 L678.77 1825.99 L678.77 1825.99 L696.59 1825.99 L696.59 1825.99 L714.53 1825.99 L714.53 1825.99 L732.35 1825.99 L732.35 1825.99 L750.17 1825.99 L750.17 1825.99 L767.99 1825.99 L767.99 1825.99 L785.81 1825.99 L785.81 1825.99 L803.76 1825.99 L803.76 1825.99 L821.58 1825.99 L821.58 1825.99 L839.40 1825.99 L839.40 1825.99 L857.22 1825.99 L857.22 1825.99 L875.16 1825.99 L875.16 1825.99 L892.98 1825.99 L892.98 1825.99 L910.80 1825.99 L910.80 1825.99 L928.62 1825.99 L928.62 1825.99 L946.44 1825.99 L946.44 1825.99 L964.38 1825.99 L964.38 1825.99 L982.20 1825.99 L982.20 1825.99 L1000.02 1825.99 L1000.02 1825.99 L1017.84 1825.99 L1017.84 1825.99 L1035.79 1825.99 L1035.79 1825.99 L1053.61 1825.99 L1053.61 1825.99 L1071.43 1825.99 L1071.43 1825.99 L1089.25 1825.99 L1089.25 1825.99 L1107.19 1825.99 L1107.19 1825.99 L1125.01 1825.99 L1125.01 1825.99 L1142.83 1825.99 L1142.83 1825.99 L1160.65 1825.99 L1160.65 1825.99 L1178.47 1825.99 L1178.47 1825.99 L1196.41 1825.99 L1196.41 1825.99 L1214.23 1825.99 L1214.23 1814.85 L1232.06 1814.85 L1232.06 1814.85 L1249.88 1814.85 L1249.88 1814.85 L1267.82 1814.85 L1267.82 1814.85 L1285.64 1814.85 L1285.64 1803.59 L1303.46 1803.59 L1303.46 1792.33 L1321.28 1792.33 L1321.28 1792.33 L1339.10 1792.33 L1339.10 1781.07 L1357.04 1781.07 L1357.04 1781.07 L1374.86 1781.07 L1374.86 1758.67 L1392.68 1758.67 L1392.68 1747.40 L1410.50 1747.40 L1410.50 1736.14 L1428.45 1736.14 L1428.45 1713.62 L1446.27 1713.62 L1446.27 1691.22 L1464.09 1691.22 L1464.09 1657.44 L1481.91 1657.44 L1481.91 1646.30 L1499.85 1646.30 L1499.85 1635.04 L1517.67 1635.04 L1517.67 1590.11 L1535.49 1590.11 L1535.49 1590.11 L1553.31 1590.11 L1553.31 1578.85 L1571.13 1578.85 L1571.13 1567.59 L1589.07 1567.59 L1589.07 1545.19 L1606.89 1545.19 L1606.89 1533.93 L1624.71 1533.93 L1624.71 1511.41 L1642.53 1511.41 L1642.53 1500.14 L1660.48 1500.14 L1660.48 1477.74 L1678.30 1477.74 L1678.30 1466.48 L1696.12 1466.48 L1696.12 1455.22 L1713.94 1455.22 L1713.94 1443.96 L1731.88 1443.96 L1731.88 1432.82 L1767.52 1432.82 L1767.52 1421.56 L1838.92 1421.56 L1838.92 1421.56" stroke-linejoin="round" style="fill:none;stroke:#90353B;stroke-width:6.48"/>
	<path d=" M428.92 1825.99 L428.92 1825.99 L428.92 1825.99 L428.92 1825.99 L428.92 1825.99 L428.92 1825.99 L428.92 1825.99 L428.92 1825.99 L428.92 1825.99 L428.92 1825.99 L428.92 1825.99 L446.74 1825.99 L446.74 1825.99 L464.56 1825.99 L464.56 1825.99 L482.50 1825.99 L482.50 1825.99 L500.32 1825.99 L500.32 1825.99 L518.14 1825.99 L518.14 1825.99 L535.96 1825.99 L535.96 1825.99 L553.78 1825.99 L553.78 1825.99 L571.73 1825.99 L571.73 1825.99 L589.54 1825.99 L589.54 1825.99 L607.37 1825.99 L607.37 1825.99 L625.18 1825.99 L625.18 1825.99 L643.13 1825.99 L643.13 1825.99 L660.95 1825.99 L660.95 1825.99 L678.77 1825.99 L678.77 1825.99 L696.59 1825.99 L696.59 1825.99 L714.53 1825.99 L714.53 1825.99 L732.35 1825.99 L732.35 1825.99 L750.17 1825.99 L750.17 1825.99 L767.99 1825.99 L767.99 1825.99 L785.81 1825.99 L785.81 1825.99 L803.76 1825.99 L803.76 1825.99 L821.58 1825.99 L821.58 1825.99 L839.40 1825.99 L839.40 1825.99 L857.22 1825.99 L857.22 1825.99 L875.16 1825.99 L875.16 1825.99 L892.98 1825.99 L892.98 1825.99 L910.80 1825.99 L910.80 1825.99 L928.62 1825.99 L928.62 1825.99 L946.44 1825.99 L946.44 1825.99 L964.38 1825.99 L964.38 1815.59 L982.20 1815.59 L982.20 1815.59 L1000.02 1815.59 L1000.02 1815.59 L1017.84 1815.59 L1017.84 1815.59 L1035.79 1815.59 L1035.79 1815.59 L1053.61 1815.59 L1053.61 1815.59 L1071.43 1815.59 L1071.43 1815.59 L1089.25 1815.59 L1089.25 1815.59 L1107.19 1815.59 L1107.19 1815.59 L1125.01 1815.59 L1125.01 1815.59 L1142.83 1815.59 L1142.83 1815.59 L1160.65 1815.59 L1160.65 1815.59 L1178.47 1815.59 L1178.47 1815.59 L1196.41 1815.59 L1196.41 1815.59 L1214.23 1815.59 L1214.23 1815.59 L1232.06 1815.59 L1232.06 1815.59 L1249.88 1815.59 L1249.88 1794.93 L1267.82 1794.93 L1267.82 1774.14 L1285.64 1774.14 L1285.64 1763.74 L1303.46 1763.74 L1303.46 1742.95 L1321.28 1742.95 L1321.28 1722.16 L1339.10 1722.16 L1339.10 1701.37 L1357.04 1701.37 L1357.04 1659.79 L1374.86 1659.79 L1374.86 1639.00 L1392.68 1639.00 L1392.68 1618.21 L1410.50 1618.21 L1410.50 1587.02 L1428.45 1587.02 L1428.45 1566.23 L1446.27 1566.23 L1446.27 1524.65 L1464.09 1524.65 L1464.09 1472.79 L1481.91 1472.79 L1481.91 1420.82 L1499.85 1420.82 L1499.85 1410.42 L1517.67 1410.42 L1517.67 1358.45 L1535.49 1358.45 L1535.49 1306.47 L1553.31 1306.47 L1553.31 1264.89 L1571.13 1264.89 L1571.13 1233.70 L1589.07 1233.70 L1589.07 1213.04 L1606.89 1213.04 L1606.89 1192.24 L1624.71 1192.24 L1624.71 1150.66 L1642.53 1150.66 L1642.53 1119.48 L1660.48 1119.48 L1660.48 1109.08 L1678.30 1109.08 L1678.30 1088.29 L1696.12 1088.29 L1696.12 1077.90 L1749.70 1077.90 L1749.70 1057.11 L1767.52 1057.11 L1767.52 1046.71 L1785.34 1046.71 L1785.34 1036.31 L1838.92 1036.31 L1838.92 1036.31" stroke-linejoin="round" style="fill:none;stroke:#55752F;stroke-width:6.48"/>
	<path d=" M428.92 1825.99 L428.92 1825.99 L428.92 1825.99 L428.92 1825.99 L428.92 1825.99 L428.92 1825.99 L428.92 1825.99 L428.92 1825.99 L428.92 1825.99 L428.92 1825.99 L428.92 1825.99 L446.74 1825.99 L446.74 1825.99 L464.56 1825.99 L464.56 1825.99 L482.50 1825.99 L482.50 1825.99 L500.32 1825.99 L500.32 1825.99 L518.14 1825.99 L518.14 1825.99 L535.96 1825.99 L535.96 1825.99 L553.78 1825.99 L553.78 1825.99 L571.73 1825.99 L571.73 1825.99 L589.54 1825.99 L589.54 1825.99 L607.37 1825.99 L607.37 1825.99 L625.18 1825.99 L625.18 1825.99 L643.13 1825.99 L643.13 1825.99 L660.95 1825.99 L660.95 1825.99 L678.77 1825.99 L678.77 1825.99 L696.59 1825.99 L696.59 1825.99 L714.53 1825.99 L714.53 1825.99 L732.35 1825.99 L732.35 1825.99 L750.17 1825.99 L750.17 1825.99 L767.99 1825.99 L767.99 1825.99 L785.81 1825.99 L785.81 1825.99 L803.76 1825.99 L803.76 1825.99 L821.58 1825.99 L821.58 1825.99 L839.40 1825.99 L839.40 1825.99 L857.22 1825.99 L857.22 1825.99 L875.16 1825.99 L875.16 1825.99 L892.98 1825.99 L892.98 1825.99 L910.80 1825.99 L910.80 1825.99 L928.62 1825.99 L928.62 1825.99 L946.44 1825.99 L946.44 1825.99 L964.38 1825.99 L964.38 1825.99 L982.20 1825.99 L982.20 1825.99 L1000.02 1825.99 L1000.02 1825.99 L1017.84 1825.99 L1017.84 1825.99 L1035.79 1825.99 L1035.79 1825.99 L1053.61 1825.99 L1053.61 1813.12 L1071.43 1813.12 L1071.43 1800.12 L1089.25 1800.12 L1089.25 1800.12 L1107.19 1800.12 L1107.19 1800.12 L1125.01 1800.12 L1125.01 1800.12 L1142.83 1800.12 L1142.83 1774.26 L1160.65 1774.26 L1160.65 1774.26 L1178.47 1774.26 L1178.47 1774.26 L1196.41 1774.26 L1196.41 1761.39 L1214.23 1761.39 L1214.23 1748.39 L1232.06 1748.39 L1232.06 1748.39 L1249.88 1748.39 L1249.88 1748.39 L1267.82 1748.39 L1267.82 1735.52 L1285.64 1735.52 L1285.64 1709.66 L1303.46 1709.66 L1303.46 1709.66 L1321.28 1709.66 L1321.28 1696.67 L1339.10 1696.67 L1339.10 1696.67 L1357.04 1696.67 L1357.04 1670.80 L1374.86 1670.80 L1374.86 1619.07 L1392.68 1619.07 L1392.68 1541.48 L1410.50 1541.48 L1410.50 1463.76 L1428.45 1463.76 L1428.45 1412.03 L1446.27 1412.03 L1446.27 1360.30 L1464.09 1360.30 L1464.09 1282.71 L1481.91 1282.71 L1481.91 1217.99 L1499.85 1217.99 L1499.85 1179.13 L1517.67 1179.13 L1517.67 1153.26 L1535.49 1153.26 L1535.49 1114.53 L1553.31 1114.53 L1553.31 1010.95 L1571.13 1010.95 L1571.13 985.08 L1589.07 985.08 L1589.07 933.35 L1606.89 933.35 L1606.89 868.63 L1624.71 868.63 L1624.71 829.77 L1642.53 829.77 L1642.53 778.04 L1678.30 778.04 L1678.30 739.18 L1713.94 739.18 L1713.94 726.31 L1731.88 726.31 L1731.88 713.32 L1785.34 713.32 L1785.34 700.45 L1838.92 700.45 L1838.92 700.45" stroke-linejoin="round" style="fill:none;stroke:#E37E00;stroke-width:6.48"/>
	<path d=" M428.92 1825.99 L428.92 1825.99 L428.92 1825.99 L428.92 1825.99 L428.92 1825.99 L428.92 1825.99 L428.92 1825.99 L428.92 1825.99 L428.92 1825.99 L428.92 1825.99 L428.92 1825.99 L446.74 1825.99 L446.74 1825.99 L464.56 1825.99 L464.56 1825.99 L482.50 1825.99 L482.50 1825.99 L500.32 1825.99 L500.32 1825.99 L518.14 1825.99 L518.14 1825.99 L535.96 1825.99 L535.96 1825.99 L553.78 1825.99 L553.78 1825.99 L571.73 1825.99 L571.73 1825.99 L589.54 1825.99 L589.54 1825.99 L607.37 1825.99 L607.37 1825.99 L625.18 1825.99 L625.18 1825.99 L643.13 1825.99 L643.13 1825.99 L660.95 1825.99 L660.95 1825.99 L678.77 1825.99 L678.77 1825.99 L696.59 1825.99 L696.59 1825.99 L714.53 1825.99 L714.53 1825.99 L732.35 1825.99 L732.35 1825.99 L750.17 1825.99 L750.17 1825.99 L767.99 1825.99 L767.99 1825.99 L785.81 1825.99 L785.81 1825.99 L803.76 1825.99 L803.76 1825.99 L821.58 1825.99 L821.58 1825.99 L839.40 1825.99 L839.40 1825.99 L857.22 1825.99 L857.22 1825.99 L875.16 1825.99 L875.16 1825.99 L892.98 1825.99 L892.98 1825.99 L910.80 1825.99 L910.80 1825.99 L928.62 1825.99 L928.62 1825.99 L946.44 1825.99 L946.44 1825.99 L964.38 1825.99 L964.38 1825.99 L982.20 1825.99 L982.20 1825.99 L1000.02 1825.99 L1000.02 1825.99 L1017.84 1825.99 L1017.84 1825.99 L1035.79 1825.99 L1035.79 1825.99 L1053.61 1825.99 L1053.61 1825.99 L1071.43 1825.99 L1071.43 1825.99 L1089.25 1825.99 L1089.25 1825.99 L1107.19 1825.99 L1107.19 1825.99 L1125.01 1825.99 L1125.01 1825.99 L1142.83 1825.99 L1142.83 1825.99 L1160.65 1825.99 L1160.65 1825.99 L1178.47 1825.99 L1178.47 1825.99 L1196.41 1825.99 L1196.41 1810.64 L1214.23 1810.64 L1214.23 1810.64 L1232.06 1810.64 L1232.06 1810.64 L1249.88 1810.64 L1249.88 1795.30 L1267.82 1795.30 L1267.82 1779.95 L1285.64 1779.95 L1285.64 1764.48 L1303.46 1764.48 L1303.46 1764.48 L1321.28 1764.48 L1321.28 1733.79 L1339.10 1733.79 L1339.10 1702.98 L1357.04 1702.98 L1357.04 1672.16 L1374.86 1672.16 L1374.86 1641.47 L1392.68 1641.47 L1392.68 1595.31 L1410.50 1595.31 L1410.50 1579.84 L1428.45 1579.84 L1428.45 1549.03 L1446.27 1549.03 L1446.27 1487.52 L1464.09 1487.52 L1464.09 1487.52 L1481.91 1487.52 L1481.91 1441.36 L1499.85 1441.36 L1499.85 1441.36 L1517.67 1441.36 L1517.67 1333.57 L1535.49 1333.57 L1535.49 1318.23 L1553.31 1318.23 L1553.31 1287.41 L1571.13 1287.41 L1571.13 1241.25 L1589.07 1241.25 L1589.07 1225.78 L1606.89 1225.78 L1606.89 1195.09 L1678.30 1195.09 L1678.30 1179.62 L1696.12 1179.62 L1696.12 1164.28 L1713.94 1164.28 L1713.94 1148.81 L1838.92 1148.81 L1838.92 1148.81" stroke-linejoin="round" style="fill:none;stroke:#6E8E84;stroke-width:6.48"/>
	<path d=" M428.92 1825.99 L428.92 1825.99 L428.92 1825.99 L428.92 1825.99 L428.92 1825.99 L428.92 1825.99 L428.92 1825.99 L428.92 1825.99 L428.92 1825.99 L428.92 1825.99 L428.92 1825.99 L446.74 1825.99 L446.74 1825.99 L464.56 1825.99 L464.56 1825.99 L482.50 1825.99 L482.50 1825.99 L500.32 1825.99 L500.32 1825.99 L518.14 1825.99 L518.14 1825.99 L535.96 1825.99 L535.96 1825.99 L553.78 1825.99 L553.78 1825.99 L571.73 1825.99 L571.73 1825.99 L589.54 1825.99 L589.54 1825.99 L607.37 1825.99 L607.37 1825.99 L625.18 1825.99 L625.18 1825.99 L643.13 1825.99 L643.13 1825.99 L660.95 1825.99 L660.95 1825.99 L678.77 1825.99 L678.77 1825.99 L696.59 1825.99 L696.59 1825.99 L714.53 1825.99 L714.53 1825.99 L732.35 1825.99 L732.35 1825.99 L750.17 1825.99 L750.17 1825.99 L767.99 1825.99 L767.99 1825.99 L785.81 1825.99 L785.81 1825.99 L803.76 1825.99 L803.76 1825.99 L821.58 1825.99 L821.58 1825.99 L839.40 1825.99 L839.40 1825.99 L857.22 1825.99 L857.22 1825.99 L875.16 1825.99 L875.16 1825.99 L892.98 1825.99 L892.98 1825.99 L910.80 1825.99 L910.80 1825.99 L928.62 1825.99 L928.62 1825.99 L946.44 1825.99 L946.44 1825.99 L964.38 1825.99 L964.38 1825.99 L982.20 1825.99 L982.20 1825.99 L1000.02 1825.99 L1000.02 1825.99 L1017.84 1825.99 L1017.84 1825.99 L1035.79 1825.99 L1035.79 1825.99 L1053.61 1825.99 L1053.61 1825.99 L1071.43 1825.99 L1071.43 1825.99 L1089.25 1825.99 L1089.25 1825.99 L1107.19 1825.99 L1107.19 1825.99 L1125.01 1825.99 L1125.01 1825.99 L1142.83 1825.99 L1142.83 1825.99 L1160.65 1825.99 L1160.65 1825.99 L1178.47 1825.99 L1178.47 1825.99 L1196.41 1825.99 L1196.41 1825.99 L1214.23 1825.99 L1214.23 1825.99 L1232.06 1825.99 L1232.06 1825.99 L1249.88 1825.99 L1249.88 1825.99 L1267.82 1825.99 L1267.82 1825.99 L1285.64 1825.99 L1285.64 1825.99 L1303.46 1825.99 L1303.46 1825.99 L1321.28 1825.99 L1321.28 1825.99 L1339.10 1825.99 L1339.10 1825.99 L1357.04 1825.99 L1357.04 1825.99 L1374.86 1825.99 L1374.86 1825.99 L1392.68 1825.99 L1392.68 1802.48 L1410.50 1802.48 L1410.50 1802.48 L1428.45 1802.48 L1428.45 1755.32 L1446.27 1755.32 L1446.27 1755.32 L1464.09 1755.32 L1464.09 1731.81 L1481.91 1731.81 L1481.91 1708.30 L1499.85 1708.30 L1499.85 1708.30 L1517.67 1708.30 L1517.67 1684.66 L1535.49 1684.66 L1535.49 1684.66 L1553.31 1684.66 L1553.31 1684.66 L1571.13 1684.66 L1571.13 1684.66 L1589.07 1684.66 L1589.07 1684.66 L1606.89 1684.66 L1606.89 1661.15 L1713.94 1661.15 L1713.94 1637.51 L1767.52 1637.51 L1767.52 1613.87 L1838.92 1613.87 L1838.92 1613.87" stroke-linejoin="round" style="fill:none;stroke:#C10534;stroke-width:6.48"/>
	<line x1="381.40" y1="1873.51" x2="381.40" y2="524.47" style="stroke:#000000;stroke-width:4.32"/>
	<line x1="381.40" y1="1825.99" x2="351.45" y2="1825.99" style="stroke:#000000;stroke-width:4.32"/>
	<text x="336.48" y="1852.27" style="font-family:'Helvetica';font-size:74.99px;fill:#000000" text-anchor="end">0.00</text>
	<line x1="381.40" y1="1512.52" x2="351.45" y2="1512.52" style="stroke:#000000;stroke-width:4.32"/>
	<text x="336.48" y="1538.80" style="font-family:'Helvetica';font-size:74.99px;fill:#000000" text-anchor="end">0.00</text>
	<line x1="381.40" y1="1198.93" x2="351.45" y2="1198.93" style="stroke:#000000;stroke-width:4.32"/>
	<text x="336.48" y="1225.21" style="font-family:'Helvetica';font-size:74.99px;fill:#000000" text-anchor="end">0.00</text>
	<line x1="381.40" y1="885.46" x2="351.45" y2="885.46" style="stroke:#000000;stroke-width:4.32"/>
	<text x="336.48" y="911.74" style="font-family:'Helvetica';font-size:74.99px;fill:#000000" text-anchor="end">0.00</text>
	<line x1="381.40" y1="571.99" x2="351.45" y2="571.99" style="stroke:#000000;stroke-width:4.32"/>
	<text x="336.48" y="598.27" style="font-family:'Helvetica';font-size:74.99px;fill:#000000" text-anchor="end">0.00</text>
	<line x1="381.40" y1="1873.51" x2="1904.39" y2="1873.51" style="stroke:#000000;stroke-width:4.32"/>
	<line x1="428.92" y1="1873.51" x2="428.92" y2="1903.46" style="stroke:#000000;stroke-width:4.32"/>
	<text x="428.92" y="1970.87" style="font-family:'Helvetica';font-size:74.99px;fill:#000000" text-anchor="middle">0</text>
	<line x1="785.94" y1="1873.51" x2="785.94" y2="1903.46" style="stroke:#000000;stroke-width:4.32"/>
	<text x="785.94" y="1970.87" style="font-family:'Helvetica';font-size:74.99px;fill:#000000" text-anchor="middle">20</text>
	<line x1="1142.83" y1="1873.51" x2="1142.83" y2="1903.46" style="stroke:#000000;stroke-width:4.32"/>
	<text x="1142.83" y="1970.87" style="font-family:'Helvetica';font-size:74.99px;fill:#000000" text-anchor="middle">40</text>
	<line x1="1499.85" y1="1873.51" x2="1499.85" y2="1903.46" style="stroke:#000000;stroke-width:4.32"/>
	<text x="1499.85" y="1970.87" style="font-family:'Helvetica';font-size:74.99px;fill:#000000" text-anchor="middle">60</text>
	<line x1="1856.87" y1="1873.51" x2="1856.87" y2="1903.46" style="stroke:#000000;stroke-width:4.32"/>
	<text x="1856.87" y="1970.87" style="font-family:'Helvetica';font-size:74.99px;fill:#000000" text-anchor="middle">80</text>
	<text x="1142.83" y="2053.41" style="font-family:'Helvetica';font-size:74.99px;fill:#000000" text-anchor="middle">Days since 1 Feb 2020</text>
	<text x="1142.83" y="479.93" style="font-family:'Helvetica';font-size:104.94px;fill:#1E2D53" text-anchor="middle">Female</text>
	<rect x="1980.00" y="317.92" width="1916.52" height="1848.64" style="fill:#EAF2F3"/>
	<rect x="1982.16" y="320.08" width="1912.20" height="1844.32" style="fill:none;stroke:#EAF2F3;stroke-width:4.32"/>
	<rect x="2298.04" y="524.47" width="1522.87" height="1349.04" style="fill:#FFFFFF"/>
	<rect x="2300.20" y="526.63" width="1518.55" height="1344.72" style="fill:none;stroke:#FFFFFF;stroke-width:4.32"/>
	<line x1="2298.04" y1="1825.99" x2="3820.91" y2="1825.99" style="stroke:#EAF2F3;stroke-width:6.48"/>
	<line x1="2298.04" y1="1512.52" x2="3820.91" y2="1512.52" style="stroke:#EAF2F3;stroke-width:6.48"/>
	<line x1="2298.04" y1="1198.93" x2="3820.91" y2="1198.93" style="stroke:#EAF2F3;stroke-width:6.48"/>
	<line x1="2298.04" y1="885.46" x2="3820.91" y2="885.46" style="stroke:#EAF2F3;stroke-width:6.48"/>
	<line x1="2298.04" y1="571.99" x2="3820.91" y2="571.99" style="stroke:#EAF2F3;stroke-width:6.48"/>
	<path d=" M2345.43 1825.99 L2345.43 1825.99 L2345.43 1825.99 L2345.43 1825.99 L2345.43 1825.99 L2345.43 1825.99 L2345.43 1825.99 L2345.43 1825.99 L2345.43 1825.99 L2345.43 1825.99 L2345.43 1825.99 L2363.38 1825.99 L2363.38 1825.99 L2381.20 1825.99 L2381.20 1825.99 L2399.02 1825.99 L2399.02 1825.99 L2416.84 1825.99 L2416.84 1825.99 L2470.42 1825.99 L2470.42 1825.99 L2488.24 1825.99 L2488.24 1825.99 L2541.82 1825.99 L2541.82 1825.99 L2577.47 1825.99 L2577.47 1825.99 L2595.41 1825.99 L2595.41 1825.99 L2613.23 1825.99 L2613.23 1825.99 L2631.05 1825.99 L2631.05 1825.99 L2648.87 1825.99 L2648.87 1825.99 L2684.63 1825.99 L2684.63 1825.99 L2720.27 1825.99 L2720.27 1825.99 L2738.09 1825.99 L2738.09 1825.99 L2791.68 1825.99 L2791.68 1825.99 L2809.50 1825.99 L2809.50 1825.99 L2827.44 1825.99 L2827.44 1825.99 L2845.26 1825.99 L2845.26 1825.99 L2863.08 1825.99 L2863.08 1825.99 L2898.72 1825.99 L2898.72 1825.99 L2916.66 1825.99 L2916.66 1825.99 L2970.12 1825.99 L2970.12 1825.99 L2988.07 1825.99 L2988.07 1825.99 L3023.71 1825.99 L3023.71 1824.01 L3041.53 1824.01 L3041.53 1824.01 L3059.47 1824.01 L3059.47 1824.01 L3077.29 1824.01 L3077.29 1824.01 L3095.11 1824.01 L3095.11 1821.90 L3112.93 1821.90 L3112.93 1821.90 L3130.75 1821.90 L3130.75 1817.82 L3148.70 1817.82 L3148.70 1815.84 L3166.51 1815.84 L3166.51 1815.84 L3184.34 1815.84 L3184.34 1815.84 L3202.16 1815.84 L3202.16 1815.84 L3220.10 1815.84 L3220.10 1811.63 L3237.92 1811.63 L3237.92 1809.65 L3255.74 1809.65 L3255.74 1809.65 L3273.56 1809.65 L3273.56 1805.57 L3291.38 1805.57 L3291.38 1795.30 L3309.32 1795.30 L3309.32 1791.21 L3327.14 1791.21 L3327.14 1787.13 L3344.96 1787.13 L3344.96 1780.94 L3362.78 1780.94 L3362.78 1772.77 L3380.73 1772.77 L3380.73 1772.77 L3398.55 1772.77 L3398.55 1768.69 L3416.37 1768.69 L3416.37 1760.52 L3434.19 1760.52 L3434.19 1754.33 L3452.13 1754.33 L3452.13 1752.23 L3469.95 1752.23 L3469.95 1748.15 L3487.77 1748.15 L3487.77 1739.98 L3505.59 1739.98 L3505.59 1735.90 L3523.41 1735.90 L3523.41 1731.81 L3541.35 1731.81 L3541.35 1727.73 L3559.17 1727.73 L3559.17 1723.64 L3576.99 1723.64 L3576.99 1721.54 L3594.81 1721.54 L3594.81 1719.44 L3612.76 1719.44 L3612.76 1717.46 L3630.58 1717.46 L3630.58 1715.35 L3755.44 1715.35 L3755.44 1715.35" stroke-linejoin="round" style="fill:none;stroke:#1A476F;stroke-width:6.48"/>
	<path d=" M2345.43 1825.99 L2345.43 1825.99 L2345.43 1825.99 L2345.43 1825.99 L2345.43 1825.99 L2345.43 1825.99 L2345.43 1825.99 L2345.43 1825.99 L2345.43 1825.99 L2345.43 1825.99 L2345.43 1825.99 L2363.38 1825.99 L2363.38 1825.99 L2381.20 1825.99 L2381.20 1825.99 L2399.02 1825.99 L2399.02 1825.99 L2416.84 1825.99 L2416.84 1825.99 L2434.78 1825.99 L2434.78 1825.99 L2452.60 1825.99 L2452.60 1825.99 L2470.42 1825.99 L2470.42 1825.99 L2488.24 1825.99 L2488.24 1825.99 L2506.06 1825.99 L2506.06 1825.99 L2524.01 1825.99 L2524.01 1825.99 L2541.82 1825.99 L2541.82 1825.99 L2559.64 1825.99 L2559.64 1825.99 L2577.47 1825.99 L2577.47 1825.99 L2595.41 1825.99 L2595.41 1825.99 L2613.23 1825.99 L2613.23 1825.99 L2631.05 1825.99 L2631.05 1825.99 L2648.87 1825.99 L2648.87 1825.99 L2666.69 1825.99 L2666.69 1825.99 L2684.63 1825.99 L2684.63 1825.99 L2702.45 1825.99 L2702.45 1825.99 L2720.27 1825.99 L2720.27 1825.99 L2738.09 1825.99 L2738.09 1825.99 L2756.04 1825.99 L2756.04 1825.99 L2773.86 1825.99 L2773.86 1825.99 L2791.68 1825.99 L2791.68 1825.99 L2809.50 1825.99 L2809.50 1825.99 L2827.44 1825.99 L2827.44 1825.99 L2845.26 1825.99 L2845.26 1825.99 L2863.08 1825.99 L2863.08 1821.78 L2880.90 1821.78 L2880.90 1821.78 L2898.72 1821.78 L2898.72 1821.78 L2916.66 1821.78 L2916.66 1821.78 L2934.48 1821.78 L2934.48 1821.78 L2952.30 1821.78 L2952.30 1821.78 L2970.12 1821.78 L2970.12 1821.78 L2988.07 1821.78 L2988.07 1821.78 L3005.89 1821.78 L3005.89 1821.78 L3023.71 1821.78 L3023.71 1821.78 L3041.53 1821.78 L3041.53 1821.78 L3059.47 1821.78 L3059.47 1821.78 L3077.29 1821.78 L3077.29 1821.78 L3095.11 1821.78 L3095.11 1821.78 L3112.93 1821.78 L3112.93 1821.78 L3130.75 1821.78 L3130.75 1809.03 L3148.70 1809.03 L3148.70 1804.83 L3166.51 1804.83 L3166.51 1804.83 L3184.34 1804.83 L3184.34 1796.29 L3202.16 1796.29 L3202.16 1796.29 L3220.10 1796.29 L3220.10 1792.08 L3237.92 1792.08 L3237.92 1783.54 L3255.74 1783.54 L3255.74 1775.13 L3273.56 1775.13 L3273.56 1758.05 L3291.38 1758.05 L3291.38 1736.89 L3309.32 1736.89 L3309.32 1715.60 L3327.14 1715.60 L3327.14 1698.65 L3344.96 1698.65 L3344.96 1690.11 L3362.78 1690.11 L3362.78 1681.69 L3380.73 1681.69 L3380.73 1664.61 L3398.55 1664.61 L3398.55 1651.87 L3416.37 1651.87 L3416.37 1630.70 L3434.19 1630.70 L3434.19 1613.75 L3452.13 1613.75 L3452.13 1605.21 L3469.95 1605.21 L3469.95 1571.18 L3487.77 1571.18 L3487.77 1558.43 L3505.59 1558.43 L3505.59 1545.69 L3523.41 1545.69 L3523.41 1528.73 L3541.35 1528.73 L3541.35 1520.32 L3559.17 1520.32 L3559.17 1511.78 L3576.99 1511.78 L3576.99 1486.28 L3666.22 1486.28 L3666.22 1482.08 L3719.80 1482.08 L3719.80 1477.74 L3755.44 1477.74 L3755.44 1477.74" stroke-linejoin="round" style="fill:none;stroke:#90353B;stroke-width:6.48"/>
	<path d=" M2345.43 1825.99 L2345.43 1825.99 L2345.43 1825.99 L2345.43 1825.99 L2345.43 1825.99 L2345.43 1825.99 L2345.43 1825.99 L2345.43 1825.99 L2345.43 1825.99 L2345.43 1825.99 L2345.43 1825.99 L2363.38 1825.99 L2363.38 1825.99 L2381.20 1825.99 L2381.20 1825.99 L2399.02 1825.99 L2399.02 1825.99 L2416.84 1825.99 L2416.84 1825.99 L2434.78 1825.99 L2434.78 1825.99 L2452.60 1825.99 L2452.60 1825.99 L2470.42 1825.99 L2470.42 1825.99 L2488.24 1825.99 L2488.24 1825.99 L2506.06 1825.99 L2506.06 1825.99 L2524.01 1825.99 L2524.01 1825.99 L2541.82 1825.99 L2541.82 1825.99 L2559.64 1825.99 L2559.64 1825.99 L2577.47 1825.99 L2577.47 1825.99 L2595.41 1825.99 L2595.41 1825.99 L2613.23 1825.99 L2613.23 1825.99 L2631.05 1825.99 L2631.05 1825.99 L2648.87 1825.99 L2648.87 1825.99 L2666.69 1825.99 L2666.69 1825.99 L2684.63 1825.99 L2684.63 1825.99 L2702.45 1825.99 L2702.45 1825.99 L2720.27 1825.99 L2720.27 1825.99 L2738.09 1825.99 L2738.09 1825.99 L2756.04 1825.99 L2756.04 1825.99 L2773.86 1825.99 L2773.86 1825.99 L2791.68 1825.99 L2791.68 1825.99 L2809.50 1825.99 L2809.50 1825.99 L2827.44 1825.99 L2827.44 1825.99 L2845.26 1825.99 L2845.26 1825.99 L2863.08 1825.99 L2863.08 1825.99 L2880.90 1825.99 L2880.90 1825.99 L2898.72 1825.99 L2898.72 1825.99 L2916.66 1825.99 L2916.66 1825.99 L2934.48 1825.99 L2934.48 1825.99 L2952.30 1825.99 L2952.30 1825.99 L2970.12 1825.99 L2970.12 1825.99 L2988.07 1825.99 L2988.07 1825.99 L3005.89 1825.99 L3005.89 1825.99 L3023.71 1825.99 L3023.71 1817.94 L3041.53 1817.94 L3041.53 1813.98 L3059.47 1813.98 L3059.47 1813.98 L3077.29 1813.98 L3077.29 1813.98 L3095.11 1813.98 L3095.11 1813.98 L3112.93 1813.98 L3112.93 1813.98 L3130.75 1813.98 L3130.75 1809.90 L3148.70 1809.90 L3148.70 1809.90 L3166.51 1809.90 L3166.51 1801.86 L3184.34 1801.86 L3184.34 1785.77 L3202.16 1785.77 L3202.16 1769.68 L3220.10 1769.68 L3220.10 1761.64 L3237.92 1761.64 L3237.92 1753.59 L3255.74 1753.59 L3255.74 1737.50 L3273.56 1737.50 L3273.56 1717.33 L3291.38 1717.33 L3291.38 1693.20 L3309.32 1693.20 L3309.32 1652.98 L3327.14 1652.98 L3327.14 1608.68 L3344.96 1608.68 L3344.96 1564.50 L3362.78 1564.50 L3362.78 1536.28 L3380.73 1536.28 L3380.73 1500.02 L3398.55 1500.02 L3398.55 1463.88 L3416.37 1463.88 L3416.37 1407.45 L3434.19 1407.45 L3434.19 1379.36 L3452.13 1379.36 L3452.13 1331.10 L3469.95 1331.10 L3469.95 1306.84 L3487.77 1306.84 L3487.77 1270.70 L3505.59 1270.70 L3505.59 1250.53 L3523.41 1250.53 L3523.41 1230.48 L3541.35 1230.48 L3541.35 1210.31 L3559.17 1210.31 L3559.17 1198.18 L3576.99 1198.18 L3576.99 1162.05 L3594.81 1162.05 L3594.81 1157.96 L3612.76 1157.96 L3612.76 1149.92 L3630.58 1149.92 L3630.58 1137.92 L3648.40 1137.92 L3648.40 1125.79 L3666.22 1125.79 L3666.22 1117.74 L3701.98 1117.74 L3701.98 1113.66 L3755.44 1113.66 L3755.44 1113.66" stroke-linejoin="round" style="fill:none;stroke:#55752F;stroke-width:6.48"/>
	<path d=" M2345.43 1825.99 L2345.43 1825.99 L2345.43 1825.99 L2345.43 1825.99 L2345.43 1825.99 L2345.43 1825.99 L2345.43 1825.99 L2345.43 1825.99 L2345.43 1825.99 L2345.43 1825.99 L2345.43 1825.99 L2363.38 1825.99 L2363.38 1825.99 L2381.20 1825.99 L2381.20 1825.99 L2399.02 1825.99 L2399.02 1825.99 L2416.84 1825.99 L2416.84 1825.99 L2434.78 1825.99 L2434.78 1825.99 L2452.60 1825.99 L2452.60 1825.99 L2470.42 1825.99 L2470.42 1825.99 L2488.24 1825.99 L2488.24 1825.99 L2506.06 1825.99 L2506.06 1825.99 L2524.01 1825.99 L2524.01 1825.99 L2541.82 1825.99 L2541.82 1825.99 L2559.64 1825.99 L2559.64 1825.99 L2577.47 1825.99 L2577.47 1825.99 L2595.41 1825.99 L2595.41 1825.99 L2613.23 1825.99 L2613.23 1825.99 L2631.05 1825.99 L2631.05 1825.99 L2648.87 1825.99 L2648.87 1825.99 L2666.69 1825.99 L2666.69 1825.99 L2684.63 1825.99 L2684.63 1825.99 L2702.45 1825.99 L2702.45 1825.99 L2720.27 1825.99 L2720.27 1825.99 L2738.09 1825.99 L2738.09 1825.99 L2756.04 1825.99 L2756.04 1825.99 L2773.86 1825.99 L2773.86 1825.99 L2791.68 1825.99 L2791.68 1825.99 L2809.50 1825.99 L2809.50 1825.99 L2827.44 1825.99 L2827.44 1825.99 L2845.26 1825.99 L2845.26 1825.99 L2863.08 1825.99 L2863.08 1825.99 L2880.90 1825.99 L2880.90 1825.99 L2898.72 1825.99 L2898.72 1825.99 L2916.66 1825.99 L2916.66 1825.99 L2934.48 1825.99 L2934.48 1825.99 L2952.30 1825.99 L2952.30 1825.99 L2970.12 1825.99 L2970.12 1820.79 L2988.07 1820.79 L2988.07 1815.47 L3005.89 1815.47 L3005.89 1815.47 L3023.71 1815.47 L3023.71 1815.47 L3041.53 1815.47 L3041.53 1810.27 L3059.47 1810.27 L3059.47 1810.27 L3077.29 1810.27 L3077.29 1794.43 L3095.11 1794.43 L3095.11 1789.23 L3112.93 1789.23 L3112.93 1783.91 L3130.75 1783.91 L3130.75 1773.39 L3148.70 1773.39 L3148.70 1762.87 L3166.51 1762.87 L3166.51 1747.16 L3184.34 1747.16 L3184.34 1736.64 L3202.16 1736.64 L3202.16 1694.56 L3220.10 1694.56 L3220.10 1673.52 L3237.92 1673.52 L3237.92 1631.45 L3255.74 1631.45 L3255.74 1573.53 L3273.56 1573.53 L3273.56 1526.13 L3291.38 1526.13 L3291.38 1489.38 L3309.32 1489.38 L3309.32 1452.50 L3327.14 1452.50 L3327.14 1420.94 L3344.96 1420.94 L3344.96 1368.35 L3362.78 1368.35 L3362.78 1294.71 L3380.73 1294.71 L3380.73 1247.32 L3398.55 1247.32 L3398.55 1173.68 L3416.37 1173.68 L3416.37 1099.92 L3434.19 1099.92 L3434.19 1073.69 L3452.13 1073.69 L3452.13 1031.61 L3469.95 1031.61 L3469.95 1005.25 L3487.77 1005.25 L3487.77 926.30 L3505.59 926.30 L3505.59 889.54 L3523.41 889.54 L3523.41 852.66 L3541.35 852.66 L3541.35 821.11 L3559.17 821.11 L3559.17 800.07 L3576.99 800.07 L3576.99 773.71 L3594.81 773.71 L3594.81 757.87 L3612.76 757.87 L3612.76 742.15 L3630.58 742.15 L3630.58 726.31 L3648.40 726.31 L3648.40 715.79 L3666.22 715.79 L3666.22 700.08 L3755.44 700.08 L3755.44 700.08" stroke-linejoin="round" style="fill:none;stroke:#E37E00;stroke-width:6.48"/>
	<path d=" M2345.43 1825.99 L2345.43 1825.99 L2345.43 1825.99 L2345.43 1825.99 L2345.43 1825.99 L2345.43 1825.99 L2345.43 1825.99 L2345.43 1825.99 L2345.43 1825.99 L2345.43 1825.99 L2345.43 1825.99 L2363.38 1825.99 L2363.38 1825.99 L2381.20 1825.99 L2381.20 1825.99 L2399.02 1825.99 L2399.02 1825.99 L2416.84 1825.99 L2416.84 1825.99 L2434.78 1825.99 L2434.78 1825.99 L2452.60 1825.99 L2452.60 1825.99 L2470.42 1825.99 L2470.42 1825.99 L2488.24 1825.99 L2488.24 1825.99 L2506.06 1825.99 L2506.06 1825.99 L2524.01 1825.99 L2524.01 1825.99 L2541.82 1825.99 L2541.82 1825.99 L2559.64 1825.99 L2559.64 1825.99 L2577.47 1825.99 L2577.47 1825.99 L2595.41 1825.99 L2595.41 1825.99 L2613.23 1825.99 L2613.23 1825.99 L2631.05 1825.99 L2631.05 1825.99 L2648.87 1825.99 L2648.87 1825.99 L2666.69 1825.99 L2666.69 1825.99 L2684.63 1825.99 L2684.63 1825.99 L2702.45 1825.99 L2702.45 1825.99 L2720.27 1825.99 L2720.27 1825.99 L2738.09 1825.99 L2738.09 1825.99 L2756.04 1825.99 L2756.04 1825.99 L2773.86 1825.99 L2773.86 1825.99 L2791.68 1825.99 L2791.68 1825.99 L2809.50 1825.99 L2809.50 1825.99 L2827.44 1825.99 L2827.44 1825.99 L2845.26 1825.99 L2845.26 1825.99 L2863.08 1825.99 L2863.08 1825.99 L2880.90 1825.99 L2880.90 1825.99 L2898.72 1825.99 L2898.72 1825.99 L2916.66 1825.99 L2916.66 1825.99 L2934.48 1825.99 L2934.48 1825.99 L2952.30 1825.99 L2952.30 1825.99 L2970.12 1825.99 L2970.12 1825.99 L2988.07 1825.99 L2988.07 1825.99 L3005.89 1825.99 L3005.89 1825.99 L3023.71 1825.99 L3023.71 1819.31 L3041.53 1819.31 L3041.53 1819.31 L3059.47 1819.31 L3059.47 1812.50 L3077.29 1812.50 L3077.29 1799.01 L3095.11 1799.01 L3095.11 1792.20 L3112.93 1792.20 L3112.93 1792.20 L3130.75 1792.20 L3130.75 1778.71 L3148.70 1778.71 L3148.70 1751.74 L3166.51 1751.74 L3166.51 1744.93 L3184.34 1744.93 L3184.34 1711.14 L3202.16 1711.14 L3202.16 1690.85 L3220.10 1690.85 L3220.10 1670.55 L3237.92 1670.55 L3237.92 1630.09 L3255.74 1630.09 L3255.74 1602.98 L3273.56 1602.98 L3273.56 1562.39 L3291.38 1562.39 L3291.38 1521.93 L3309.32 1521.93 L3309.32 1454.23 L3327.14 1454.23 L3327.14 1406.96 L3344.96 1406.96 L3344.96 1386.66 L3362.78 1386.66 L3362.78 1352.75 L3380.73 1352.75 L3380.73 1258.08 L3398.55 1258.08 L3398.55 1197.19 L3416.37 1197.19 L3416.37 1089.03 L3434.19 1089.03 L3434.19 1034.83 L3452.13 1034.83 L3452.13 946.96 L3469.95 946.96 L3469.95 940.16 L3487.77 940.16 L3487.77 913.06 L3505.59 913.06 L3505.59 879.27 L3523.41 879.27 L3523.41 858.98 L3541.35 858.98 L3541.35 825.19 L3559.17 825.19 L3559.17 818.38 L3576.99 818.38 L3576.99 798.09 L3594.81 798.09 L3594.81 791.28 L3612.76 791.28 L3612.76 764.18 L3630.58 764.18 L3630.58 750.69 L3648.40 750.69 L3648.40 737.20 L3666.22 737.20 L3666.22 716.91 L3684.04 716.91 L3684.04 710.10 L3755.44 710.10 L3755.44 710.10" stroke-linejoin="round" style="fill:none;stroke:#6E8E84;stroke-width:6.48"/>
	<path d=" M2345.43 1825.99 L2345.43 1825.99 L2345.43 1825.99 L2345.43 1825.99 L2345.43 1825.99 L2345.43 1825.99 L2345.43 1825.99 L2345.43 1825.99 L2345.43 1825.99 L2345.43 1825.99 L2345.43 1825.99 L2363.38 1825.99 L2363.38 1825.99 L2381.20 1825.99 L2381.20 1825.99 L2399.02 1825.99 L2399.02 1825.99 L2416.84 1825.99 L2416.84 1825.99 L2434.78 1825.99 L2434.78 1825.99 L2452.60 1825.99 L2452.60 1825.99 L2470.42 1825.99 L2470.42 1825.99 L2488.24 1825.99 L2488.24 1825.99 L2506.06 1825.99 L2506.06 1825.99 L2524.01 1825.99 L2524.01 1825.99 L2541.82 1825.99 L2541.82 1825.99 L2559.64 1825.99 L2559.64 1825.99 L2577.47 1825.99 L2577.47 1825.99 L2595.41 1825.99 L2595.41 1825.99 L2613.23 1825.99 L2613.23 1825.99 L2631.05 1825.99 L2631.05 1825.99 L2648.87 1825.99 L2648.87 1825.99 L2666.69 1825.99 L2666.69 1825.99 L2684.63 1825.99 L2684.63 1825.99 L2702.45 1825.99 L2702.45 1825.99 L2720.27 1825.99 L2720.27 1825.99 L2738.09 1825.99 L2738.09 1825.99 L2756.04 1825.99 L2756.04 1825.99 L2773.86 1825.99 L2773.86 1825.99 L2791.68 1825.99 L2791.68 1825.99 L2809.50 1825.99 L2809.50 1825.99 L2827.44 1825.99 L2827.44 1825.99 L2845.26 1825.99 L2845.26 1825.99 L2863.08 1825.99 L2863.08 1825.99 L2880.90 1825.99 L2880.90 1825.99 L2898.72 1825.99 L2898.72 1812.75 L2916.66 1812.75 L2916.66 1812.75 L2934.48 1812.75 L2934.48 1812.75 L2952.30 1812.75 L2952.30 1812.75 L2970.12 1812.75 L2970.12 1812.75 L2988.07 1812.75 L2988.07 1799.38 L3005.89 1799.38 L3005.89 1799.38 L3023.71 1799.38 L3023.71 1799.38 L3041.53 1799.38 L3041.53 1799.38 L3059.47 1799.38 L3059.47 1799.38 L3077.29 1799.38 L3077.29 1799.38 L3095.11 1799.38 L3095.11 1799.38 L3112.93 1799.38 L3112.93 1799.38 L3130.75 1799.38 L3130.75 1799.38 L3148.70 1799.38 L3148.70 1799.38 L3166.51 1799.38 L3166.51 1799.38 L3184.34 1799.38 L3184.34 1785.89 L3202.16 1785.89 L3202.16 1772.53 L3220.10 1772.53 L3220.10 1759.16 L3237.92 1759.16 L3237.92 1718.94 L3255.74 1718.94 L3255.74 1705.45 L3273.56 1705.45 L3273.56 1692.09 L3291.38 1692.09 L3291.38 1665.23 L3309.32 1665.23 L3309.32 1625.01 L3327.14 1625.01 L3327.14 1625.01 L3344.96 1625.01 L3344.96 1584.67 L3362.78 1584.67 L3362.78 1544.45 L3380.73 1544.45 L3380.73 1544.45 L3398.55 1544.45 L3398.55 1517.47 L3416.37 1517.47 L3416.37 1490.62 L3434.19 1490.62 L3434.19 1463.76 L3452.13 1463.76 L3452.13 1450.27 L3469.95 1450.27 L3469.95 1436.91 L3487.77 1436.91 L3487.77 1436.91 L3505.59 1436.91 L3505.59 1436.91 L3630.58 1436.91 L3630.58 1423.42 L3755.44 1423.42 L3755.44 1423.42" stroke-linejoin="round" style="fill:none;stroke:#C10534;stroke-width:6.48"/>
	<line x1="2298.04" y1="1873.51" x2="2298.04" y2="524.47" style="stroke:#000000;stroke-width:4.32"/>
	<line x1="2298.04" y1="1825.99" x2="2267.97" y2="1825.99" style="stroke:#000000;stroke-width:4.32"/>
	<text x="2252.99" y="1852.27" style="font-family:'Helvetica';font-size:74.99px;fill:#000000" text-anchor="end">0.00</text>
	<line x1="2298.04" y1="1512.52" x2="2267.97" y2="1512.52" style="stroke:#000000;stroke-width:4.32"/>
	<text x="2252.99" y="1538.80" style="font-family:'Helvetica';font-size:74.99px;fill:#000000" text-anchor="end">0.00</text>
	<line x1="2298.04" y1="1198.93" x2="2267.97" y2="1198.93" style="stroke:#000000;stroke-width:4.32"/>
	<text x="2252.99" y="1225.21" style="font-family:'Helvetica';font-size:74.99px;fill:#000000" text-anchor="end">0.00</text>
	<line x1="2298.04" y1="885.46" x2="2267.97" y2="885.46" style="stroke:#000000;stroke-width:4.32"/>
	<text x="2252.99" y="911.74" style="font-family:'Helvetica';font-size:74.99px;fill:#000000" text-anchor="end">0.00</text>
	<line x1="2298.04" y1="571.99" x2="2267.97" y2="571.99" style="stroke:#000000;stroke-width:4.32"/>
	<text x="2252.99" y="598.27" style="font-family:'Helvetica';font-size:74.99px;fill:#000000" text-anchor="end">0.00</text>
	<line x1="2298.04" y1="1873.51" x2="3820.91" y2="1873.51" style="stroke:#000000;stroke-width:4.32"/>
	<line x1="2345.56" y1="1873.51" x2="2345.56" y2="1903.46" style="stroke:#000000;stroke-width:4.32"/>
	<text x="2345.56" y="1970.87" style="font-family:'Helvetica';font-size:74.99px;fill:#000000" text-anchor="middle">0</text>
	<line x1="2702.45" y1="1873.51" x2="2702.45" y2="1903.46" style="stroke:#000000;stroke-width:4.32"/>
	<text x="2702.45" y="1970.87" style="font-family:'Helvetica';font-size:74.99px;fill:#000000" text-anchor="middle">20</text>
	<line x1="3059.47" y1="1873.51" x2="3059.47" y2="1903.46" style="stroke:#000000;stroke-width:4.32"/>
	<text x="3059.47" y="1970.87" style="font-family:'Helvetica';font-size:74.99px;fill:#000000" text-anchor="middle">40</text>
	<line x1="3416.49" y1="1873.51" x2="3416.49" y2="1903.46" style="stroke:#000000;stroke-width:4.32"/>
	<text x="3416.49" y="1970.87" style="font-family:'Helvetica';font-size:74.99px;fill:#000000" text-anchor="middle">60</text>
	<line x1="3773.39" y1="1873.51" x2="3773.39" y2="1903.46" style="stroke:#000000;stroke-width:4.32"/>
	<text x="3773.39" y="1970.87" style="font-family:'Helvetica';font-size:74.99px;fill:#000000" text-anchor="middle">80</text>
	<text x="3059.47" y="2053.41" style="font-family:'Helvetica';font-size:74.99px;fill:#000000" text-anchor="middle">Days since 1 Feb 2020</text>
	<text x="3059.47" y="479.93" style="font-family:'Helvetica';font-size:104.94px;fill:#1E2D53" text-anchor="middle">Male</text>
	<text x="1979.88" y="157.51" style="font-family:'Helvetica';font-size:110.01px;fill:#000000" text-anchor="middle">ITU admission</text>
	<text x="1979.88" y="267.53" style="font-family:'Helvetica';font-size:110.01px;fill:#000000" text-anchor="middle">'</text>
	<rect x="1168.82" y="2201.21" width="1622.24" height="580.90" style="fill:#FFFFFF"/>
	<rect x="1171.70" y="2204.09" width="1616.48" height="575.14" style="fill:none;stroke:#000000;stroke-width:5.76"/>
	<line x1="1212.01" y1="2408.87" x2="1586.35" y2="2408.87" style="stroke:#1A476F;stroke-width:8.64"/>
	<line x1="2049.92" y1="2408.87" x2="2424.26" y2="2408.87" style="stroke:#90353B;stroke-width:8.64"/>
	<line x1="1212.01" y1="2548.83" x2="1586.35" y2="2548.83" style="stroke:#55752F;stroke-width:8.64"/>
	<line x1="2049.92" y1="2548.83" x2="2424.26" y2="2548.83" style="stroke:#E37E00;stroke-width:8.64"/>
	<line x1="1212.01" y1="2688.92" x2="1586.35" y2="2688.92" style="stroke:#6E8E84;stroke-width:8.64"/>
	<line x1="2049.92" y1="2688.92" x2="2424.26" y2="2688.92" style="stroke:#C10534;stroke-width:8.64"/>
	<text x="1646.37" y="2436.88" style="font-family:'Helvetica';font-size:79.94px;fill:#000000">18-&lt;40</text>
	<text x="2484.28" y="2436.88" style="font-family:'Helvetica';font-size:79.94px;fill:#000000">40-&lt;50</text>
	<text x="1646.37" y="2576.85" style="font-family:'Helvetica';font-size:79.94px;fill:#000000">50-&lt;60</text>
	<text x="2484.28" y="2576.85" style="font-family:'Helvetica';font-size:79.94px;fill:#000000">60-&lt;70</text>
	<text x="1646.37" y="2716.94" style="font-family:'Helvetica';font-size:79.94px;fill:#000000">70-&lt;80</text>
	<text x="2484.28" y="2716.94" style="font-family:'Helvetica';font-size:79.94px;fill:#000000">80+</text>
	<text x="1980.00" y="2308.96" style="font-family:'Helvetica';font-size:79.94px;fill:#000000" text-anchor="middle">Age group</text>
</svg>
